ZillaSlab-SemiBold.ufo
<glyph name="quotedbl" format="1">
  <advance width="381"/>
  <unicode hex="0022"/>
  <outline>
    <contour>
      <point x="146" y="377" type="line"/>
      <point x="154" y="650" type="line"/>
      <point x="47" y="650" type="line"/>
      <point x="55" y="377" type="line"/>
    </contour>
    <contour>
      <point x="326" y="377" type="line"/>
      <point x="334" y="650" type="line"/>
      <point x="227" y="650" type="line"/>
      <point x="235" y="377" type="line"/>
    </contour>
  </outline>
</glyph>
<glyph name="numbersign" format="1">
  <advance width="580"/>
  <unicode hex="0023"/>
  <outline>
    <contour>
      <point x="504" y="521" type="line"/>
      <point x="483" y="413" type="line"/>
      <point x="546" y="413" type="line"/>
      <point x="546" y="331" type="line"/>
      <point x="467" y="331" type="line"/>
      <point x="441" y="192" type="line"/>
      <point x="516" y="192" type="line"/>
      <point x="516" y="110" type="line"/>
      <point x="425" y="110" type="line"/>
      <point x="404" y="0" type="line"/>
      <point x="311" y="0" type="line"/>
      <point x="332" y="110" type="line"/>
      <point x="186" y="110" type="line"/>
      <point x="165" y="0" type="line"/>
      <point x="72" y="0" type="line"/>
      <point x="93" y="110" type="line"/>
      <point x="34" y="110" type="line"/>
      <point x="34" y="192" type="line"/>
      <point x="109" y="192" type="line"/>
      <point x="135" y="331" type="line"/>
      <point x="64" y="331" type="line"/>
      <point x="64" y="413" type="line"/>
      <point x="151" y="413" type="line"/>
      <point x="172" y="521" type="line"/>
      <point x="265" y="521" type="line"/>
      <point x="244" y="413" type="line"/>
      <point x="390" y="413" type="line"/>
      <point x="411" y="521" type="line"/>
    </contour>
    <contour>
      <point x="202" y="192" type="line"/>
      <point x="348" y="192" type="line"/>
      <point x="374" y="331" type="line"/>
      <point x="228" y="331" type="line"/>
    </contour>
  </outline>
</glyph>
<glyph name="ampersand" format="1">
  <advance width="713"/>
  <unicode hex="0026"/>
  <outline>
    <contour>
      <point x="433" y="376" type="line"/>
      <point x="694" y="376" type="line"/>
      <point x="694" y="282" type="line"/>
      <point x="615" y="282" type="line"/>
      <point x="593" y="228"/>
      <point x="552" y="167"/>
      <point x="499" y="115" type="curve"/>
      <point x="531" y="100"/>
      <point x="564" y="92"/>
      <point x="595" y="92" type="curve" smooth="yes"/>
      <point x="618" y="92"/>
      <point x="643" y="98"/>
      <point x="665" y="108" type="curve"/>
      <point x="688" y="17" type="line"/>
      <point x="655" y="-2"/>
      <point x="616" y="-10"/>
      <point x="578" y="-10" type="curve" smooth="yes"/>
      <point x="520" y="-10"/>
      <point x="462" y="10"/>
      <point x="406" y="43" type="curve"/>
      <point x="353" y="10"/>
      <point x="293" y="-10"/>
      <point x="232" y="-10" type="curve" smooth="yes"/>
      <point x="136" y="-10"/>
      <point x="32" y="41"/>
      <point x="32" y="153" type="curve" smooth="yes"/>
      <point x="32" y="241"/>
      <point x="96" y="284"/>
      <point x="161" y="318" type="curve"/>
      <point x="136" y="372"/>
      <point x="122" y="426"/>
      <point x="122" y="475" type="curve" smooth="yes"/>
      <point x="122" y="572"/>
      <point x="180" y="660"/>
      <point x="312" y="660" type="curve" smooth="yes"/>
      <point x="415" y="660"/>
      <point x="486" y="605"/>
      <point x="486" y="516" type="curve" smooth="yes"/>
      <point x="486" y="423"/>
      <point x="405" y="377"/>
      <point x="284" y="317" type="curve"/>
      <point x="321" y="254"/>
      <point x="375" y="195"/>
      <point x="433" y="154" type="curve"/>
      <point x="463" y="186"/>
      <point x="486" y="229"/>
      <point x="499" y="282" type="curve"/>
      <point x="433" y="282" type="line"/>
    </contour>
    <contour>
      <point x="376" y="511" type="curve" smooth="yes"/>
      <point x="376" y="538"/>
      <point x="363" y="577"/>
      <point x="309" y="577" type="curve" smooth="yes"/>
      <point x="247" y="577"/>
      <point x="230" y="524"/>
      <point x="230" y="484" type="curve" smooth="yes"/>
      <point x="230" y="447"/>
      <point x="240" y="408"/>
      <point x="257" y="369" type="curve"/>
      <point x="334" y="413"/>
      <point x="376" y="457"/>
    </contour>
    <contour>
      <point x="189" y="266" type="curve"/>
      <point x="156" y="242"/>
      <point x="139" y="211"/>
      <point x="139" y="173" type="curve" smooth="yes"/>
      <point x="139" y="105"/>
      <point x="194" y="81"/>
      <point x="262" y="81" type="curve" smooth="yes"/>
      <point x="287" y="81"/>
      <point x="312" y="84"/>
      <point x="336" y="92" type="curve"/>
      <point x="278" y="141"/>
      <point x="227" y="202"/>
    </contour>
  </outline>
</glyph>
<glyph name="plus" format="1">
  <advance width="408"/>
  <unicode hex="002B"/>
  <outline>
    <contour>
      <point x="31" y="244" type="line"/>
      <point x="170" y="244" type="line"/>
      <point x="170" y="108" type="line"/>
      <point x="244" y="108" type="line"/>
      <point x="244" y="244" type="line"/>
      <point x="378" y="244" type="line"/>
      <point x="378" y="318" type="line"/>
      <point x="244" y="318" type="line"/>
      <point x="244" y="455" type="line"/>
      <point x="170" y="455" type="line"/>
      <point x="170" y="318" type="line"/>
      <point x="31" y="318" type="line"/>
    </contour>
  </outline>
</glyph>
<glyph name="hyphen" format="1">
  <advance width="331"/>
  <unicode hex="002D"/>
  <outline>
    <contour>
      <point x="48" y="278" type="line"/>
      <point x="284" y="278" type="line"/>
      <point x="284" y="188" type="line"/>
      <point x="48" y="188" type="line"/>
    </contour>
  </outline>
</glyph>
<glyph name="period" format="1">
  <advance width="222"/>
  <unicode hex="002E"/>
  <outline>
    <contour>
      <point x="44" y="0" type="line"/>
      <point x="176" y="0" type="line"/>
      <point x="176" y="142" type="line"/>
      <point x="44" y="142" type="line"/>
    </contour>
  </outline>
</glyph>
<glyph name="slash" format="1">
  <advance width="362"/>
  <unicode hex="002F"/>
  <outline>
    <contour>
      <point x="344" y="688" type="line"/>
      <point x="141" y="0" type="line"/>
      <point x="36" y="0" type="line"/>
      <point x="239" y="688" type="line"/>
    </contour>
  </outline>
</glyph>
<glyph name="three" format="1">
  <advance width="516"/>
  <unicode hex="0033"/>
  <outline>
    <contour>
      <point x="69" y="487" type="curve"/>
      <point x="50" y="350" type="line"/>
      <point x="136" y="341" type="line"/>
      <point x="152" y="418" type="line"/>
      <point x="176" y="430"/>
      <point x="216" y="436"/>
      <point x="241" y="436" type="curve" smooth="yes"/>
      <point x="304" y="436"/>
      <point x="338" y="404"/>
      <point x="338" y="353" type="curve" smooth="yes"/>
      <point x="338" y="313"/>
      <point x="317" y="249"/>
      <point x="196" y="246" type="curve"/>
      <point x="196" y="172" type="line"/>
      <point x="309" y="168"/>
      <point x="362" y="136"/>
      <point x="362" y="65" type="curve" smooth="yes"/>
      <point x="362" y="9"/>
      <point x="333" y="-46"/>
      <point x="245" y="-46" type="curve" smooth="yes"/>
      <point x="164" y="-46"/>
      <point x="132" y="3"/>
      <point x="125" y="52" type="curve"/>
      <point x="36" y="24" type="line"/>
      <point x="43" y="-75"/>
      <point x="110" y="-141"/>
      <point x="246" y="-141" type="curve" smooth="yes"/>
      <point x="380" y="-141"/>
      <point x="482" y="-74"/>
      <point x="482" y="53" type="curve" smooth="yes"/>
      <point x="482" y="131"/>
      <point x="443" y="195"/>
      <point x="340" y="215" type="curve"/>
      <point x="340" y="219" type="line"/>
      <point x="426" y="251"/>
      <point x="457" y="306"/>
      <point x="457" y="371" type="curve" smooth="yes"/>
      <point x="457" y="478"/>
      <point x="372" y="531"/>
      <point x="258" y="531" type="curve" smooth="yes"/>
      <point x="205" y="531"/>
      <point x="131" y="516"/>
    </contour>
  </outline>
</glyph>
<glyph name="four" format="1">
  <advance width="558"/>
  <unicode hex="0034"/>
  <outline>
    <contour>
      <point x="435" y="-130" type="line"/>
      <point x="435" y="31" type="line"/>
      <point x="526" y="31" type="line"/>
      <point x="536" y="123" type="line"/>
      <point x="435" y="123" type="line"/>
      <point x="435" y="521" type="line"/>
      <point x="228" y="521" type="line"/>
      <point x="16" y="123" type="line"/>
      <point x="28" y="31" type="line"/>
      <point x="324" y="31" type="line"/>
      <point x="324" y="-130" type="line"/>
    </contour>
    <contour>
      <point x="324" y="123" type="line"/>
      <point x="123" y="123" type="line"/>
      <point x="282" y="426" type="line"/>
      <point x="324" y="426" type="line"/>
    </contour>
  </outline>
</glyph>
<glyph name="seven" format="1">
  <advance width="486"/>
  <unicode hex="0037"/>
  <outline>
    <contour>
      <point x="477" y="466" type="line"/>
      <point x="463" y="521" type="line"/>
      <point x="28" y="521" type="line"/>
      <point x="28" y="317" type="line"/>
      <point x="125" y="317" type="line"/>
      <point x="125" y="427" type="line"/>
      <point x="357" y="427" type="line"/>
      <point x="131" y="-130" type="line"/>
      <point x="240" y="-130" type="line"/>
    </contour>
  </outline>
</glyph>
<glyph name="nine" format="1">
  <advance width="534"/>
  <unicode hex="0039"/>
  <outline>
    <contour>
      <point x="37" y="309" type="curve" smooth="yes"/>
      <point x="37" y="208"/>
      <point x="86" y="108"/>
      <point x="221" y="108" type="curve" smooth="yes"/>
      <point x="309" y="108"/>
      <point x="356" y="151"/>
      <point x="378" y="198" type="curve"/>
      <point x="378" y="192"/>
      <point x="378" y="180"/>
      <point x="377" y="176" type="curve" smooth="yes"/>
      <point x="372" y="25"/>
      <point x="341" y="-44"/>
      <point x="245" y="-44" type="curve" smooth="yes"/>
      <point x="191" y="-44"/>
      <point x="143" y="-21"/>
      <point x="115" y="15" type="curve"/>
      <point x="51" y="-50" type="line"/>
      <point x="98" y="-114"/>
      <point x="164" y="-139"/>
      <point x="242" y="-139" type="curve" smooth="yes"/>
      <point x="431" y="-139"/>
      <point x="496" y="22"/>
      <point x="496" y="212" type="curve" smooth="yes"/>
      <point x="496" y="397"/>
      <point x="433" y="531"/>
      <point x="261" y="531" type="curve" smooth="yes"/>
      <point x="116" y="531"/>
      <point x="37" y="436"/>
    </contour>
    <contour>
      <point x="151" y="314" type="curve" smooth="yes"/>
      <point x="151" y="388"/>
      <point x="182" y="433"/>
      <point x="259" y="433" type="curve" smooth="yes"/>
      <point x="337" y="433"/>
      <point x="365" y="388"/>
      <point x="374" y="308" type="curve"/>
      <point x="370" y="252"/>
      <point x="336" y="199"/>
      <point x="255" y="199" type="curve" smooth="yes"/>
      <point x="179" y="199"/>
      <point x="151" y="242"/>
    </contour>
  </outline>
</glyph>
<glyph name="equal" format="1">
  <advance width="558"/>
  <unicode hex="003D"/>
  <outline>
    <contour>
      <point x="50" y="354" type="line"/>
      <point x="507" y="354" type="line"/>
      <point x="507" y="428" type="line"/>
      <point x="50" y="428" type="line"/>
    </contour>
    <contour>
      <point x="50" y="132" type="line"/>
      <point x="507" y="132" type="line"/>
      <point x="507" y="207" type="line"/>
      <point x="50" y="207" type="line"/>
    </contour>
  </outline>
</glyph>
<glyph name="question" format="1">
  <advance width="468"/>
  <unicode hex="003F"/>
  <outline>
    <contour>
      <point x="125" y="458" type="line"/>
      <point x="139" y="538" type="line"/>
      <point x="163" y="554"/>
      <point x="200" y="562"/>
      <point x="231" y="562" type="curve" smooth="yes"/>
      <point x="287" y="562"/>
      <point x="320" y="540"/>
      <point x="320" y="500" type="curve" smooth="yes"/>
      <point x="320" y="403"/>
      <point x="128" y="410"/>
      <point x="128" y="285" type="curve" smooth="yes"/>
      <point x="128" y="219"/>
      <point x="181" y="185"/>
      <point x="289" y="196" type="curve"/>
      <point x="289" y="264" type="line"/>
      <point x="259" y="264"/>
      <point x="244" y="276"/>
      <point x="244" y="297" type="curve" smooth="yes"/>
      <point x="244" y="368"/>
      <point x="441" y="381"/>
      <point x="441" y="518" type="curve" smooth="yes"/>
      <point x="441" y="606"/>
      <point x="356" y="659"/>
      <point x="244" y="659" type="curve" smooth="yes"/>
      <point x="188" y="659"/>
      <point x="118" y="642"/>
      <point x="55" y="607" type="curve"/>
      <point x="39" y="466" type="line"/>
    </contour>
    <contour>
      <point x="157" y="0" type="line"/>
      <point x="285" y="0" type="line"/>
      <point x="285" y="127" type="line"/>
      <point x="157" y="127" type="line"/>
    </contour>
  </outline>
</glyph>
<glyph name="B" format="1">
  <advance width="615"/>
  <unicode hex="0042"/>
  <outline>
    <contour>
      <point x="585" y="190" type="curve" smooth="yes"/>
      <point x="585" y="275"/>
      <point x="538" y="341"/>
      <point x="445" y="355" type="curve"/>
      <point x="445" y="359" type="line"/>
      <point x="517" y="372"/>
      <point x="561" y="428"/>
      <point x="561" y="496" type="curve" smooth="yes"/>
      <point x="561" y="589"/>
      <point x="487" y="650"/>
      <point x="364" y="650" type="curve" smooth="yes"/>
      <point x="40" y="650" type="line"/>
      <point x="40" y="555" type="line"/>
      <point x="115" y="555" type="line"/>
      <point x="115" y="95" type="line"/>
      <point x="40" y="95" type="line"/>
      <point x="40" y="0" type="line"/>
      <point x="368" y="0" type="line" smooth="yes"/>
      <point x="515" y="0"/>
      <point x="585" y="86"/>
    </contour>
    <contour>
      <point x="466" y="194" type="curve" smooth="yes"/>
      <point x="466" y="126"/>
      <point x="422" y="95"/>
      <point x="341" y="95" type="curve" smooth="yes"/>
      <point x="226" y="95" type="line"/>
      <point x="226" y="290" type="line"/>
      <point x="356" y="290" type="line" smooth="yes"/>
      <point x="427" y="290"/>
      <point x="466" y="258"/>
    </contour>
    <contour>
      <point x="442" y="468" type="curve" smooth="yes"/>
      <point x="442" y="414"/>
      <point x="406" y="377"/>
      <point x="330" y="377" type="curve" smooth="yes"/>
      <point x="226" y="377" type="line"/>
      <point x="226" y="555" type="line"/>
      <point x="337" y="555" type="line" smooth="yes"/>
      <point x="398" y="555"/>
      <point x="442" y="536"/>
    </contour>
  </outline>
</glyph>
<glyph name="D" format="1">
  <advance width="701"/>
  <unicode hex="0044"/>
  <outline>
    <contour>
      <point x="670" y="327" type="curve" smooth="yes"/>
      <point x="670" y="518"/>
      <point x="554" y="650"/>
      <point x="336" y="650" type="curve" smooth="yes"/>
      <point x="40" y="650" type="line"/>
      <point x="40" y="555" type="line"/>
      <point x="115" y="555" type="line"/>
      <point x="115" y="95" type="line"/>
      <point x="40" y="95" type="line"/>
      <point x="40" y="0" type="line"/>
      <point x="342" y="0" type="line" smooth="yes"/>
      <point x="547" y="0"/>
      <point x="670" y="132"/>
    </contour>
    <contour>
      <point x="551" y="326" type="curve" smooth="yes"/>
      <point x="551" y="172"/>
      <point x="473" y="95"/>
      <point x="333" y="95" type="curve" smooth="yes"/>
      <point x="226" y="95" type="line"/>
      <point x="226" y="555" type="line"/>
      <point x="333" y="555" type="line" smooth="yes"/>
      <point x="475" y="555"/>
      <point x="551" y="474"/>
    </contour>
  </outline>
</glyph>
<glyph name="H" format="1">
  <advance width="759"/>
  <unicode hex="0048"/>
  <outline>
    <contour>
      <point x="718" y="0" type="line"/>
      <point x="718" y="95" type="line"/>
      <point x="644" y="95" type="line"/>
      <point x="644" y="555" type="line"/>
      <point x="718" y="555" type="line"/>
      <point x="718" y="650" type="line"/>
      <point x="458" y="650" type="line"/>
      <point x="458" y="555" type="line"/>
      <point x="533" y="555" type="line"/>
      <point x="533" y="377" type="line"/>
      <point x="226" y="377" type="line"/>
      <point x="226" y="555" type="line"/>
      <point x="300" y="555" type="line"/>
      <point x="300" y="650" type="line"/>
      <point x="40" y="650" type="line"/>
      <point x="40" y="555" type="line"/>
      <point x="115" y="555" type="line"/>
      <point x="115" y="95" type="line"/>
      <point x="40" y="95" type="line"/>
      <point x="40" y="0" type="line"/>
      <point x="300" y="0" type="line"/>
      <point x="300" y="95" type="line"/>
      <point x="226" y="95" type="line"/>
      <point x="226" y="283" type="line"/>
      <point x="533" y="283" type="line"/>
      <point x="533" y="95" type="line"/>
      <point x="458" y="95" type="line"/>
      <point x="458" y="0" type="line"/>
    </contour>
  </outline>
</glyph>
<glyph name="N" format="1">
  <advance width="752"/>
  <unicode hex="004E"/>
  <outline>
    <contour>
      <point x="722" y="555" type="line"/>
      <point x="722" y="650" type="line"/>
      <point x="448" y="650" type="line"/>
      <point x="448" y="555" type="line"/>
      <point x="543" y="555" type="line"/>
      <point x="543" y="220" type="line"/>
      <point x="539" y="220" type="line"/>
      <point x="196" y="650" type="line"/>
      <point x="33" y="650" type="line"/>
      <point x="33" y="555" type="line"/>
      <point x="115" y="555" type="line"/>
      <point x="115" y="95" type="line"/>
      <point x="43" y="95" type="line"/>
      <point x="43" y="0" type="line"/>
      <point x="314" y="0" type="line"/>
      <point x="314" y="95" type="line"/>
      <point x="219" y="95" type="line"/>
      <point x="219" y="450" type="line"/>
      <point x="223" y="450" type="line"/>
      <point x="583" y="-1" type="line"/>
      <point x="647" y="0" type="line"/>
      <point x="647" y="555" type="line"/>
    </contour>
    <contour>
      <point x="359" y="727" type="move" name="top"/>
    </contour>
  </outline>
</glyph>
<glyph name="W" format="1">
  <advance width="968"/>
  <unicode hex="0057"/>
  <outline>
    <contour>
      <point x="959" y="555" type="line"/>
      <point x="959" y="650" type="line"/>
      <point x="715" y="650" type="line"/>
      <point x="715" y="555" type="line"/>
      <point x="795" y="555" type="line"/>
      <point x="693" y="178" type="line"/>
      <point x="688" y="178" type="line"/>
      <point x="559" y="555" type="line"/>
      <point x="612" y="555" type="line"/>
      <point x="612" y="650" type="line"/>
      <point x="366" y="650" type="line"/>
      <point x="366" y="555" type="line"/>
      <point x="423" y="555" type="line"/>
      <point x="294" y="183" type="line"/>
      <point x="289" y="183" type="line"/>
      <point x="177" y="555" type="line"/>
      <point x="249" y="555" type="line"/>
      <point x="249" y="650" type="line"/>
      <point x="2" y="650" type="line"/>
      <point x="2" y="555" type="line"/>
      <point x="58" y="555" type="line"/>
      <point x="246" y="0" type="line"/>
      <point x="329" y="0" type="line"/>
      <point x="483" y="458" type="line"/>
      <point x="488" y="458" type="line"/>
      <point x="647" y="0" type="line"/>
      <point x="729" y="0" type="line"/>
      <point x="906" y="555" type="line"/>
    </contour>
  </outline>
</glyph>
<glyph name="bracketleft" format="1">
  <advance width="292"/>
  <unicode hex="005B"/>
  <outline>
    <contour>
      <point x="74" y="-235" type="line"/>
      <point x="279" y="-235" type="line"/>
      <point x="279" y="-161" type="line"/>
      <point x="165" y="-161" type="line"/>
      <point x="165" y="698" type="line"/>
      <point x="279" y="698" type="line"/>
      <point x="279" y="772" type="line"/>
      <point x="74" y="772" type="line"/>
    </contour>
  </outline>
</glyph>
<glyph name="backslash" format="1">
  <advance width="408"/>
  <unicode hex="005C"/>
  <outline>
    <contour>
      <point x="72" y="688" type="line"/>
      <point x="275" y="0" type="line"/>
      <point x="380" y="0" type="line"/>
      <point x="177" y="688" type="line"/>
    </contour>
  </outline>
</glyph>
<glyph name="asciicircum" format="1">
  <advance width="463"/>
  <unicode hex="005E"/>
  <outline>
    <contour>
      <point x="194" y="652" type="line"/>
      <point x="33" y="369" type="line"/>
      <point x="132" y="369" type="line"/>
      <point x="228" y="548" type="line"/>
      <point x="332" y="369" type="line"/>
      <point x="430" y="369" type="line"/>
      <point x="261" y="652" type="line"/>
    </contour>
  </outline>
</glyph>
<glyph name="underscore" format="1">
  <advance width="514"/>
  <unicode hex="005F"/>
  <outline>
    <contour>
      <point x="41" y="-70" type="line"/>
      <point x="473" y="-70" type="line"/>
      <point x="473" y="-142" type="line"/>
      <point x="41" y="-142" type="line"/>
    </contour>
  </outline>
</glyph>
<glyph name="h" format="1">
  <advance width="573"/>
  <unicode hex="0068"/>
  <outline>
    <contour>
      <point x="562" y="0" type="line"/>
      <point x="562" y="82" type="line"/>
      <point x="495" y="82" type="line"/>
      <point x="495" y="297" type="line" smooth="yes"/>
      <point x="495" y="408"/>
      <point x="425" y="458"/>
      <point x="339" y="458" type="curve" smooth="yes"/>
      <point x="271" y="458"/>
      <point x="219" y="427"/>
      <point x="190" y="375" type="curve"/>
      <point x="190" y="688" type="line"/>
      <point x="16" y="688" type="line"/>
      <point x="16" y="606" type="line"/>
      <point x="83" y="606" type="line"/>
      <point x="83" y="82" type="line"/>
      <point x="16" y="82" type="line"/>
      <point x="16" y="0" type="line"/>
      <point x="256" y="0" type="line"/>
      <point x="256" y="82" type="line"/>
      <point x="190" y="82" type="line"/>
      <point x="190" y="265" type="line"/>
      <point x="193" y="326"/>
      <point x="233" y="375"/>
      <point x="299" y="375" type="curve" smooth="yes"/>
      <point x="354" y="375"/>
      <point x="388" y="343"/>
      <point x="388" y="258" type="curve" smooth="yes"/>
      <point x="388" y="82" type="line"/>
      <point x="321" y="82" type="line"/>
      <point x="321" y="0" type="line"/>
    </contour>
    <contour>
      <point x="291" y="566" type="move" name="top"/>
    </contour>
  </outline>
</glyph>
<glyph name="l" format="1">
  <advance width="278"/>
  <unicode hex="006C"/>
  <outline>
    <contour>
      <point x="259" y="0" type="line"/>
      <point x="259" y="82" type="line"/>
      <point x="192" y="82" type="line"/>
      <point x="192" y="688" type="line"/>
      <point x="15" y="688" type="line"/>
      <point x="15" y="606" type="line"/>
      <point x="86" y="606" type="line"/>
      <point x="86" y="82" type="line"/>
      <point x="19" y="82" type="line"/>
      <point x="19" y="0" type="line"/>
    </contour>
    <contour>
      <point x="295" y="566" type="move" name="top"/>
    </contour>
  </outline>
</glyph>
<glyph name="n" format="1">
  <advance width="586"/>
  <unicode hex="006E"/>
  <outline>
    <contour>
      <point x="575" y="0" type="line"/>
      <point x="575" y="82" type="line"/>
      <point x="508" y="82" type="line"/>
      <point x="508" y="297" type="line" smooth="yes"/>
      <point x="508" y="408"/>
      <point x="438" y="458"/>
      <point x="352" y="458" type="curve" smooth="yes"/>
      <point x="284" y="458"/>
      <point x="232" y="427"/>
      <point x="203" y="376" type="curve"/>
      <point x="203" y="449" type="line"/>
      <point x="26" y="449" type="line"/>
      <point x="26" y="366" type="line"/>
      <point x="96" y="366" type="line"/>
      <point x="96" y="82" type="line"/>
      <point x="29" y="82" type="line"/>
      <point x="29" y="0" type="line"/>
      <point x="270" y="0" type="line"/>
      <point x="270" y="82" type="line"/>
      <point x="203" y="82" type="line"/>
      <point x="203" y="261" type="line"/>
      <point x="205" y="325"/>
      <point x="246" y="375"/>
      <point x="314" y="375" type="curve" smooth="yes"/>
      <point x="369" y="375"/>
      <point x="401" y="343"/>
      <point x="401" y="258" type="curve" smooth="yes"/>
      <point x="401" y="82" type="line"/>
      <point x="335" y="82" type="line"/>
      <point x="335" y="0" type="line"/>
    </contour>
    <contour>
      <point x="304" y="566" type="move" name="top"/>
    </contour>
  </outline>
</glyph>
<glyph name="o" format="1">
  <advance width="519"/>
  <unicode hex="006F"/>
  <outline>
    <contour>
      <point x="493" y="224" type="curve" smooth="yes"/>
      <point x="493" y="351"/>
      <point x="416" y="459"/>
      <point x="260" y="459" type="curve" smooth="yes"/>
      <point x="105" y="459"/>
      <point x="26" y="351"/>
      <point x="26" y="220" type="curve" smooth="yes"/>
      <point x="26" y="79"/>
      <point x="117" y="-10"/>
      <point x="254" y="-10" type="curve" smooth="yes"/>
      <point x="395" y="-10"/>
      <point x="493" y="84"/>
    </contour>
    <contour>
      <point x="382" y="227" type="curve" smooth="yes"/>
      <point x="382" y="136"/>
      <point x="335" y="74"/>
      <point x="258" y="74" type="curve" smooth="yes"/>
      <point x="178" y="74"/>
      <point x="137" y="141"/>
      <point x="137" y="226" type="curve" smooth="yes"/>
      <point x="137" y="316"/>
      <point x="182" y="375"/>
      <point x="258" y="375" type="curve" smooth="yes"/>
      <point x="331" y="375"/>
      <point x="382" y="323"/>
    </contour>
  </outline>
</glyph>
<glyph name="p" format="1">
  <advance width="563"/>
  <unicode hex="0070"/>
  <outline>
    <contour>
      <point x="535" y="236" type="curve" smooth="yes"/>
      <point x="535" y="376"/>
      <point x="456" y="458"/>
      <point x="342" y="458" type="curve" smooth="yes"/>
      <point x="260" y="458"/>
      <point x="213" y="413"/>
      <point x="188" y="360" type="curve"/>
      <point x="188" y="449" type="line"/>
      <point x="11" y="449" type="line"/>
      <point x="11" y="367" type="line"/>
      <point x="81" y="367" type="line"/>
      <point x="81" y="-129" type="line"/>
      <point x="14" y="-129" type="line"/>
      <point x="14" y="-213" type="line"/>
      <point x="277" y="-213" type="line"/>
      <point x="277" y="-129" type="line"/>
      <point x="188" y="-129" type="line"/>
      <point x="188" y="60" type="line"/>
      <point x="216" y="15"/>
      <point x="265" y="-10"/>
      <point x="329" y="-10" type="curve" smooth="yes"/>
      <point x="469" y="-10"/>
      <point x="535" y="108"/>
    </contour>
    <contour>
      <point x="424" y="225" type="curve" smooth="yes"/>
      <point x="424" y="133"/>
      <point x="380" y="76"/>
      <point x="304" y="76" type="curve" smooth="yes"/>
      <point x="236" y="76"/>
      <point x="188" y="126"/>
      <point x="188" y="200" type="curve" smooth="yes"/>
      <point x="189" y="235" type="line"/>
      <point x="192" y="308"/>
      <point x="235" y="372"/>
      <point x="307" y="372" type="curve" smooth="yes"/>
      <point x="375" y="372"/>
      <point x="424" y="321"/>
    </contour>
    <contour>
      <point x="320" y="566" type="move" name="top"/>
    </contour>
  </outline>
</glyph>
<glyph name="q" format="1">
  <advance width="545"/>
  <unicode hex="0071"/>
  <outline>
    <contour>
      <point x="544" y="-213" type="line"/>
      <point x="544" y="-129" type="line"/>
      <point x="481" y="-129" type="line"/>
      <point x="481" y="297" type="line" smooth="yes"/>
      <point x="481" y="348"/>
      <point x="488" y="398"/>
      <point x="498" y="449" type="curve"/>
      <point x="394" y="449" type="line"/>
      <point x="388" y="423"/>
      <point x="385" y="398"/>
      <point x="382" y="373" type="curve"/>
      <point x="355" y="426"/>
      <point x="303" y="458"/>
      <point x="231" y="458" type="curve" smooth="yes"/>
      <point x="93" y="458"/>
      <point x="27" y="340"/>
      <point x="27" y="212" type="curve" smooth="yes"/>
      <point x="27" y="72"/>
      <point x="107" y="-10"/>
      <point x="220" y="-10" type="curve" smooth="yes"/>
      <point x="302" y="-10"/>
      <point x="348" y="34"/>
      <point x="374" y="87" type="curve"/>
      <point x="374" y="-129" type="line"/>
      <point x="285" y="-129" type="line"/>
      <point x="285" y="-213" type="line"/>
    </contour>
    <contour>
      <point x="374" y="216" type="line"/>
      <point x="374" y="149"/>
      <point x="327" y="76"/>
      <point x="251" y="76" type="curve" smooth="yes"/>
      <point x="187" y="76"/>
      <point x="139" y="126"/>
      <point x="139" y="222" type="curve" smooth="yes"/>
      <point x="139" y="314"/>
      <point x="184" y="372"/>
      <point x="258" y="372" type="curve" smooth="yes"/>
      <point x="324" y="372"/>
      <point x="374" y="324"/>
      <point x="374" y="249" type="curve" smooth="yes"/>
    </contour>
  </outline>
</glyph>
<glyph name="braceleft" format="1">
  <advance width="292"/>
  <unicode hex="007B"/>
  <outline>
    <contour>
      <point x="116" y="267" type="curve"/>
      <point x="199" y="277"/>
      <point x="228" y="319"/>
      <point x="228" y="356" type="curve" smooth="yes"/>
      <point x="228" y="421"/>
      <point x="142" y="546"/>
      <point x="142" y="634" type="curve" smooth="yes"/>
      <point x="142" y="678"/>
      <point x="163" y="698"/>
      <point x="205" y="698" type="curve" smooth="yes"/>
      <point x="269" y="698" type="line"/>
      <point x="269" y="772" type="line"/>
      <point x="205" y="772" type="line" smooth="yes"/>
      <point x="97" y="772"/>
      <point x="53" y="714"/>
      <point x="53" y="637" type="curve" smooth="yes"/>
      <point x="53" y="532"/>
      <point x="138" y="407"/>
      <point x="138" y="350" type="curve" smooth="yes"/>
      <point x="138" y="301"/>
      <point x="70" y="292"/>
      <point x="40" y="292" type="curve" smooth="yes"/>
      <point x="21" y="292" type="line"/>
      <point x="21" y="242" type="line"/>
      <point x="40" y="242" type="line" smooth="yes"/>
      <point x="71" y="242"/>
      <point x="138" y="233"/>
      <point x="138" y="183" type="curve" smooth="yes"/>
      <point x="138" y="126"/>
      <point x="53" y="4"/>
      <point x="53" y="-99" type="curve" smooth="yes"/>
      <point x="53" y="-170"/>
      <point x="93" y="-234"/>
      <point x="205" y="-234" type="curve" smooth="yes"/>
      <point x="269" y="-234" type="line"/>
      <point x="269" y="-161" type="line"/>
      <point x="205" y="-161" type="line" smooth="yes"/>
      <point x="163" y="-161"/>
      <point x="142" y="-141"/>
      <point x="142" y="-97" type="curve" smooth="yes"/>
      <point x="142" y="-9"/>
      <point x="228" y="112"/>
      <point x="228" y="177" type="curve" smooth="yes"/>
      <point x="228" y="215"/>
      <point x="198" y="256"/>
    </contour>
  </outline>
</glyph>
<glyph name="bar" format="1">
  <advance width="240"/>
  <unicode hex="007C"/>
  <outline>
    <contour>
      <point x="166" y="730" type="line"/>
      <point x="166" y="-80" type="line"/>
      <point x="74" y="-80" type="line"/>
      <point x="74" y="730" type="line"/>
    </contour>
  </outline>
</glyph>
<glyph name="sterling" format="1">
  <advance width="500"/>
  <unicode hex="00A3"/>
  <outline>
    <contour>
      <point x="464" y="83" type="curve"/>
      <point x="416" y="133" type="line"/>
      <point x="389" y="102"/>
      <point x="357" y="82"/>
      <point x="297" y="82" type="curve" smooth="yes"/>
      <point x="148" y="82" type="line"/>
      <point x="201" y="114"/>
      <point x="207" y="162"/>
      <point x="208" y="221" type="curve"/>
      <point x="363" y="221" type="line"/>
      <point x="363" y="285" type="line"/>
      <point x="208" y="285" type="line"/>
      <point x="208" y="335" type="line" smooth="yes"/>
      <point x="208" y="417"/>
      <point x="237" y="445"/>
      <point x="287" y="445" type="curve" smooth="yes"/>
      <point x="303" y="445"/>
      <point x="321" y="443"/>
      <point x="341" y="432" type="curve"/>
      <point x="356" y="358" type="line"/>
      <point x="440" y="366" type="line"/>
      <point x="425" y="482" type="line"/>
      <point x="389" y="515"/>
      <point x="335" y="528"/>
      <point x="280" y="528" type="curve" smooth="yes"/>
      <point x="182" y="528"/>
      <point x="101" y="467"/>
      <point x="101" y="334" type="curve" smooth="yes"/>
      <point x="101" y="285" type="line"/>
      <point x="39" y="285" type="line"/>
      <point x="39" y="221" type="line"/>
      <point x="101" y="221" type="line"/>
      <point x="101" y="151"/>
      <point x="94" y="108"/>
      <point x="42" y="80" type="curve"/>
      <point x="42" y="0" type="line"/>
      <point x="319" y="0" type="line" smooth="yes"/>
      <point x="401" y="0"/>
      <point x="452" y="55"/>
    </contour>
  </outline>
</glyph>
<glyph name="yen" format="1">
  <advance width="592"/>
  <unicode hex="00A5"/>
  <outline>
    <contour>
      <point x="254" y="439" type="line"/>
      <point x="201" y="439" type="line"/>
      <point x="302" y="288" type="line"/>
      <point x="308" y="288" type="line"/>
      <point x="406" y="439" type="line"/>
      <point x="348" y="439" type="line"/>
      <point x="348" y="521" type="line"/>
      <point x="560" y="521" type="line"/>
      <point x="560" y="439" type="line"/>
      <point x="515" y="439" type="line"/>
      <point x="400" y="272" type="line"/>
      <point x="484" y="272" type="line"/>
      <point x="484" y="214" type="line"/>
      <point x="360" y="214" type="line"/>
      <point x="353" y="203" type="line"/>
      <point x="353" y="176" type="line"/>
      <point x="484" y="176" type="line"/>
      <point x="484" y="118" type="line"/>
      <point x="353" y="118" type="line"/>
      <point x="353" y="82" type="line"/>
      <point x="443" y="82" type="line"/>
      <point x="443" y="0" type="line"/>
      <point x="161" y="0" type="line"/>
      <point x="161" y="82" type="line"/>
      <point x="246" y="82" type="line"/>
      <point x="246" y="118" type="line"/>
      <point x="114" y="118" type="line"/>
      <point x="114" y="176" type="line"/>
      <point x="246" y="176" type="line"/>
      <point x="246" y="203" type="line"/>
      <point x="238" y="214" type="line"/>
      <point x="114" y="214" type="line"/>
      <point x="114" y="272" type="line"/>
      <point x="197" y="272" type="line"/>
      <point x="78" y="439" type="line"/>
      <point x="31" y="439" type="line"/>
      <point x="31" y="521" type="line"/>
      <point x="254" y="521" type="line"/>
    </contour>
  </outline>
</glyph>
<glyph name="dieresis" format="1">
  <advance width="406"/>
  <unicode hex="00A8"/>
  <outline>
    <contour>
      <point x="59" y="540" type="line"/>
      <point x="170" y="540" type="line"/>
      <point x="170" y="655" type="line"/>
      <point x="59" y="655" type="line"/>
    </contour>
    <contour>
      <point x="239" y="540" type="line"/>
      <point x="349" y="540" type="line"/>
      <point x="349" y="655" type="line"/>
      <point x="239" y="655" type="line"/>
    </contour>
  </outline>
</glyph>
<glyph name="copyright" format="1">
  <advance width="607"/>
  <unicode hex="00A9"/>
  <outline>
    <contour>
      <point x="571" y="261" type="curve" smooth="yes"/>
      <point x="571" y="409"/>
      <point x="454" y="529"/>
      <point x="304" y="529" type="curve" smooth="yes"/>
      <point x="153" y="529"/>
      <point x="35" y="409"/>
      <point x="35" y="260" type="curve" smooth="yes"/>
      <point x="35" y="110"/>
      <point x="155" y="-7"/>
      <point x="303" y="-7" type="curve" smooth="yes"/>
      <point x="451" y="-7"/>
      <point x="571" y="111"/>
    </contour>
    <contour>
      <point x="512" y="261" type="curve" smooth="yes"/>
      <point x="512" y="144"/>
      <point x="425" y="49"/>
      <point x="303" y="49" type="curve" smooth="yes"/>
      <point x="178" y="49"/>
      <point x="95" y="143"/>
      <point x="95" y="260" type="curve" smooth="yes"/>
      <point x="95" y="376"/>
      <point x="176" y="472"/>
      <point x="304" y="472" type="curve" smooth="yes"/>
      <point x="432" y="472"/>
      <point x="512" y="376"/>
    </contour>
    <contour>
      <point x="416" y="143" type="curve"/>
      <point x="424" y="213" type="line"/>
      <point x="378" y="218" type="line"/>
      <point x="370" y="170" type="line"/>
      <point x="354" y="160"/>
      <point x="332" y="156"/>
      <point x="308" y="156" type="curve" smooth="yes"/>
      <point x="252" y="156"/>
      <point x="215" y="191"/>
      <point x="215" y="263" type="curve" smooth="yes"/>
      <point x="215" y="332"/>
      <point x="249" y="371"/>
      <point x="305" y="371" type="curve" smooth="yes"/>
      <point x="333" y="371"/>
      <point x="352" y="367"/>
      <point x="371" y="353" type="curve"/>
      <point x="379" y="309" type="line"/>
      <point x="425" y="314" type="line"/>
      <point x="416" y="384" type="line"/>
      <point x="393" y="404"/>
      <point x="355" y="419"/>
      <point x="301" y="419" type="curve" smooth="yes"/>
      <point x="210" y="419"/>
      <point x="152" y="350"/>
      <point x="152" y="260" type="curve" smooth="yes"/>
      <point x="152" y="160"/>
      <point x="218" y="108"/>
      <point x="301" y="108" type="curve" smooth="yes"/>
      <point x="347" y="108"/>
      <point x="393" y="121"/>
    </contour>
  </outline>
</glyph>
<glyph name="guillemotleft" format="1">
  <advance width="464"/>
  <unicode hex="00AB"/>
  <outline>
    <contour>
      <point x="258" y="25" type="line"/>
      <point x="137" y="271" type="line"/>
      <point x="258" y="511" type="line"/>
      <point x="169" y="511" type="line"/>
      <point x="31" y="271" type="line"/>
      <point x="169" y="25" type="line"/>
    </contour>
    <contour>
      <point x="426" y="25" type="line"/>
      <point x="305" y="271" type="line"/>
      <point x="426" y="511" type="line"/>
      <point x="337" y="511" type="line"/>
      <point x="199" y="271" type="line"/>
      <point x="337" y="25" type="line"/>
    </contour>
  </outline>
</glyph>
<glyph name="logicalnot" format="1">
  <advance width="583"/>
  <unicode hex="00AC"/>
  <outline>
    <contour>
      <point x="456" y="84" type="line"/>
      <point x="530" y="84" type="line"/>
      <point x="530" y="319" type="line"/>
      <point x="49" y="319" type="line"/>
      <point x="49" y="244" type="line"/>
      <point x="456" y="244" type="line"/>
    </contour>
  </outline>
</glyph>
<glyph name="degree" format="1">
  <advance width="376"/>
  <unicode hex="00B0"/>
  <outline>
    <contour>
      <point x="187" y="342" type="curve" smooth="yes"/>
      <point x="288" y="342"/>
      <point x="347" y="412"/>
      <point x="347" y="501" type="curve" smooth="yes"/>
      <point x="347" y="589"/>
      <point x="293" y="660"/>
      <point x="189" y="660" type="curve" smooth="yes"/>
      <point x="92" y="660"/>
      <point x="28" y="590"/>
      <point x="28" y="500" type="curve" smooth="yes"/>
      <point x="28" y="410"/>
      <point x="87" y="342"/>
    </contour>
    <contour>
      <point x="188" y="418" type="curve"/>
      <point x="148" y="418"/>
      <point x="116" y="443"/>
      <point x="116" y="500" type="curve" smooth="yes"/>
      <point x="116" y="559"/>
      <point x="148" y="584"/>
      <point x="189" y="584" type="curve" smooth="yes"/>
      <point x="229" y="584"/>
      <point x="260" y="559"/>
      <point x="260" y="501" type="curve" smooth="yes"/>
      <point x="260" y="443"/>
      <point x="228" y="418"/>
    </contour>
  </outline>
</glyph>
<glyph name="threesuperior" format="1">
  <advance width="348"/>
  <unicode hex="00B3"/>
  <outline>
    <contour>
      <point x="106" y="664" type="line"/>
      <point x="116" y="708" type="line"/>
      <point x="132" y="717"/>
      <point x="147" y="720"/>
      <point x="164" y="720" type="curve"/>
      <point x="196" y="720"/>
      <point x="213" y="706"/>
      <point x="213" y="679" type="curve" smooth="yes"/>
      <point x="213" y="641"/>
      <point x="181" y="631"/>
      <point x="138" y="628" type="curve"/>
      <point x="138" y="580" type="line"/>
      <point x="194" y="578"/>
      <point x="226" y="563"/>
      <point x="226" y="528" type="curve" smooth="yes"/>
      <point x="226" y="498"/>
      <point x="204" y="474"/>
      <point x="163" y="474" type="curve" smooth="yes"/>
      <point x="122" y="474"/>
      <point x="103" y="496"/>
      <point x="94" y="526" type="curve"/>
      <point x="33" y="506" type="line"/>
      <point x="45" y="439"/>
      <point x="96" y="408"/>
      <point x="165" y="408" type="curve" smooth="yes"/>
      <point x="253" y="408"/>
      <point x="318" y="447"/>
      <point x="318" y="517" type="curve" smooth="yes"/>
      <point x="318" y="558"/>
      <point x="297" y="596"/>
      <point x="239" y="608" type="curve"/>
      <point x="239" y="610" type="line"/>
      <point x="284" y="627"/>
      <point x="304" y="658"/>
      <point x="304" y="693" type="curve" smooth="yes"/>
      <point x="304" y="745"/>
      <point x="259" y="784"/>
      <point x="180" y="784" type="curve" smooth="yes"/>
      <point x="140" y="784"/>
      <point x="86" y="774"/>
      <point x="53" y="755" type="curve"/>
      <point x="41" y="669" type="line"/>
    </contour>
  </outline>
</glyph>
<glyph name="mu" format="1">
  <advance width="584"/>
  <unicode hex="00B5"/>
  <outline>
    <contour>
      <point x="85" y="-213" type="line"/>
      <point x="85" y="366" type="line"/>
      <point x="18" y="366" type="line"/>
      <point x="18" y="449" type="line"/>
      <point x="192" y="449" type="line"/>
      <point x="192" y="191" type="line" smooth="yes"/>
      <point x="192" y="106"/>
      <point x="224" y="73"/>
      <point x="280" y="73" type="curve" smooth="yes"/>
      <point x="346" y="73"/>
      <point x="388" y="124"/>
      <point x="390" y="185" type="curve"/>
      <point x="390" y="366" type="line"/>
      <point x="310" y="366" type="line"/>
      <point x="310" y="449" type="line"/>
      <point x="497" y="449" type="line"/>
      <point x="497" y="82" type="line"/>
      <point x="568" y="82" type="line"/>
      <point x="568" y="0" type="line"/>
      <point x="390" y="0" type="line"/>
      <point x="390" y="74" type="line"/>
      <point x="361" y="22"/>
      <point x="309" y="-9"/>
      <point x="241" y="-9" type="curve" smooth="yes"/>
      <point x="224" y="-9"/>
      <point x="207" y="-7"/>
      <point x="192" y="-3" type="curve"/>
      <point x="192" y="-213" type="line"/>
    </contour>
  </outline>
</glyph>
<glyph name="periodcentered" format="1">
  <advance width="226"/>
  <unicode hex="00B7"/>
  <outline>
    <contour>
      <point x="46" y="253" type="line"/>
      <point x="178" y="253" type="line"/>
      <point x="178" y="393" type="line"/>
      <point x="46" y="393" type="line"/>
    </contour>
  </outline>
</glyph>
<glyph name="cedilla" format="1">
  <advance width="256"/>
  <unicode hex="00B8"/>
  <outline>
    <contour>
      <point x="285" y="-122" type="curve" smooth="yes"/>
      <point x="285" y="-82"/>
      <point x="261" y="-43"/>
      <point x="196" y="-43" type="curve" smooth="yes"/>
      <point x="188" y="-43" type="line"/>
      <point x="188" y="6" type="line"/>
      <point x="114" y="6" type="line"/>
      <point x="114" y="-84" type="line"/>
      <point x="148" y="-84" type="line" smooth="yes"/>
      <point x="180" y="-84"/>
      <point x="194" y="-93"/>
      <point x="194" y="-115" type="curve" smooth="yes"/>
      <point x="194" y="-135"/>
      <point x="181" y="-143"/>
      <point x="152" y="-143" type="curve" smooth="yes"/>
      <point x="118" y="-143"/>
      <point x="92" y="-131"/>
      <point x="76" y="-120" type="curve"/>
      <point x="55" y="-179" type="line"/>
      <point x="78" y="-198"/>
      <point x="119" y="-209"/>
      <point x="164" y="-209" type="curve" smooth="yes"/>
      <point x="225" y="-209"/>
      <point x="285" y="-187"/>
    </contour>
  </outline>
</glyph>
<glyph name="onesuperior" format="1">
  <advance width="274"/>
  <unicode hex="00B9"/>
  <outline>
    <contour>
      <point x="31" y="479" type="line"/>
      <point x="105" y="479" type="line"/>
      <point x="105" y="715" type="line"/>
      <point x="31" y="715" type="line"/>
      <point x="31" y="779" type="line"/>
      <point x="190" y="779" type="line"/>
      <point x="190" y="479" type="line"/>
      <point x="257" y="479" type="line"/>
      <point x="257" y="415" type="line"/>
      <point x="31" y="415" type="line"/>
    </contour>
  </outline>
</glyph>
<glyph name="guillemotright" format="1">
  <advance width="464"/>
  <unicode hex="00BB"/>
  <outline>
    <contour>
      <point x="294" y="25" type="line"/>
      <point x="432" y="271" type="line"/>
      <point x="294" y="511" type="line"/>
      <point x="205" y="511" type="line"/>
      <point x="327" y="271" type="line"/>
      <point x="205" y="25" type="line"/>
    </contour>
    <contour>
      <point x="127" y="25" type="line"/>
      <point x="265" y="271" type="line"/>
      <point x="127" y="511" type="line"/>
      <point x="37" y="511" type="line"/>
      <point x="159" y="271" type="line"/>
      <point x="37" y="25" type="line"/>
    </contour>
  </outline>
</glyph>
<glyph name="onequarter" format="1">
  <advance width="730"/>
  <unicode hex="00BC"/>
  <outline>
    <contour>
      <point x="559" y="0" type="line"/>
      <point x="644" y="0" type="line"/>
      <point x="644" y="74" type="line"/>
      <point x="697" y="74" type="line"/>
      <point x="703" y="139" type="line"/>
      <point x="644" y="139" type="line"/>
      <point x="644" y="364" type="line"/>
      <point x="495" y="364" type="line"/>
      <point x="380" y="136" type="line"/>
      <point x="389" y="74" type="line"/>
      <point x="559" y="74" type="line"/>
    </contour>
    <contour>
      <point x="583" y="650" type="line"/>
      <point x="392" y="325" type="line"/>
      <point x="211" y="0" type="line"/>
      <point x="136" y="0" type="line"/>
      <point x="334" y="337" type="line"/>
      <point x="508" y="650" type="line"/>
    </contour>
    <contour>
      <point x="39" y="350" type="line"/>
      <point x="113" y="350" type="line"/>
      <point x="113" y="586" type="line"/>
      <point x="39" y="586" type="line"/>
      <point x="39" y="650" type="line"/>
      <point x="198" y="650" type="line"/>
      <point x="198" y="350" type="line"/>
      <point x="265" y="350" type="line"/>
      <point x="265" y="286" type="line"/>
      <point x="39" y="286" type="line"/>
    </contour>
    <contour>
      <point x="539" y="300" type="line"/>
      <point x="559" y="300" type="line"/>
      <point x="559" y="139" type="line"/>
      <point x="455" y="139" type="line"/>
    </contour>
  </outline>
</glyph>
<glyph name="questiondown" format="1">
  <advance width="461"/>
  <unicode hex="00BF"/>
  <outline>
    <contour>
      <point x="340" y="-7" type="line"/>
      <point x="326" y="-87" type="line"/>
      <point x="302" y="-103"/>
      <point x="265" y="-111"/>
      <point x="234" y="-111" type="curve" smooth="yes"/>
      <point x="178" y="-111"/>
      <point x="145" y="-89"/>
      <point x="145" y="-49" type="curve" smooth="yes"/>
      <point x="145" y="48"/>
      <point x="337" y="41"/>
      <point x="337" y="166" type="curve" smooth="yes"/>
      <point x="337" y="232"/>
      <point x="284" y="266"/>
      <point x="176" y="255" type="curve"/>
      <point x="176" y="187" type="line"/>
      <point x="206" y="187"/>
      <point x="221" y="175"/>
      <point x="221" y="154" type="curve" smooth="yes"/>
      <point x="221" y="83"/>
      <point x="24" y="70"/>
      <point x="24" y="-67" type="curve" smooth="yes"/>
      <point x="24" y="-155"/>
      <point x="109" y="-208"/>
      <point x="221" y="-208" type="curve" smooth="yes"/>
      <point x="277" y="-208"/>
      <point x="347" y="-191"/>
      <point x="410" y="-156" type="curve"/>
      <point x="426" y="-15" type="line"/>
    </contour>
    <contour>
      <point x="308" y="451" type="line"/>
      <point x="180" y="451" type="line"/>
      <point x="180" y="324" type="line"/>
      <point x="308" y="324" type="line"/>
    </contour>
  </outline>
</glyph>
<glyph name="AE" format="1">
  <advance width="928"/>
  <unicode hex="00C6"/>
  <outline>
    <contour>
      <point x="870" y="0" type="line"/>
      <point x="889" y="188" type="line"/>
      <point x="795" y="196" type="line"/>
      <point x="775" y="95" type="line"/>
      <point x="563" y="95" type="line"/>
      <point x="563" y="280" type="line"/>
      <point x="849" y="280" type="line"/>
      <point x="849" y="375" type="line"/>
      <point x="563" y="375" type="line"/>
      <point x="563" y="555" type="line"/>
      <point x="767" y="555" type="line"/>
      <point x="787" y="454" type="line"/>
      <point x="882" y="463" type="line"/>
      <point x="863" y="650" type="line"/>
      <point x="207" y="650" type="line"/>
      <point x="207" y="555" type="line"/>
      <point x="295" y="555" type="line"/>
      <point x="64" y="95" type="line"/>
      <point x="0" y="95" type="line"/>
      <point x="0" y="0" type="line"/>
      <point x="246" y="0" type="line"/>
      <point x="246" y="95" type="line"/>
      <point x="177" y="95" type="line"/>
      <point x="219" y="184" type="line"/>
      <point x="452" y="184" type="line"/>
      <point x="452" y="95" type="line"/>
      <point x="378" y="95" type="line"/>
      <point x="378" y="0" type="line"/>
    </contour>
    <contour>
      <point x="452" y="265" type="line"/>
      <point x="258" y="265" type="line"/>
      <point x="397" y="555" type="line"/>
      <point x="452" y="555" type="line"/>
    </contour>
  </outline>
</glyph>
<glyph name="Ccedilla" format="1">
  <advance width="645"/>
  <unicode hex="00C7"/>
  <outline>
    <contour>
      <point x="469" y="-122" type="curve" smooth="yes"/>
      <point x="469" y="-82"/>
      <point x="445" y="-43"/>
      <point x="380" y="-43" type="curve" smooth="yes"/>
      <point x="372" y="-43" type="line"/>
      <point x="372" y="-9" type="line"/>
      <point x="458" y="-6"/>
      <point x="543" y="21"/>
      <point x="587" y="62" type="curve"/>
      <point x="601" y="204" type="line"/>
      <point x="510" y="213" type="line"/>
      <point x="494" y="116" type="line"/>
      <point x="463" y="99"/>
      <point x="415" y="88"/>
      <point x="363" y="88" type="curve" smooth="yes"/>
      <point x="235" y="88"/>
      <point x="149" y="168"/>
      <point x="149" y="323" type="curve" smooth="yes"/>
      <point x="149" y="471"/>
      <point x="229" y="562"/>
      <point x="352" y="562" type="curve" smooth="yes"/>
      <point x="408" y="562"/>
      <point x="459" y="547"/>
      <point x="496" y="523" type="curve"/>
      <point x="512" y="433" type="line"/>
      <point x="603" y="442" type="line"/>
      <point x="586" y="583" type="line"/>
      <point x="540" y="624"/>
      <point x="464" y="660"/>
      <point x="354" y="660" type="curve" smooth="yes"/>
      <point x="129" y="660"/>
      <point x="30" y="478"/>
      <point x="30" y="317" type="curve" smooth="yes"/>
      <point x="30" y="144"/>
      <point x="139" y="18"/>
      <point x="298" y="-6" type="curve"/>
      <point x="298" y="-84" type="line"/>
      <point x="332" y="-84" type="line" smooth="yes"/>
      <point x="364" y="-84"/>
      <point x="378" y="-93"/>
      <point x="378" y="-115" type="curve" smooth="yes"/>
      <point x="378" y="-135"/>
      <point x="365" y="-143"/>
      <point x="336" y="-143" type="curve" smooth="yes"/>
      <point x="302" y="-143"/>
      <point x="276" y="-131"/>
      <point x="260" y="-120" type="curve"/>
      <point x="239" y="-179" type="line"/>
      <point x="262" y="-198"/>
      <point x="303" y="-209"/>
      <point x="348" y="-209" type="curve" smooth="yes"/>
      <point x="409" y="-209"/>
      <point x="469" y="-187"/>
    </contour>
  </outline>
</glyph>
<glyph name="Eacute" format="1">
  <advance width="591"/>
  <unicode hex="00C9"/>
  <outline>
    <contour>
      <point x="475" y="727" type="line"/>
      <point x="450" y="826" type="line"/>
      <point x="252" y="743" type="line"/>
      <point x="266" y="694" type="line"/>
    </contour>
    <contour>
      <point x="535" y="0" type="line"/>
      <point x="555" y="188" type="line"/>
      <point x="460" y="196" type="line"/>
      <point x="440" y="95" type="line"/>
      <point x="226" y="95" type="line"/>
      <point x="226" y="280" type="line"/>
      <point x="512" y="280" type="line"/>
      <point x="512" y="375" type="line"/>
      <point x="226" y="375" type="line"/>
      <point x="226" y="555" type="line"/>
      <point x="433" y="555" type="line"/>
      <point x="453" y="454" type="line"/>
      <point x="548" y="462" type="line"/>
      <point x="528" y="650" type="line"/>
      <point x="40" y="650" type="line"/>
      <point x="40" y="555" type="line"/>
      <point x="115" y="555" type="line"/>
      <point x="115" y="95" type="line"/>
      <point x="40" y="95" type="line"/>
      <point x="40" y="0" type="line"/>
    </contour>
  </outline>
</glyph>
<glyph name="Ecircumflex" format="1">
  <advance width="591"/>
  <unicode hex="00CA"/>
  <outline>
    <contour>
      <point x="535" y="0" type="line"/>
      <point x="555" y="188" type="line"/>
      <point x="460" y="196" type="line"/>
      <point x="440" y="95" type="line"/>
      <point x="226" y="95" type="line"/>
      <point x="226" y="280" type="line"/>
      <point x="512" y="280" type="line"/>
      <point x="512" y="375" type="line"/>
      <point x="226" y="375" type="line"/>
      <point x="226" y="555" type="line"/>
      <point x="433" y="555" type="line"/>
      <point x="453" y="454" type="line"/>
      <point x="548" y="462" type="line"/>
      <point x="528" y="650" type="line"/>
      <point x="40" y="650" type="line"/>
      <point x="40" y="555" type="line"/>
      <point x="115" y="555" type="line"/>
      <point x="115" y="95" type="line"/>
      <point x="40" y="95" type="line"/>
      <point x="40" y="0" type="line"/>
    </contour>
    <contour>
      <point x="482" y="737" type="line"/>
      <point x="350" y="837" type="line"/>
      <point x="314" y="837" type="line"/>
      <point x="182" y="736" type="line"/>
      <point x="207" y="691" type="line"/>
      <point x="328" y="752" type="line"/>
      <point x="457" y="691" type="line"/>
    </contour>
  </outline>
</glyph>
<glyph name="Iacute" format="1">
  <advance width="341"/>
  <unicode hex="00CD"/>
  <outline>
    <contour>
      <point x="300" y="0" type="line"/>
      <point x="300" y="95" type="line"/>
      <point x="226" y="95" type="line"/>
      <point x="226" y="555" type="line"/>
      <point x="300" y="555" type="line"/>
      <point x="300" y="650" type="line"/>
      <point x="40" y="650" type="line"/>
      <point x="40" y="555" type="line"/>
      <point x="115" y="555" type="line"/>
      <point x="115" y="95" type="line"/>
      <point x="40" y="95" type="line"/>
      <point x="40" y="0" type="line"/>
    </contour>
    <contour>
      <point x="297" y="727" type="line"/>
      <point x="272" y="826" type="line"/>
      <point x="74" y="743" type="line"/>
      <point x="88" y="694" type="line"/>
    </contour>
  </outline>
</glyph>
<glyph name="Icircumflex" format="1">
  <advance width="341"/>
  <unicode hex="00CE"/>
  <outline>
    <contour>
      <point x="300" y="0" type="line"/>
      <point x="300" y="95" type="line"/>
      <point x="226" y="95" type="line"/>
      <point x="226" y="555" type="line"/>
      <point x="300" y="555" type="line"/>
      <point x="300" y="650" type="line"/>
      <point x="40" y="650" type="line"/>
      <point x="40" y="555" type="line"/>
      <point x="115" y="555" type="line"/>
      <point x="115" y="95" type="line"/>
      <point x="40" y="95" type="line"/>
      <point x="40" y="0" type="line"/>
    </contour>
    <contour>
      <point x="321" y="737" type="line"/>
      <point x="189" y="837" type="line"/>
      <point x="153" y="837" type="line"/>
      <point x="21" y="736" type="line"/>
      <point x="46" y="691" type="line"/>
      <point x="167" y="752" type="line"/>
      <point x="296" y="691" type="line"/>
    </contour>
  </outline>
</glyph>
<glyph name="Eth" format="1">
  <advance width="702"/>
  <unicode hex="00D0"/>
  <outline>
    <contour>
      <point x="671" y="327" type="curve" smooth="yes"/>
      <point x="671" y="518"/>
      <point x="555" y="650"/>
      <point x="337" y="650" type="curve" smooth="yes"/>
      <point x="41" y="650" type="line"/>
      <point x="41" y="555" type="line"/>
      <point x="116" y="555" type="line"/>
      <point x="116" y="387" type="line"/>
      <point x="45" y="387" type="line"/>
      <point x="45" y="295" type="line"/>
      <point x="116" y="295" type="line"/>
      <point x="116" y="95" type="line"/>
      <point x="41" y="95" type="line"/>
      <point x="41" y="0" type="line"/>
      <point x="343" y="0" type="line" smooth="yes"/>
      <point x="548" y="0"/>
      <point x="671" y="132"/>
    </contour>
    <contour>
      <point x="552" y="326" type="curve" smooth="yes"/>
      <point x="552" y="172"/>
      <point x="474" y="95"/>
      <point x="334" y="95" type="curve" smooth="yes"/>
      <point x="227" y="95" type="line"/>
      <point x="227" y="295" type="line"/>
      <point x="353" y="295" type="line"/>
      <point x="353" y="387" type="line"/>
      <point x="227" y="387" type="line"/>
      <point x="227" y="555" type="line"/>
      <point x="334" y="555" type="line" smooth="yes"/>
      <point x="476" y="555"/>
      <point x="552" y="474"/>
    </contour>
  </outline>
</glyph>
<glyph name="multiply" format="1">
  <advance width="378"/>
  <unicode hex="00D7"/>
  <outline>
    <contour>
      <point x="92" y="124" type="line"/>
      <point x="189" y="222" type="line"/>
      <point x="286" y="126" type="line"/>
      <point x="338" y="180" type="line"/>
      <point x="242" y="275" type="line"/>
      <point x="337" y="370" type="line"/>
      <point x="284" y="423" type="line"/>
      <point x="190" y="328" type="line"/>
      <point x="93" y="425" type="line"/>
      <point x="40" y="372" type="line"/>
      <point x="137" y="275" type="line"/>
      <point x="39" y="177" type="line"/>
    </contour>
  </outline>
</glyph>
<glyph name="Oslash" format="1">
  <advance width="722"/>
  <unicode hex="00D8"/>
  <outline>
    <contour>
      <point x="691" y="326" type="curve" smooth="yes"/>
      <point x="691" y="414"/>
      <point x="662" y="494"/>
      <point x="609" y="554" type="curve"/>
      <point x="692" y="650" type="line"/>
      <point x="584" y="650" type="line"/>
      <point x="548" y="607" type="line"/>
      <point x="497" y="640"/>
      <point x="434" y="660"/>
      <point x="362" y="660" type="curve" smooth="yes"/>
      <point x="162" y="660"/>
      <point x="32" y="513"/>
      <point x="32" y="324" type="curve" smooth="yes"/>
      <point x="32" y="236"/>
      <point x="60" y="155"/>
      <point x="113" y="95" type="curve"/>
      <point x="32" y="0" type="line"/>
      <point x="131" y="0" type="line"/>
      <point x="169" y="44" type="line"/>
      <point x="220" y="10"/>
      <point x="284" y="-10"/>
      <point x="359" y="-10" type="curve" smooth="yes"/>
      <point x="564" y="-10"/>
      <point x="691" y="142"/>
    </contour>
    <contour>
      <point x="571" y="323" type="curve" smooth="yes"/>
      <point x="571" y="187"/>
      <point x="501" y="88"/>
      <point x="364" y="88" type="curve" smooth="yes"/>
      <point x="313" y="88"/>
      <point x="271" y="101"/>
      <point x="239" y="125" type="curve"/>
      <point x="535" y="469" type="line"/>
      <point x="558" y="430"/>
      <point x="571" y="380"/>
    </contour>
    <contour>
      <point x="152" y="327" type="curve" smooth="yes"/>
      <point x="152" y="460"/>
      <point x="222" y="562"/>
      <point x="361" y="562" type="curve" smooth="yes"/>
      <point x="408" y="562"/>
      <point x="448" y="550"/>
      <point x="480" y="528" type="curve"/>
      <point x="187" y="182" type="line"/>
      <point x="163" y="223"/>
      <point x="152" y="273"/>
    </contour>
  </outline>
</glyph>
<glyph name="Ucircumflex" format="1">
  <advance width="718"/>
  <unicode hex="00DB"/>
  <outline>
    <contour>
      <point x="688" y="555" type="line"/>
      <point x="688" y="650" type="line"/>
      <point x="441" y="650" type="line"/>
      <point x="441" y="555" type="line"/>
      <point x="524" y="555" type="line"/>
      <point x="524" y="268" type="line" smooth="yes"/>
      <point x="524" y="155"/>
      <point x="471" y="88"/>
      <point x="362" y="88" type="curve" smooth="yes"/>
      <point x="250" y="88"/>
      <point x="204" y="157"/>
      <point x="204" y="260" type="curve" smooth="yes"/>
      <point x="204" y="555" type="line"/>
      <point x="285" y="555" type="line"/>
      <point x="285" y="650" type="line"/>
      <point x="31" y="650" type="line"/>
      <point x="31" y="555" type="line"/>
      <point x="93" y="555" type="line"/>
      <point x="93" y="257" type="line" smooth="yes"/>
      <point x="93" y="117"/>
      <point x="160" y="-10"/>
      <point x="356" y="-10" type="curve" smooth="yes"/>
      <point x="561" y="-10"/>
      <point x="628" y="130"/>
      <point x="628" y="268" type="curve" smooth="yes"/>
      <point x="628" y="555" type="line"/>
    </contour>
    <contour>
      <point x="510" y="737" type="line"/>
      <point x="378" y="837" type="line"/>
      <point x="342" y="837" type="line"/>
      <point x="210" y="736" type="line"/>
      <point x="235" y="691" type="line"/>
      <point x="356" y="752" type="line"/>
      <point x="485" y="691" type="line"/>
    </contour>
  </outline>
</glyph>
<glyph name="Udieresis" format="1">
  <advance width="718"/>
  <unicode hex="00DC"/>
  <outline>
    <contour>
      <point x="220" y="710" type="line"/>
      <point x="331" y="710" type="line"/>
      <point x="331" y="825" type="line"/>
      <point x="220" y="825" type="line"/>
    </contour>
    <contour>
      <point x="400" y="710" type="line"/>
      <point x="511" y="710" type="line"/>
      <point x="511" y="825" type="line"/>
      <point x="400" y="825" type="line"/>
    </contour>
    <contour>
      <point x="688" y="555" type="line"/>
      <point x="688" y="650" type="line"/>
      <point x="441" y="650" type="line"/>
      <point x="441" y="555" type="line"/>
      <point x="524" y="555" type="line"/>
      <point x="524" y="268" type="line" smooth="yes"/>
      <point x="524" y="155"/>
      <point x="471" y="88"/>
      <point x="362" y="88" type="curve" smooth="yes"/>
      <point x="250" y="88"/>
      <point x="204" y="157"/>
      <point x="204" y="260" type="curve" smooth="yes"/>
      <point x="204" y="555" type="line"/>
      <point x="285" y="555" type="line"/>
      <point x="285" y="650" type="line"/>
      <point x="31" y="650" type="line"/>
      <point x="31" y="555" type="line"/>
      <point x="93" y="555" type="line"/>
      <point x="93" y="257" type="line" smooth="yes"/>
      <point x="93" y="117"/>
      <point x="160" y="-10"/>
      <point x="356" y="-10" type="curve" smooth="yes"/>
      <point x="561" y="-10"/>
      <point x="628" y="130"/>
      <point x="628" y="268" type="curve" smooth="yes"/>
      <point x="628" y="555" type="line"/>
    </contour>
  </outline>
</glyph>
<glyph name="germandbls" format="1">
  <advance width="672"/>
  <unicode hex="00DF"/>
  <outline>
    <contour>
      <point x="663" y="133" type="curve" smooth="yes"/>
      <point x="663" y="311"/>
      <point x="395" y="229"/>
      <point x="395" y="329" type="curve" smooth="yes"/>
      <point x="395" y="417"/>
      <point x="593" y="406"/>
      <point x="593" y="544" type="curve" smooth="yes"/>
      <point x="593" y="627"/>
      <point x="522" y="698"/>
      <point x="357" y="698" type="curve" smooth="yes"/>
      <point x="211" y="698"/>
      <point x="94" y="639"/>
      <point x="94" y="492" type="curve" smooth="yes"/>
      <point x="94" y="449" type="line"/>
      <point x="35" y="449" type="line"/>
      <point x="35" y="366" type="line"/>
      <point x="94" y="366" type="line"/>
      <point x="94" y="82" type="line"/>
      <point x="27" y="82" type="line"/>
      <point x="27" y="0" type="line"/>
      <point x="200" y="0" type="line"/>
      <point x="200" y="483" type="line" smooth="yes"/>
      <point x="200" y="565"/>
      <point x="241" y="616"/>
      <point x="354" y="616" type="curve" smooth="yes"/>
      <point x="442" y="616"/>
      <point x="485" y="587"/>
      <point x="485" y="538" type="curve" smooth="yes"/>
      <point x="485" y="428"/>
      <point x="280" y="462"/>
      <point x="280" y="318" type="curve" smooth="yes"/>
      <point x="280" y="149"/>
      <point x="555" y="226"/>
      <point x="555" y="128" type="curve" smooth="yes"/>
      <point x="555" y="89"/>
      <point x="510" y="73"/>
      <point x="450" y="73" type="curve" smooth="yes"/>
      <point x="427" y="73"/>
      <point x="393" y="76"/>
      <point x="368" y="88" type="curve"/>
      <point x="369" y="142" type="line"/>
      <point x="285" y="150" type="line"/>
      <point x="269" y="34" type="line"/>
      <point x="321" y="4"/>
      <point x="392" y="-10"/>
      <point x="457" y="-10" type="curve" smooth="yes"/>
      <point x="580" y="-10"/>
      <point x="663" y="38"/>
    </contour>
  </outline>
</glyph>
<glyph name="atilde" format="1">
  <advance width="497"/>
  <unicode hex="00E3"/>
  <outline>
    <contour>
      <point x="73" y="416" type="curve"/>
      <point x="54" y="304" type="line"/>
      <point x="140" y="295" type="line"/>
      <point x="158" y="364" type="line"/>
      <point x="181" y="376"/>
      <point x="205" y="379"/>
      <point x="233" y="379" type="curve" smooth="yes"/>
      <point x="308" y="379"/>
      <point x="317" y="328"/>
      <point x="317" y="275" type="curve" smooth="yes"/>
      <point x="317" y="250" type="line"/>
      <point x="294" y="253"/>
      <point x="267" y="254"/>
      <point x="241" y="254" type="curve" smooth="yes"/>
      <point x="139" y="254"/>
      <point x="32" y="229"/>
      <point x="32" y="118" type="curve" smooth="yes"/>
      <point x="32" y="23"/>
      <point x="107" y="-10"/>
      <point x="170" y="-10" type="curve" smooth="yes"/>
      <point x="242" y="-10"/>
      <point x="290" y="34"/>
      <point x="317" y="81" type="curve"/>
      <point x="317" y="79" type="line" smooth="yes"/>
      <point x="321" y="25"/>
      <point x="352" y="-10"/>
      <point x="409" y="-10" type="curve" smooth="yes"/>
      <point x="434" y="-10"/>
      <point x="460" y="-3"/>
      <point x="481" y="9" type="curve"/>
      <point x="480" y="68" type="line"/>
      <point x="473" y="66"/>
      <point x="464" y="64"/>
      <point x="457" y="64" type="curve" smooth="yes"/>
      <point x="434" y="64"/>
      <point x="424" y="75"/>
      <point x="424" y="104" type="curve" smooth="yes"/>
      <point x="424" y="306" type="line" smooth="yes"/>
      <point x="424" y="408"/>
      <point x="352" y="458"/>
      <point x="252" y="458" type="curve" smooth="yes"/>
      <point x="184" y="458"/>
      <point x="140" y="448"/>
    </contour>
    <contour>
      <point x="393" y="647" type="curve"/>
      <point x="346" y="657" type="line"/>
      <point x="336" y="625"/>
      <point x="317" y="615"/>
      <point x="299" y="615" type="curve" smooth="yes"/>
      <point x="260" y="615"/>
      <point x="226" y="653"/>
      <point x="181" y="653" type="curve" smooth="yes"/>
      <point x="121" y="653"/>
      <point x="97" y="579"/>
      <point x="97" y="542" type="curve"/>
      <point x="141" y="528" type="line"/>
      <point x="150" y="558"/>
      <point x="166" y="571"/>
      <point x="188" y="571" type="curve" smooth="yes"/>
      <point x="227" y="571"/>
      <point x="261" y="531"/>
      <point x="312" y="531" type="curve" smooth="yes"/>
      <point x="371" y="531"/>
      <point x="390" y="590"/>
    </contour>
    <contour>
      <point x="317" y="178" type="line"/>
      <point x="312" y="106"/>
      <point x="258" y="69"/>
      <point x="207" y="69" type="curve" smooth="yes"/>
      <point x="168" y="69"/>
      <point x="142" y="90"/>
      <point x="142" y="130" type="curve" smooth="yes"/>
      <point x="142" y="186"/>
      <point x="192" y="200"/>
      <point x="245" y="200" type="curve" smooth="yes"/>
      <point x="270" y="200"/>
      <point x="294" y="197"/>
      <point x="317" y="194" type="curve"/>
    </contour>
  </outline>
</glyph>
<glyph name="ae" format="1">
  <advance width="768"/>
  <unicode hex="00E6"/>
  <outline>
    <contour>
      <point x="742" y="137" type="curve"/>
      <point x="652" y="154" type="line"/>
      <point x="644" y="116"/>
      <point x="618" y="80"/>
      <point x="549" y="80" type="curve" smooth="yes"/>
      <point x="475" y="80"/>
      <point x="438" y="121"/>
      <point x="432" y="202" type="curve"/>
      <point x="732" y="202" type="line"/>
      <point x="736" y="222"/>
      <point x="738" y="242"/>
      <point x="738" y="261" type="curve" smooth="yes"/>
      <point x="737" y="373"/>
      <point x="659" y="458"/>
      <point x="535" y="458" type="curve" smooth="yes"/>
      <point x="474" y="458"/>
      <point x="425" y="437"/>
      <point x="389" y="402" type="curve"/>
      <point x="360" y="438"/>
      <point x="313" y="458"/>
      <point x="256" y="458" type="curve" smooth="yes"/>
      <point x="183" y="458"/>
      <point x="141" y="448"/>
      <point x="73" y="416" type="curve"/>
      <point x="55" y="304" type="line"/>
      <point x="140" y="295" type="line"/>
      <point x="158" y="364" type="line"/>
      <point x="181" y="376"/>
      <point x="204" y="379"/>
      <point x="235" y="379" type="curve" smooth="yes"/>
      <point x="309" y="379"/>
      <point x="317" y="327"/>
      <point x="317" y="275" type="curve" smooth="yes"/>
      <point x="317" y="250" type="line"/>
      <point x="294" y="252"/>
      <point x="267" y="254"/>
      <point x="242" y="254" type="curve" smooth="yes"/>
      <point x="140" y="254"/>
      <point x="29" y="229"/>
      <point x="29" y="118" type="curve" smooth="yes"/>
      <point x="29" y="23"/>
      <point x="107" y="-10"/>
      <point x="178" y="-10" type="curve" smooth="yes"/>
      <point x="264" y="-10"/>
      <point x="319" y="38"/>
      <point x="351" y="86" type="curve"/>
      <point x="388" y="23"/>
      <point x="457" y="-10"/>
      <point x="541" y="-10" type="curve" smooth="yes"/>
      <point x="663" y="-10"/>
      <point x="734" y="58"/>
    </contour>
    <contour>
      <point x="627" y="263" type="curve"/>
      <point x="433" y="263" type="line"/>
      <point x="440" y="329"/>
      <point x="469" y="375"/>
      <point x="534" y="375" type="curve" smooth="yes"/>
      <point x="607" y="375"/>
      <point x="636" y="318"/>
    </contour>
    <contour>
      <point x="143" y="130" type="curve" smooth="yes"/>
      <point x="143" y="186"/>
      <point x="192" y="200"/>
      <point x="246" y="200" type="curve" smooth="yes"/>
      <point x="270" y="200"/>
      <point x="295" y="197"/>
      <point x="317" y="194" type="curve"/>
      <point x="317" y="180" type="line"/>
      <point x="316" y="107"/>
      <point x="258" y="69"/>
      <point x="207" y="69" type="curve" smooth="yes"/>
      <point x="168" y="69"/>
      <point x="143" y="90"/>
    </contour>
  </outline>
</glyph>
<glyph name="ccedilla" format="1">
  <advance width="467"/>
  <unicode hex="00E7"/>
  <outline>
    <contour>
      <point x="376" y="-123" type="curve" smooth="yes"/>
      <point x="376" y="-83"/>
      <point x="352" y="-44"/>
      <point x="287" y="-44" type="curve" smooth="yes"/>
      <point x="279" y="-44" type="line"/>
      <point x="279" y="-8" type="line"/>
      <point x="389" y="6"/>
      <point x="436" y="88"/>
      <point x="445" y="161" type="curve"/>
      <point x="355" y="178" type="line"/>
      <point x="344" y="110"/>
      <point x="313" y="76"/>
      <point x="254" y="76" type="curve" smooth="yes"/>
      <point x="178" y="76"/>
      <point x="139" y="130"/>
      <point x="139" y="222" type="curve" smooth="yes"/>
      <point x="139" y="318"/>
      <point x="180" y="372"/>
      <point x="251" y="372" type="curve" smooth="yes"/>
      <point x="278" y="372"/>
      <point x="304" y="366"/>
      <point x="329" y="354" type="curve"/>
      <point x="344" y="280" type="line"/>
      <point x="430" y="289" type="line"/>
      <point x="412" y="415" type="line"/>
      <point x="360" y="446"/>
      <point x="306" y="458"/>
      <point x="253" y="458" type="curve" smooth="yes"/>
      <point x="119" y="458"/>
      <point x="27" y="363"/>
      <point x="27" y="217" type="curve" smooth="yes"/>
      <point x="27" y="84"/>
      <point x="98" y="7"/>
      <point x="205" y="-7" type="curve"/>
      <point x="205" y="-85" type="line"/>
      <point x="239" y="-85" type="line" smooth="yes"/>
      <point x="271" y="-85"/>
      <point x="285" y="-94"/>
      <point x="285" y="-116" type="curve" smooth="yes"/>
      <point x="285" y="-136"/>
      <point x="272" y="-144"/>
      <point x="243" y="-144" type="curve" smooth="yes"/>
      <point x="209" y="-144"/>
      <point x="183" y="-132"/>
      <point x="167" y="-121" type="curve"/>
      <point x="146" y="-180" type="line"/>
      <point x="169" y="-199"/>
      <point x="210" y="-210"/>
      <point x="255" y="-210" type="curve" smooth="yes"/>
      <point x="316" y="-210"/>
      <point x="376" y="-188"/>
    </contour>
  </outline>
</glyph>
<glyph name="igrave" format="1">
  <advance width="292"/>
  <unicode hex="00EC"/>
  <outline>
    <contour>
      <point x="33" y="82" type="line"/>
      <point x="100" y="82" type="line"/>
      <point x="100" y="366" type="line"/>
      <point x="29" y="366" type="line"/>
      <point x="29" y="449" type="line"/>
      <point x="206" y="449" type="line"/>
      <point x="206" y="82" type="line"/>
      <point x="273" y="82" type="line"/>
      <point x="273" y="0" type="line"/>
      <point x="33" y="0" type="line"/>
    </contour>
    <contour>
      <point x="199" y="555" type="line"/>
      <point x="40" y="693" type="line"/>
      <point x="-17" y="609" type="line"/>
      <point x="169" y="512" type="line"/>
    </contour>
  </outline>
</glyph>
<glyph name="icircumflex" format="1">
  <advance width="292"/>
  <unicode hex="00EE"/>
  <outline>
    <contour>
      <point x="33" y="82" type="line"/>
      <point x="100" y="82" type="line"/>
      <point x="100" y="366" type="line"/>
      <point x="29" y="366" type="line"/>
      <point x="29" y="449" type="line"/>
      <point x="206" y="449" type="line"/>
      <point x="206" y="82" type="line"/>
      <point x="273" y="82" type="line"/>
      <point x="273" y="0" type="line"/>
      <point x="33" y="0" type="line"/>
    </contour>
    <contour>
      <point x="281" y="556" type="line"/>
      <point x="151" y="679" type="line"/>
      <point x="115" y="679" type="line"/>
      <point x="-15" y="555" type="line"/>
      <point x="16" y="512" type="line"/>
      <point x="124" y="586" type="line"/>
      <point x="250" y="512" type="line"/>
    </contour>
  </outline>
</glyph>
<glyph name="idieresis" format="1">
  <advance width="292"/>
  <unicode hex="00EF"/>
  <outline>
    <contour>
      <point x="33" y="82" type="line"/>
      <point x="100" y="82" type="line"/>
      <point x="100" y="366" type="line"/>
      <point x="29" y="366" type="line"/>
      <point x="29" y="449" type="line"/>
      <point x="206" y="449" type="line"/>
      <point x="206" y="82" type="line"/>
      <point x="273" y="82" type="line"/>
      <point x="273" y="0" type="line"/>
      <point x="33" y="0" type="line"/>
    </contour>
    <contour>
      <point x="-6" y="540" type="line"/>
      <point x="105" y="540" type="line"/>
      <point x="105" y="655" type="line"/>
      <point x="-6" y="655" type="line"/>
    </contour>
    <contour>
      <point x="174" y="540" type="line"/>
      <point x="284" y="540" type="line"/>
      <point x="284" y="655" type="line"/>
      <point x="174" y="655" type="line"/>
    </contour>
  </outline>
</glyph>
<glyph name="eth" format="1">
  <advance width="526"/>
  <unicode hex="00F0"/>
  <outline>
    <contour>
      <point x="132" y="516" type="line"/>
      <point x="180" y="583" type="line"/>
      <point x="114" y="620" type="line"/>
      <point x="159" y="698" type="line"/>
      <point x="184" y="686"/>
      <point x="210" y="672"/>
      <point x="234" y="657" type="curve"/>
      <point x="274" y="712" type="line"/>
      <point x="332" y="676" type="line"/>
      <point x="291" y="619" type="line"/>
      <point x="405" y="534"/>
      <point x="492" y="414"/>
      <point x="492" y="253" type="curve" smooth="yes"/>
      <point x="492" y="224" type="line" smooth="yes"/>
      <point x="492" y="83"/>
      <point x="395" y="-10"/>
      <point x="254" y="-10" type="curve" smooth="yes"/>
      <point x="117" y="-10"/>
      <point x="26" y="79"/>
      <point x="26" y="218" type="curve" smooth="yes"/>
      <point x="26" y="360"/>
      <point x="120" y="458"/>
      <point x="248" y="458" type="curve" smooth="yes"/>
      <point x="283" y="458"/>
      <point x="313" y="450"/>
      <point x="337" y="437" type="curve"/>
      <point x="313" y="479"/>
      <point x="280" y="514"/>
      <point x="237" y="545" type="curve"/>
      <point x="189" y="479" type="line"/>
    </contour>
    <contour>
      <point x="258" y="368" type="curve" smooth="yes"/>
      <point x="183" y="368"/>
      <point x="141" y="314"/>
      <point x="141" y="226" type="curve" smooth="yes"/>
      <point x="141" y="142"/>
      <point x="179" y="80"/>
      <point x="258" y="80" type="curve" smooth="yes"/>
      <point x="334" y="80"/>
      <point x="378" y="136"/>
      <point x="378" y="220" type="curve" smooth="yes"/>
      <point x="378" y="262" type="line"/>
      <point x="375" y="320"/>
      <point x="326" y="368"/>
    </contour>
  </outline>
</glyph>
<glyph name="otilde" format="1">
  <advance width="518"/>
  <unicode hex="00F5"/>
  <outline>
    <contour>
      <point x="493" y="224" type="curve" smooth="yes"/>
      <point x="493" y="351"/>
      <point x="416" y="459"/>
      <point x="260" y="459" type="curve" smooth="yes"/>
      <point x="105" y="459"/>
      <point x="26" y="351"/>
      <point x="26" y="220" type="curve" smooth="yes"/>
      <point x="26" y="79"/>
      <point x="117" y="-10"/>
      <point x="254" y="-10" type="curve" smooth="yes"/>
      <point x="395" y="-10"/>
      <point x="493" y="84"/>
    </contour>
    <contour>
      <point x="382" y="227" type="curve" smooth="yes"/>
      <point x="382" y="136"/>
      <point x="335" y="74"/>
      <point x="258" y="74" type="curve" smooth="yes"/>
      <point x="178" y="74"/>
      <point x="137" y="141"/>
      <point x="137" y="226" type="curve" smooth="yes"/>
      <point x="137" y="316"/>
      <point x="182" y="375"/>
      <point x="258" y="375" type="curve" smooth="yes"/>
      <point x="331" y="375"/>
      <point x="382" y="323"/>
    </contour>
    <contour>
      <point x="408" y="647" type="curve"/>
      <point x="361" y="657" type="line"/>
      <point x="351" y="625"/>
      <point x="332" y="615"/>
      <point x="314" y="615" type="curve" smooth="yes"/>
      <point x="275" y="615"/>
      <point x="241" y="653"/>
      <point x="196" y="653" type="curve" smooth="yes"/>
      <point x="136" y="653"/>
      <point x="112" y="579"/>
      <point x="112" y="542" type="curve"/>
      <point x="156" y="528" type="line"/>
      <point x="165" y="558"/>
      <point x="181" y="571"/>
      <point x="203" y="571" type="curve" smooth="yes"/>
      <point x="242" y="571"/>
      <point x="276" y="531"/>
      <point x="327" y="531" type="curve" smooth="yes"/>
      <point x="386" y="531"/>
      <point x="405" y="590"/>
    </contour>
  </outline>
</glyph>
<glyph name="odieresis" format="1">
  <advance width="518"/>
  <unicode hex="00F6"/>
  <outline>
    <contour>
      <point x="116" y="540" type="line"/>
      <point x="227" y="540" type="line"/>
      <point x="227" y="655" type="line"/>
      <point x="116" y="655" type="line"/>
    </contour>
    <contour>
      <point x="296" y="540" type="line"/>
      <point x="406" y="540" type="line"/>
      <point x="406" y="655" type="line"/>
      <point x="296" y="655" type="line"/>
    </contour>
    <contour>
      <point x="493" y="224" type="curve" smooth="yes"/>
      <point x="493" y="351"/>
      <point x="416" y="459"/>
      <point x="260" y="459" type="curve" smooth="yes"/>
      <point x="105" y="459"/>
      <point x="26" y="351"/>
      <point x="26" y="220" type="curve" smooth="yes"/>
      <point x="26" y="79"/>
      <point x="117" y="-10"/>
      <point x="254" y="-10" type="curve" smooth="yes"/>
      <point x="395" y="-10"/>
      <point x="493" y="84"/>
    </contour>
    <contour>
      <point x="382" y="227" type="curve" smooth="yes"/>
      <point x="382" y="136"/>
      <point x="335" y="74"/>
      <point x="258" y="74" type="curve" smooth="yes"/>
      <point x="178" y="74"/>
      <point x="137" y="141"/>
      <point x="137" y="226" type="curve" smooth="yes"/>
      <point x="137" y="316"/>
      <point x="182" y="375"/>
      <point x="258" y="375" type="curve" smooth="yes"/>
      <point x="331" y="375"/>
      <point x="382" y="323"/>
    </contour>
  </outline>
</glyph>
<glyph name="ucircumflex" format="1">
  <advance width="576"/>
  <unicode hex="00FB"/>
  <outline>
    <contour>
      <point x="423" y="556" type="line"/>
      <point x="293" y="679" type="line"/>
      <point x="257" y="679" type="line"/>
      <point x="127" y="555" type="line"/>
      <point x="158" y="512" type="line"/>
      <point x="266" y="586" type="line"/>
      <point x="392" y="512" type="line"/>
    </contour>
    <contour>
      <point x="561" y="0" type="line"/>
      <point x="561" y="82" type="line"/>
      <point x="491" y="82" type="line"/>
      <point x="491" y="449" type="line"/>
      <point x="304" y="449" type="line"/>
      <point x="304" y="367" type="line"/>
      <point x="384" y="367" type="line"/>
      <point x="384" y="192" type="line"/>
      <point x="383" y="128"/>
      <point x="341" y="74"/>
      <point x="274" y="74" type="curve" smooth="yes"/>
      <point x="218" y="74"/>
      <point x="186" y="106"/>
      <point x="186" y="191" type="curve" smooth="yes"/>
      <point x="186" y="449" type="line"/>
      <point x="12" y="449" type="line"/>
      <point x="12" y="367" type="line"/>
      <point x="79" y="367" type="line"/>
      <point x="79" y="152" type="line" smooth="yes"/>
      <point x="79" y="40"/>
      <point x="150" y="-9"/>
      <point x="236" y="-9" type="curve" smooth="yes"/>
      <point x="303" y="-9"/>
      <point x="356" y="22"/>
      <point x="384" y="75" type="curve"/>
      <point x="384" y="0" type="line"/>
    </contour>
  </outline>
</glyph>
<glyph name="yacute" format="1">
  <advance width="522"/>
  <unicode hex="00FD"/>
  <outline>
    <contour>
      <point x="515" y="367" type="line"/>
      <point x="515" y="449" type="line"/>
      <point x="313" y="449" type="line"/>
      <point x="313" y="367" type="line"/>
      <point x="364" y="367" type="line"/>
      <point x="280" y="124" type="line"/>
      <point x="274" y="124" type="line"/>
      <point x="170" y="367" type="line"/>
      <point x="227" y="367" type="line"/>
      <point x="227" y="449" type="line"/>
      <point x="6" y="449" type="line"/>
      <point x="6" y="367" type="line"/>
      <point x="55" y="367" type="line"/>
      <point x="214" y="-4" type="line"/>
      <point x="170" y="-129" type="line"/>
      <point x="94" y="-129" type="line"/>
      <point x="94" y="-213" type="line"/>
      <point x="334" y="-213" type="line"/>
      <point x="334" y="-129" type="line"/>
      <point x="268" y="-129" type="line"/>
      <point x="318" y="0" type="line"/>
      <point x="468" y="367" type="line"/>
    </contour>
    <contour>
      <point x="425" y="609" type="line"/>
      <point x="368" y="693" type="line"/>
      <point x="209" y="555" type="line"/>
      <point x="238" y="512" type="line"/>
    </contour>
  </outline>
</glyph>
<glyph name="thorn" format="1">
  <advance width="537"/>
  <unicode hex="00FE"/>
  <outline>
    <contour>
      <point x="-11" y="-131" type="line"/>
      <point x="56" y="-131" type="line"/>
      <point x="56" y="606" type="line"/>
      <point x="-15" y="606" type="line"/>
      <point x="-15" y="688" type="line"/>
      <point x="162" y="688" type="line"/>
      <point x="162" y="359" type="line"/>
      <point x="187" y="412"/>
      <point x="234" y="458"/>
      <point x="317" y="458" type="curve" smooth="yes"/>
      <point x="430" y="458"/>
      <point x="509" y="376"/>
      <point x="509" y="236" type="curve" smooth="yes"/>
      <point x="509" y="108"/>
      <point x="443" y="-10"/>
      <point x="304" y="-10" type="curve" smooth="yes"/>
      <point x="239" y="-10"/>
      <point x="190" y="16"/>
      <point x="162" y="61" type="curve"/>
      <point x="162" y="-131" type="line"/>
      <point x="251" y="-131" type="line"/>
      <point x="251" y="-213" type="line"/>
      <point x="-11" y="-213" type="line"/>
    </contour>
    <contour>
      <point x="278" y="80" type="curve" smooth="yes"/>
      <point x="349" y="80"/>
      <point x="394" y="133"/>
      <point x="394" y="226" type="curve" smooth="yes"/>
      <point x="394" y="321"/>
      <point x="347" y="368"/>
      <point x="285" y="368" type="curve" smooth="yes"/>
      <point x="212" y="368"/>
      <point x="164" y="299"/>
      <point x="162" y="234" type="curve"/>
      <point x="162" y="200" type="line" smooth="yes"/>
      <point x="162" y="126"/>
      <point x="212" y="80"/>
    </contour>
  </outline>
</glyph>
<glyph name="Abreve" format="1">
  <advance width="672"/>
  <unicode hex="0102"/>
  <outline>
    <contour>
      <point x="675" y="0" type="line"/>
      <point x="675" y="95" type="line"/>
      <point x="612" y="95" type="line"/>
      <point x="378" y="650" type="line"/>
      <point x="169" y="650" type="line"/>
      <point x="169" y="555" type="line"/>
      <point x="264" y="555" type="line"/>
      <point x="68" y="95" type="line"/>
      <point x="8" y="95" type="line"/>
      <point x="8" y="0" type="line"/>
      <point x="254" y="0" type="line"/>
      <point x="254" y="95" type="line"/>
      <point x="181" y="95" type="line"/>
      <point x="216" y="184" type="line"/>
      <point x="459" y="184" type="line"/>
      <point x="492" y="95" type="line"/>
      <point x="426" y="95" type="line"/>
      <point x="426" y="0" type="line"/>
    </contour>
    <contour>
      <point x="429" y="265" type="line"/>
      <point x="248" y="265" type="line"/>
      <point x="338" y="491" type="line"/>
      <point x="344" y="491" type="line"/>
    </contour>
    <contour>
      <point x="474" y="827" type="curve"/>
      <point x="389" y="827" type="line"/>
      <point x="389" y="788"/>
      <point x="375" y="762"/>
      <point x="341" y="762" type="curve" smooth="yes"/>
      <point x="309" y="762"/>
      <point x="294" y="784"/>
      <point x="294" y="827" type="curve"/>
      <point x="209" y="827" type="line"/>
      <point x="209" y="739"/>
      <point x="256" y="696"/>
      <point x="341" y="696" type="curve" smooth="yes"/>
      <point x="424" y="696"/>
      <point x="474" y="736"/>
    </contour>
  </outline>
</glyph>
<glyph name="cdotaccent" format="1">
  <advance width="467"/>
  <unicode hex="010B"/>
  <outline>
    <contour>
      <point x="445" y="161" type="curve"/>
      <point x="355" y="178" type="line"/>
      <point x="344" y="110"/>
      <point x="313" y="76"/>
      <point x="254" y="76" type="curve" smooth="yes"/>
      <point x="178" y="76"/>
      <point x="139" y="130"/>
      <point x="139" y="222" type="curve" smooth="yes"/>
      <point x="139" y="318"/>
      <point x="180" y="372"/>
      <point x="251" y="372" type="curve" smooth="yes"/>
      <point x="278" y="372"/>
      <point x="304" y="366"/>
      <point x="329" y="354" type="curve"/>
      <point x="344" y="280" type="line"/>
      <point x="430" y="289" type="line"/>
      <point x="412" y="415" type="line"/>
      <point x="360" y="446"/>
      <point x="306" y="458"/>
      <point x="253" y="458" type="curve" smooth="yes"/>
      <point x="119" y="458"/>
      <point x="27" y="363"/>
      <point x="27" y="217" type="curve" smooth="yes"/>
      <point x="27" y="69"/>
      <point x="116" y="-10"/>
      <point x="244" y="-10" type="curve" smooth="yes"/>
      <point x="380" y="-10"/>
      <point x="435" y="81"/>
    </contour>
    <contour>
      <point x="196" y="539" type="line"/>
      <point x="305" y="539" type="line"/>
      <point x="305" y="657" type="line"/>
      <point x="196" y="657" type="line"/>
    </contour>
  </outline>
</glyph>
<glyph name="ccaron" format="1">
  <advance width="467"/>
  <unicode hex="010D"/>
  <outline>
    <contour>
      <point x="392" y="635" type="line"/>
      <point x="361" y="679" type="line"/>
      <point x="252" y="605" type="line"/>
      <point x="127" y="678" type="line"/>
      <point x="96" y="635" type="line"/>
      <point x="226" y="512" type="line"/>
      <point x="262" y="512" type="line"/>
    </contour>
    <contour>
      <point x="445" y="161" type="curve"/>
      <point x="355" y="178" type="line"/>
      <point x="344" y="110"/>
      <point x="313" y="76"/>
      <point x="254" y="76" type="curve" smooth="yes"/>
      <point x="178" y="76"/>
      <point x="139" y="130"/>
      <point x="139" y="222" type="curve" smooth="yes"/>
      <point x="139" y="318"/>
      <point x="180" y="372"/>
      <point x="251" y="372" type="curve" smooth="yes"/>
      <point x="278" y="372"/>
      <point x="304" y="366"/>
      <point x="329" y="354" type="curve"/>
      <point x="344" y="280" type="line"/>
      <point x="430" y="289" type="line"/>
      <point x="412" y="415" type="line"/>
      <point x="360" y="446"/>
      <point x="306" y="458"/>
      <point x="253" y="458" type="curve" smooth="yes"/>
      <point x="119" y="458"/>
      <point x="27" y="363"/>
      <point x="27" y="217" type="curve" smooth="yes"/>
      <point x="27" y="69"/>
      <point x="116" y="-10"/>
      <point x="244" y="-10" type="curve" smooth="yes"/>
      <point x="380" y="-10"/>
      <point x="435" y="81"/>
    </contour>
  </outline>
</glyph>
<glyph name="Dcaron" format="1">
  <advance width="701"/>
  <unicode hex="010E"/>
  <outline>
    <contour>
      <point x="451" y="791" type="line"/>
      <point x="425" y="837" type="line"/>
      <point x="306" y="776" type="line"/>
      <point x="176" y="836" type="line"/>
      <point x="151" y="791" type="line"/>
      <point x="283" y="691" type="line"/>
      <point x="319" y="691" type="line"/>
    </contour>
    <contour>
      <point x="670" y="327" type="curve" smooth="yes"/>
      <point x="670" y="518"/>
      <point x="554" y="650"/>
      <point x="336" y="650" type="curve" smooth="yes"/>
      <point x="40" y="650" type="line"/>
      <point x="40" y="555" type="line"/>
      <point x="115" y="555" type="line"/>
      <point x="115" y="95" type="line"/>
      <point x="40" y="95" type="line"/>
      <point x="40" y="0" type="line"/>
      <point x="342" y="0" type="line" smooth="yes"/>
      <point x="547" y="0"/>
      <point x="670" y="132"/>
    </contour>
    <contour>
      <point x="551" y="326" type="curve" smooth="yes"/>
      <point x="551" y="172"/>
      <point x="473" y="95"/>
      <point x="333" y="95" type="curve" smooth="yes"/>
      <point x="226" y="95" type="line"/>
      <point x="226" y="555" type="line"/>
      <point x="333" y="555" type="line" smooth="yes"/>
      <point x="475" y="555"/>
      <point x="551" y="474"/>
    </contour>
  </outline>
</glyph>
<glyph name="dcaron" format="1">
  <advance width="572"/>
  <unicode hex="010F"/>
  <outline>
    <contour>
      <point x="648" y="681" type="line"/>
      <point x="548" y="681" type="line"/>
      <point x="535" y="457" type="line"/>
      <point x="617" y="457" type="line"/>
    </contour>
    <contour>
      <point x="548" y="0" type="line"/>
      <point x="548" y="82" type="line"/>
      <point x="482" y="82" type="line"/>
      <point x="482" y="688" type="line"/>
      <point x="278" y="688" type="line"/>
      <point x="278" y="606" type="line"/>
      <point x="375" y="606" type="line"/>
      <point x="375" y="379" type="line"/>
      <point x="348" y="427"/>
      <point x="300" y="458"/>
      <point x="229" y="458" type="curve" smooth="yes"/>
      <point x="90" y="458"/>
      <point x="28" y="343"/>
      <point x="28" y="215" type="curve" smooth="yes"/>
      <point x="28" y="75"/>
      <point x="102" y="-10"/>
      <point x="219" y="-10" type="curve" smooth="yes"/>
      <point x="301" y="-10"/>
      <point x="348" y="34"/>
      <point x="375" y="86" type="curve"/>
      <point x="375" y="0" type="line"/>
    </contour>
    <contour>
      <point x="375" y="216" type="line"/>
      <point x="374" y="149"/>
      <point x="326" y="76"/>
      <point x="253" y="76" type="curve" smooth="yes"/>
      <point x="190" y="76"/>
      <point x="139" y="127"/>
      <point x="139" y="221" type="curve" smooth="yes"/>
      <point x="139" y="314"/>
      <point x="188" y="372"/>
      <point x="260" y="372" type="curve" smooth="yes"/>
      <point x="324" y="372"/>
      <point x="374" y="324"/>
      <point x="375" y="250" type="curve"/>
    </contour>
  </outline>
</glyph>
<glyph name="Gcircumflex" format="1">
  <advance width="686"/>
  <unicode hex="011C"/>
  <outline>
    <contour>
      <point x="660" y="255" type="line"/>
      <point x="660" y="350" type="line"/>
      <point x="372" y="350" type="line"/>
      <point x="372" y="255" type="line"/>
      <point x="510" y="255" type="line"/>
      <point x="510" y="231" type="line" smooth="yes"/>
      <point x="510" y="148"/>
      <point x="449" y="88"/>
      <point x="349" y="88" type="curve" smooth="yes"/>
      <point x="230" y="88"/>
      <point x="150" y="173"/>
      <point x="150" y="323" type="curve" smooth="yes"/>
      <point x="150" y="476"/>
      <point x="235" y="562"/>
      <point x="357" y="562" type="curve" smooth="yes"/>
      <point x="414" y="562"/>
      <point x="470" y="546"/>
      <point x="505" y="522" type="curve"/>
      <point x="523" y="440" type="line"/>
      <point x="614" y="449" type="line"/>
      <point x="596" y="583" type="line"/>
      <point x="551" y="626"/>
      <point x="464" y="660"/>
      <point x="359" y="660" type="curve" smooth="yes"/>
      <point x="151" y="660"/>
      <point x="31" y="507"/>
      <point x="31" y="321" type="curve" smooth="yes"/>
      <point x="31" y="134"/>
      <point x="149" y="-10"/>
      <point x="330" y="-10" type="curve" smooth="yes"/>
      <point x="418" y="-10"/>
      <point x="484" y="26"/>
      <point x="524" y="76" type="curve"/>
      <point x="535" y="0" type="line"/>
      <point x="621" y="0" type="line"/>
      <point x="621" y="255" type="line"/>
    </contour>
    <contour>
      <point x="504" y="737" type="line"/>
      <point x="372" y="837" type="line"/>
      <point x="336" y="837" type="line"/>
      <point x="204" y="736" type="line"/>
      <point x="229" y="691" type="line"/>
      <point x="350" y="752" type="line"/>
      <point x="479" y="691" type="line"/>
    </contour>
  </outline>
</glyph>
<glyph name="gcircumflex" format="1">
  <advance width="561"/>
  <unicode hex="011D"/>
  <outline>
    <contour>
      <point x="414" y="556" type="line"/>
      <point x="284" y="679" type="line"/>
      <point x="248" y="679" type="line"/>
      <point x="118" y="555" type="line"/>
      <point x="149" y="512" type="line"/>
      <point x="257" y="586" type="line"/>
      <point x="383" y="512" type="line"/>
    </contour>
    <contour>
      <point x="546" y="366" type="line"/>
      <point x="546" y="449" type="line"/>
      <point x="374" y="449" type="line"/>
      <point x="374" y="379" type="line"/>
      <point x="348" y="427"/>
      <point x="298" y="458"/>
      <point x="229" y="458" type="curve" smooth="yes"/>
      <point x="98" y="458"/>
      <point x="28" y="343"/>
      <point x="28" y="215" type="curve" smooth="yes"/>
      <point x="28" y="74"/>
      <point x="117" y="-2"/>
      <point x="222" y="-2" type="curve" smooth="yes"/>
      <point x="304" y="-2"/>
      <point x="349" y="37"/>
      <point x="374" y="85" type="curve"/>
      <point x="374" y="18" type="line" smooth="yes"/>
      <point x="374" y="-81"/>
      <point x="320" y="-136"/>
      <point x="246" y="-136" type="curve" smooth="yes"/>
      <point x="188" y="-136"/>
      <point x="138" y="-106"/>
      <point x="110" y="-44" type="curve"/>
      <point x="27" y="-89" type="line"/>
      <point x="60" y="-187"/>
      <point x="151" y="-222"/>
      <point x="244" y="-222" type="curve" smooth="yes"/>
      <point x="401" y="-222"/>
      <point x="481" y="-126"/>
      <point x="481" y="17" type="curve" smooth="yes"/>
      <point x="481" y="366" type="line"/>
    </contour>
    <contour>
      <point x="374" y="214" type="line"/>
      <point x="374" y="148"/>
      <point x="328" y="84"/>
      <point x="252" y="84" type="curve" smooth="yes"/>
      <point x="191" y="84"/>
      <point x="146" y="127"/>
      <point x="146" y="222" type="curve" smooth="yes"/>
      <point x="146" y="314"/>
      <point x="188" y="372"/>
      <point x="262" y="372" type="curve" smooth="yes"/>
      <point x="326" y="372"/>
      <point x="374" y="325"/>
      <point x="374" y="250" type="curve" smooth="yes"/>
    </contour>
  </outline>
</glyph>
<glyph name="hcircumflex" format="1">
  <advance width="574"/>
  <unicode hex="0125"/>
  <outline>
    <contour>
      <point x="262" y="752" type="line"/>
      <point x="132" y="875" type="line"/>
      <point x="96" y="875" type="line"/>
      <point x="-34" y="751" type="line"/>
      <point x="-3" y="708" type="line"/>
      <point x="105" y="782" type="line"/>
      <point x="231" y="708" type="line"/>
    </contour>
    <contour>
      <point x="562" y="0" type="line"/>
      <point x="562" y="82" type="line"/>
      <point x="495" y="82" type="line"/>
      <point x="495" y="297" type="line" smooth="yes"/>
      <point x="495" y="408"/>
      <point x="425" y="458"/>
      <point x="339" y="458" type="curve" smooth="yes"/>
      <point x="271" y="458"/>
      <point x="219" y="427"/>
      <point x="190" y="375" type="curve"/>
      <point x="190" y="688" type="line"/>
      <point x="16" y="688" type="line"/>
      <point x="16" y="606" type="line"/>
      <point x="83" y="606" type="line"/>
      <point x="83" y="82" type="line"/>
      <point x="16" y="82" type="line"/>
      <point x="16" y="0" type="line"/>
      <point x="256" y="0" type="line"/>
      <point x="256" y="82" type="line"/>
      <point x="190" y="82" type="line"/>
      <point x="190" y="265" type="line"/>
      <point x="193" y="326"/>
      <point x="233" y="375"/>
      <point x="299" y="375" type="curve" smooth="yes"/>
      <point x="354" y="375"/>
      <point x="388" y="343"/>
      <point x="388" y="258" type="curve" smooth="yes"/>
      <point x="388" y="82" type="line"/>
      <point x="321" y="82" type="line"/>
      <point x="321" y="0" type="line"/>
    </contour>
  </outline>
</glyph>
<glyph name="Hbar" format="1">
  <advance width="759"/>
  <unicode hex="0126"/>
  <outline>
    <contour>
      <point x="42" y="438" type="line"/>
      <point x="115" y="438" type="line"/>
      <point x="115" y="95" type="line"/>
      <point x="40" y="95" type="line"/>
      <point x="40" y="0" type="line"/>
      <point x="300" y="0" type="line"/>
      <point x="300" y="95" type="line"/>
      <point x="226" y="95" type="line"/>
      <point x="226" y="283" type="line"/>
      <point x="533" y="283" type="line"/>
      <point x="533" y="95" type="line"/>
      <point x="458" y="95" type="line"/>
      <point x="458" y="0" type="line"/>
      <point x="718" y="0" type="line"/>
      <point x="718" y="95" type="line"/>
      <point x="644" y="95" type="line"/>
      <point x="644" y="438" type="line"/>
      <point x="713" y="438" type="line"/>
      <point x="713" y="506" type="line"/>
      <point x="644" y="506" type="line"/>
      <point x="644" y="555" type="line"/>
      <point x="718" y="555" type="line"/>
      <point x="718" y="650" type="line"/>
      <point x="458" y="650" type="line"/>
      <point x="458" y="555" type="line"/>
      <point x="533" y="555" type="line"/>
      <point x="533" y="506" type="line"/>
      <point x="226" y="506" type="line"/>
      <point x="226" y="555" type="line"/>
      <point x="300" y="555" type="line"/>
      <point x="300" y="650" type="line"/>
      <point x="40" y="650" type="line"/>
      <point x="40" y="555" type="line"/>
      <point x="115" y="555" type="line"/>
      <point x="115" y="506" type="line"/>
      <point x="42" y="506" type="line"/>
    </contour>
    <contour>
      <point x="226" y="377" type="line"/>
      <point x="226" y="438" type="line"/>
      <point x="533" y="438" type="line"/>
      <point x="533" y="377" type="line"/>
    </contour>
  </outline>
</glyph>
<glyph name="Itilde" format="1">
  <advance width="341"/>
  <unicode hex="0128"/>
  <outline>
    <contour>
      <point x="300" y="0" type="line"/>
      <point x="300" y="95" type="line"/>
      <point x="226" y="95" type="line"/>
      <point x="226" y="555" type="line"/>
      <point x="300" y="555" type="line"/>
      <point x="300" y="650" type="line"/>
      <point x="40" y="650" type="line"/>
      <point x="40" y="555" type="line"/>
      <point x="115" y="555" type="line"/>
      <point x="115" y="95" type="line"/>
      <point x="40" y="95" type="line"/>
      <point x="40" y="0" type="line"/>
    </contour>
    <contour>
      <point x="323" y="812" type="curve"/>
      <point x="276" y="822" type="line"/>
      <point x="266" y="790"/>
      <point x="247" y="782"/>
      <point x="228" y="782" type="curve" smooth="yes"/>
      <point x="189" y="782"/>
      <point x="156" y="815"/>
      <point x="112" y="815" type="curve" smooth="yes"/>
      <point x="50" y="815"/>
      <point x="27" y="751"/>
      <point x="27" y="716" type="curve"/>
      <point x="71" y="701" type="line"/>
      <point x="79" y="729"/>
      <point x="95" y="736"/>
      <point x="116" y="736" type="curve" smooth="yes"/>
      <point x="159" y="736"/>
      <point x="191" y="704"/>
      <point x="240" y="704" type="curve" smooth="yes"/>
      <point x="301" y="704"/>
      <point x="319" y="755"/>
    </contour>
  </outline>
</glyph>
<glyph name="itilde" format="1">
  <advance width="292"/>
  <unicode hex="0129"/>
  <outline>
    <contour>
      <point x="33" y="82" type="line"/>
      <point x="100" y="82" type="line"/>
      <point x="100" y="366" type="line"/>
      <point x="29" y="366" type="line"/>
      <point x="29" y="449" type="line"/>
      <point x="206" y="449" type="line"/>
      <point x="206" y="82" type="line"/>
      <point x="273" y="82" type="line"/>
      <point x="273" y="0" type="line"/>
      <point x="33" y="0" type="line"/>
    </contour>
    <contour>
      <point x="290" y="647" type="curve"/>
      <point x="243" y="657" type="line"/>
      <point x="233" y="625"/>
      <point x="214" y="615"/>
      <point x="196" y="615" type="curve" smooth="yes"/>
      <point x="157" y="615"/>
      <point x="123" y="653"/>
      <point x="78" y="653" type="curve" smooth="yes"/>
      <point x="18" y="653"/>
      <point x="-6" y="579"/>
      <point x="-6" y="542" type="curve"/>
      <point x="38" y="528" type="line"/>
      <point x="47" y="558"/>
      <point x="63" y="571"/>
      <point x="85" y="571" type="curve" smooth="yes"/>
      <point x="124" y="571"/>
      <point x="158" y="531"/>
      <point x="209" y="531" type="curve" smooth="yes"/>
      <point x="268" y="531"/>
      <point x="287" y="590"/>
    </contour>
  </outline>
</glyph>
<glyph name="imacron" format="1">
  <advance width="292"/>
  <unicode hex="012B"/>
  <outline>
    <contour>
      <point x="33" y="82" type="line"/>
      <point x="100" y="82" type="line"/>
      <point x="100" y="366" type="line"/>
      <point x="29" y="366" type="line"/>
      <point x="29" y="449" type="line"/>
      <point x="206" y="449" type="line"/>
      <point x="206" y="82" type="line"/>
      <point x="273" y="82" type="line"/>
      <point x="273" y="0" type="line"/>
      <point x="33" y="0" type="line"/>
    </contour>
    <contour>
      <point x="268" y="547" type="line"/>
      <point x="268" y="629" type="line"/>
      <point x="9" y="629" type="line"/>
      <point x="9" y="547" type="line"/>
    </contour>
  </outline>
</glyph>
<glyph name="iogonek" format="1">
  <advance width="292"/>
  <unicode hex="012F"/>
  <outline>
    <contour>
      <point x="234" y="-119" type="line"/>
      <point x="219" y="-128"/>
      <point x="201" y="-132"/>
      <point x="185" y="-132" type="curve" smooth="yes"/>
      <point x="157" y="-132"/>
      <point x="136" y="-121"/>
      <point x="136" y="-84" type="curve" smooth="yes"/>
      <point x="136" y="-58"/>
      <point x="146" y="-26"/>
      <point x="188" y="0" type="curve"/>
      <point x="273" y="0" type="line"/>
      <point x="273" y="82" type="line"/>
      <point x="206" y="82" type="line"/>
      <point x="206" y="449" type="line"/>
      <point x="29" y="449" type="line"/>
      <point x="29" y="366" type="line"/>
      <point x="100" y="366" type="line"/>
      <point x="100" y="82" type="line"/>
      <point x="33" y="82" type="line"/>
      <point x="33" y="0" type="line"/>
      <point x="117" y="0" type="line"/>
      <point x="76" y="-25"/>
      <point x="44" y="-66"/>
      <point x="44" y="-117" type="curve" smooth="yes"/>
      <point x="44" y="-179"/>
      <point x="93" y="-208"/>
      <point x="157" y="-208" type="curve" smooth="yes"/>
      <point x="192" y="-208"/>
      <point x="220" y="-200"/>
      <point x="243" y="-188" type="curve"/>
    </contour>
    <contour>
      <point x="94" y="542" type="line"/>
      <point x="203" y="542" type="line"/>
      <point x="203" y="660" type="line"/>
      <point x="94" y="660" type="line"/>
    </contour>
  </outline>
</glyph>
<glyph name="dotlessi" format="1">
  <advance width="292"/>
  <unicode hex="0131"/>
  <outline>
    <contour>
      <point x="33" y="82" type="line"/>
      <point x="100" y="82" type="line"/>
      <point x="100" y="366" type="line"/>
      <point x="29" y="366" type="line"/>
      <point x="29" y="449" type="line"/>
      <point x="206" y="449" type="line"/>
      <point x="206" y="82" type="line"/>
      <point x="273" y="82" type="line"/>
      <point x="273" y="0" type="line"/>
      <point x="33" y="0" type="line"/>
    </contour>
    <contour>
      <point x="309" y="566" type="move" name="top"/>
    </contour>
  </outline>
</glyph>
<glyph name="ij" format="1">
  <advance width="552"/>
  <unicode hex="0133"/>
  <outline>
    <contour>
      <point x="273" y="0" type="line"/>
      <point x="273" y="82" type="line"/>
      <point x="206" y="82" type="line"/>
      <point x="206" y="449" type="line"/>
      <point x="29" y="449" type="line"/>
      <point x="29" y="366" type="line"/>
      <point x="100" y="366" type="line"/>
      <point x="100" y="82" type="line"/>
      <point x="33" y="82" type="line"/>
      <point x="33" y="0" type="line"/>
    </contour>
    <contour>
      <point x="94" y="542" type="line"/>
      <point x="203" y="542" type="line"/>
      <point x="203" y="660" type="line"/>
      <point x="94" y="660" type="line"/>
    </contour>
    <contour>
      <point x="490" y="5" type="curve" smooth="yes"/>
      <point x="490" y="449" type="line"/>
      <point x="302" y="449" type="line"/>
      <point x="302" y="366" type="line"/>
      <point x="383" y="366" type="line"/>
      <point x="383" y="5" type="line" smooth="yes"/>
      <point x="383" y="-139"/>
      <point x="330" y="-150"/>
      <point x="275" y="-150" type="curve"/>
      <point x="278" y="-223" type="line"/>
      <point x="428" y="-237"/>
      <point x="490" y="-165"/>
    </contour>
    <contour>
      <point x="381" y="542" type="line"/>
      <point x="490" y="542" type="line"/>
      <point x="490" y="660" type="line"/>
      <point x="381" y="660" type="line"/>
    </contour>
  </outline>
</glyph>
<glyph name="Jcircumflex" format="1">
  <advance width="475"/>
  <unicode hex="0134"/>
  <outline>
    <contour>
      <point x="442" y="555" type="line"/>
      <point x="442" y="650" type="line"/>
      <point x="147" y="650" type="line"/>
      <point x="147" y="555" type="line"/>
      <point x="267" y="555" type="line"/>
      <point x="267" y="177" type="line" smooth="yes"/>
      <point x="267" y="128"/>
      <point x="242" y="93"/>
      <point x="182" y="93" type="curve" smooth="yes"/>
      <point x="145" y="93"/>
      <point x="113" y="106"/>
      <point x="88" y="163" type="curve"/>
      <point x="10" y="104" type="line"/>
      <point x="38" y="41"/>
      <point x="91" y="-10"/>
      <point x="192" y="-10" type="curve" smooth="yes"/>
      <point x="305" y="-10"/>
      <point x="378" y="52"/>
      <point x="378" y="178" type="curve" smooth="yes"/>
      <point x="378" y="555" type="line"/>
    </contour>
    <contour>
      <point x="453" y="737" type="line"/>
      <point x="321" y="837" type="line"/>
      <point x="285" y="837" type="line"/>
      <point x="153" y="736" type="line"/>
      <point x="178" y="691" type="line"/>
      <point x="299" y="752" type="line"/>
      <point x="428" y="691" type="line"/>
    </contour>
  </outline>
</glyph>
<glyph name="jcircumflex" format="1">
  <advance width="260"/>
  <unicode hex="0135"/>
  <outline>
    <contour>
      <point x="10" y="449" type="line"/>
      <point x="198" y="449" type="line"/>
      <point x="198" y="5" type="line" smooth="yes"/>
      <point x="198" y="-165"/>
      <point x="136" y="-237"/>
      <point x="-14" y="-223" type="curve"/>
      <point x="-17" y="-150" type="line"/>
      <point x="38" y="-150"/>
      <point x="91" y="-139"/>
      <point x="91" y="5" type="curve" smooth="yes"/>
      <point x="91" y="366" type="line"/>
      <point x="10" y="366" type="line"/>
    </contour>
    <contour>
      <point x="273" y="556" type="line"/>
      <point x="143" y="679" type="line"/>
      <point x="107" y="679" type="line"/>
      <point x="-23" y="555" type="line"/>
      <point x="8" y="512" type="line"/>
      <point x="116" y="586" type="line"/>
      <point x="242" y="512" type="line"/>
    </contour>
  </outline>
</glyph>
<glyph name="Lacute" format="1">
  <advance width="553"/>
  <unicode hex="0139"/>
  <outline>
    <contour>
      <point x="308" y="727" type="line"/>
      <point x="283" y="826" type="line"/>
      <point x="85" y="743" type="line"/>
      <point x="99" y="694" type="line"/>
    </contour>
    <contour>
      <point x="521" y="0" type="line"/>
      <point x="541" y="222" type="line"/>
      <point x="446" y="230" type="line"/>
      <point x="426" y="95" type="line"/>
      <point x="226" y="95" type="line"/>
      <point x="226" y="555" type="line"/>
      <point x="323" y="555" type="line"/>
      <point x="323" y="650" type="line"/>
      <point x="40" y="650" type="line"/>
      <point x="40" y="555" type="line"/>
      <point x="115" y="555" type="line"/>
      <point x="115" y="95" type="line"/>
      <point x="40" y="95" type="line"/>
      <point x="40" y="0" type="line"/>
    </contour>
  </outline>
</glyph>
<glyph name="lacute" format="1">
  <advance width="278"/>
  <unicode hex="013A"/>
  <outline>
    <contour>
      <point x="232" y="748" type="line"/>
      <point x="207" y="847" type="line"/>
      <point x="9" y="764" type="line"/>
      <point x="23" y="715" type="line"/>
    </contour>
    <contour>
      <point x="259" y="0" type="line"/>
      <point x="259" y="82" type="line"/>
      <point x="192" y="82" type="line"/>
      <point x="192" y="688" type="line"/>
      <point x="15" y="688" type="line"/>
      <point x="15" y="606" type="line"/>
      <point x="86" y="606" type="line"/>
      <point x="86" y="82" type="line"/>
      <point x="19" y="82" type="line"/>
      <point x="19" y="0" type="line"/>
    </contour>
  </outline>
</glyph>
<glyph name="Lcommaaccent" format="1">
  <advance width="553"/>
  <unicode hex="013B"/>
  <outline>
    <contour>
      <point x="360" y="-60" type="line"/>
      <point x="259" y="-60" type="line"/>
      <point x="254" y="-215" type="line"/>
      <point x="337" y="-215" type="line"/>
    </contour>
    <contour>
      <point x="521" y="0" type="line"/>
      <point x="541" y="222" type="line"/>
      <point x="446" y="230" type="line"/>
      <point x="426" y="95" type="line"/>
      <point x="226" y="95" type="line"/>
      <point x="226" y="555" type="line"/>
      <point x="323" y="555" type="line"/>
      <point x="323" y="650" type="line"/>
      <point x="40" y="650" type="line"/>
      <point x="40" y="555" type="line"/>
      <point x="115" y="555" type="line"/>
      <point x="115" y="95" type="line"/>
      <point x="40" y="95" type="line"/>
      <point x="40" y="0" type="line"/>
    </contour>
  </outline>
</glyph>
<glyph name="Lcaron" format="1">
  <advance width="553"/>
  <unicode hex="013D"/>
  <outline>
    <contour>
      <point x="476" y="682" type="line"/>
      <point x="376" y="682" type="line"/>
      <point x="363" y="458" type="line"/>
      <point x="445" y="458" type="line"/>
    </contour>
    <contour>
      <point x="520" y="0" type="line"/>
      <point x="540" y="222" type="line"/>
      <point x="445" y="230" type="line"/>
      <point x="425" y="95" type="line"/>
      <point x="225" y="95" type="line"/>
      <point x="225" y="555" type="line"/>
      <point x="322" y="555" type="line"/>
      <point x="322" y="650" type="line"/>
      <point x="39" y="650" type="line"/>
      <point x="39" y="555" type="line"/>
      <point x="114" y="555" type="line"/>
      <point x="114" y="95" type="line"/>
      <point x="39" y="95" type="line"/>
      <point x="39" y="0" type="line"/>
    </contour>
  </outline>
</glyph>
<glyph name="ldot" format="1">
  <advance width="315"/>
  <unicode hex="0140"/>
  <outline>
    <contour>
      <point x="259" y="0" type="line"/>
      <point x="259" y="82" type="line"/>
      <point x="192" y="82" type="line"/>
      <point x="192" y="688" type="line"/>
      <point x="15" y="688" type="line"/>
      <point x="15" y="606" type="line"/>
      <point x="86" y="606" type="line"/>
      <point x="86" y="82" type="line"/>
      <point x="19" y="82" type="line"/>
      <point x="19" y="0" type="line"/>
    </contour>
    <contour>
      <point x="239" y="279" type="line"/>
      <point x="348" y="279" type="line"/>
      <point x="348" y="397" type="line"/>
      <point x="239" y="397" type="line"/>
    </contour>
  </outline>
</glyph>
<glyph name="Lslash" format="1">
  <advance width="555"/>
  <unicode hex="0141"/>
  <outline>
    <contour>
      <point x="523" y="0" type="line"/>
      <point x="543" y="222" type="line"/>
      <point x="448" y="230" type="line"/>
      <point x="428" y="95" type="line"/>
      <point x="228" y="95" type="line"/>
      <point x="228" y="298" type="line"/>
      <point x="379" y="350" type="line"/>
      <point x="379" y="434" type="line"/>
      <point x="228" y="382" type="line"/>
      <point x="228" y="555" type="line"/>
      <point x="325" y="555" type="line"/>
      <point x="325" y="650" type="line"/>
      <point x="42" y="650" type="line"/>
      <point x="42" y="555" type="line"/>
      <point x="117" y="555" type="line"/>
      <point x="117" y="344" type="line"/>
      <point x="44" y="319" type="line"/>
      <point x="44" y="235" type="line"/>
      <point x="117" y="260" type="line"/>
      <point x="117" y="95" type="line"/>
      <point x="42" y="95" type="line"/>
      <point x="42" y="0" type="line"/>
    </contour>
  </outline>
</glyph>
<glyph name="lslash" format="1">
  <advance width="286"/>
  <unicode hex="0142"/>
  <outline>
    <contour>
      <point x="13" y="232" type="line"/>
      <point x="90" y="267" type="line"/>
      <point x="90" y="82" type="line"/>
      <point x="23" y="82" type="line"/>
      <point x="23" y="0" type="line"/>
      <point x="263" y="0" type="line"/>
      <point x="263" y="82" type="line"/>
      <point x="196" y="82" type="line"/>
      <point x="196" y="316" type="line"/>
      <point x="270" y="350" type="line"/>
      <point x="270" y="434" type="line"/>
      <point x="196" y="400" type="line"/>
      <point x="196" y="688" type="line"/>
      <point x="19" y="688" type="line"/>
      <point x="19" y="606" type="line"/>
      <point x="90" y="606" type="line"/>
      <point x="90" y="351" type="line"/>
      <point x="13" y="316" type="line"/>
    </contour>
  </outline>
</glyph>
<glyph name="Ncaron" format="1">
  <advance width="752"/>
  <unicode hex="0147"/>
  <outline>
    <contour>
      <point x="518" y="791" type="line"/>
      <point x="492" y="837" type="line"/>
      <point x="373" y="776" type="line"/>
      <point x="243" y="836" type="line"/>
      <point x="218" y="791" type="line"/>
      <point x="350" y="691" type="line"/>
      <point x="386" y="691" type="line"/>
    </contour>
    <contour>
      <point x="722" y="555" type="line"/>
      <point x="722" y="650" type="line"/>
      <point x="448" y="650" type="line"/>
      <point x="448" y="555" type="line"/>
      <point x="543" y="555" type="line"/>
      <point x="543" y="220" type="line"/>
      <point x="539" y="220" type="line"/>
      <point x="196" y="650" type="line"/>
      <point x="33" y="650" type="line"/>
      <point x="33" y="555" type="line"/>
      <point x="115" y="555" type="line"/>
      <point x="115" y="95" type="line"/>
      <point x="43" y="95" type="line"/>
      <point x="43" y="0" type="line"/>
      <point x="314" y="0" type="line"/>
      <point x="314" y="95" type="line"/>
      <point x="219" y="95" type="line"/>
      <point x="219" y="450" type="line"/>
      <point x="223" y="450" type="line"/>
      <point x="583" y="-1" type="line"/>
      <point x="647" y="0" type="line"/>
      <point x="647" y="555" type="line"/>
    </contour>
  </outline>
</glyph>
<glyph name="Eng" format="1">
  <advance width="752"/>
  <unicode hex="014A"/>
  <outline>
    <contour>
      <point x="722" y="555" type="line"/>
      <point x="722" y="650" type="line"/>
      <point x="448" y="650" type="line"/>
      <point x="448" y="555" type="line"/>
      <point x="543" y="555" type="line"/>
      <point x="543" y="220" type="line"/>
      <point x="539" y="220" type="line"/>
      <point x="196" y="650" type="line"/>
      <point x="33" y="650" type="line"/>
      <point x="33" y="555" type="line"/>
      <point x="115" y="555" type="line"/>
      <point x="115" y="95" type="line"/>
      <point x="43" y="95" type="line"/>
      <point x="43" y="0" type="line"/>
      <point x="314" y="0" type="line"/>
      <point x="314" y="95" type="line"/>
      <point x="219" y="95" type="line"/>
      <point x="219" y="450" type="line"/>
      <point x="223" y="450" type="line"/>
      <point x="536" y="58" type="line"/>
      <point x="536" y="-12" type="line" smooth="yes"/>
      <point x="536" y="-62"/>
      <point x="512" y="-96"/>
      <point x="451" y="-96" type="curve" smooth="yes"/>
      <point x="415" y="-96"/>
      <point x="382" y="-83"/>
      <point x="358" y="-26" type="curve"/>
      <point x="279" y="-85" type="line"/>
      <point x="307" y="-149"/>
      <point x="360" y="-199"/>
      <point x="462" y="-199" type="curve" smooth="yes"/>
      <point x="574" y="-199"/>
      <point x="647" y="-137"/>
      <point x="647" y="-11" type="curve" smooth="yes"/>
      <point x="647" y="555" type="line"/>
    </contour>
  </outline>
</glyph>
<glyph name="eng" format="1">
  <advance width="563"/>
  <unicode hex="014B"/>
  <outline>
    <contour>
      <point x="29" y="82" type="line"/>
      <point x="96" y="82" type="line"/>
      <point x="96" y="366" type="line"/>
      <point x="26" y="366" type="line"/>
      <point x="26" y="449" type="line"/>
      <point x="203" y="449" type="line"/>
      <point x="203" y="375" type="line"/>
      <point x="232" y="427"/>
      <point x="284" y="458"/>
      <point x="352" y="458" type="curve" smooth="yes"/>
      <point x="438" y="458"/>
      <point x="508" y="408"/>
      <point x="508" y="297" type="curve" smooth="yes"/>
      <point x="508" y="0" type="line"/>
      <point x="507" y="-166"/>
      <point x="444" y="-237"/>
      <point x="296" y="-223" type="curve"/>
      <point x="293" y="-150" type="line"/>
      <point x="347" y="-150"/>
      <point x="400" y="-139"/>
      <point x="401" y="0" type="curve"/>
      <point x="401" y="258" type="line" smooth="yes"/>
      <point x="401" y="343"/>
      <point x="369" y="375"/>
      <point x="314" y="375" type="curve" smooth="yes"/>
      <point x="245" y="375"/>
      <point x="203" y="323"/>
      <point x="203" y="258" type="curve" smooth="yes"/>
      <point x="203" y="82" type="line"/>
      <point x="270" y="82" type="line"/>
      <point x="270" y="0" type="line"/>
      <point x="29" y="0" type="line"/>
    </contour>
  </outline>
</glyph>
<glyph name="Omacron" format="1">
  <advance width="718"/>
  <unicode hex="014C"/>
  <outline>
    <contour>
      <point x="519" y="726" type="line"/>
      <point x="519" y="808" type="line"/>
      <point x="222" y="808" type="line"/>
      <point x="222" y="726" type="line"/>
    </contour>
    <contour>
      <point x="689" y="326" type="curve" smooth="yes"/>
      <point x="689" y="509"/>
      <point x="563" y="660"/>
      <point x="360" y="660" type="curve" smooth="yes"/>
      <point x="160" y="660"/>
      <point x="30" y="513"/>
      <point x="30" y="324" type="curve" smooth="yes"/>
      <point x="30" y="142"/>
      <point x="151" y="-10"/>
      <point x="357" y="-10" type="curve" smooth="yes"/>
      <point x="562" y="-10"/>
      <point x="689" y="142"/>
    </contour>
    <contour>
      <point x="569" y="323" type="curve" smooth="yes"/>
      <point x="569" y="187"/>
      <point x="499" y="88"/>
      <point x="362" y="88" type="curve" smooth="yes"/>
      <point x="217" y="88"/>
      <point x="150" y="198"/>
      <point x="150" y="327" type="curve" smooth="yes"/>
      <point x="150" y="460"/>
      <point x="220" y="562"/>
      <point x="359" y="562" type="curve" smooth="yes"/>
      <point x="491" y="562"/>
      <point x="569" y="468"/>
    </contour>
  </outline>
</glyph>
<glyph name="Obreve" format="1">
  <advance width="718"/>
  <unicode hex="014E"/>
  <outline>
    <contour>
      <point x="502" y="827" type="curve"/>
      <point x="417" y="827" type="line"/>
      <point x="417" y="788"/>
      <point x="403" y="762"/>
      <point x="369" y="762" type="curve" smooth="yes"/>
      <point x="337" y="762"/>
      <point x="322" y="784"/>
      <point x="322" y="827" type="curve"/>
      <point x="237" y="827" type="line"/>
      <point x="237" y="739"/>
      <point x="284" y="696"/>
      <point x="369" y="696" type="curve" smooth="yes"/>
      <point x="452" y="696"/>
      <point x="502" y="736"/>
    </contour>
    <contour>
      <point x="689" y="326" type="curve" smooth="yes"/>
      <point x="689" y="509"/>
      <point x="563" y="660"/>
      <point x="360" y="660" type="curve" smooth="yes"/>
      <point x="160" y="660"/>
      <point x="30" y="513"/>
      <point x="30" y="324" type="curve" smooth="yes"/>
      <point x="30" y="142"/>
      <point x="151" y="-10"/>
      <point x="357" y="-10" type="curve" smooth="yes"/>
      <point x="562" y="-10"/>
      <point x="689" y="142"/>
    </contour>
    <contour>
      <point x="569" y="323" type="curve" smooth="yes"/>
      <point x="569" y="187"/>
      <point x="499" y="88"/>
      <point x="362" y="88" type="curve" smooth="yes"/>
      <point x="217" y="88"/>
      <point x="150" y="198"/>
      <point x="150" y="327" type="curve" smooth="yes"/>
      <point x="150" y="460"/>
      <point x="220" y="562"/>
      <point x="359" y="562" type="curve" smooth="yes"/>
      <point x="491" y="562"/>
      <point x="569" y="468"/>
    </contour>
  </outline>
</glyph>
<glyph name="oe" format="1">
  <advance width="829"/>
  <unicode hex="0153"/>
  <outline>
    <contour>
      <point x="802" y="137" type="curve"/>
      <point x="713" y="154" type="line"/>
      <point x="704" y="116"/>
      <point x="678" y="76"/>
      <point x="609" y="76" type="curve" smooth="yes"/>
      <point x="539" y="76"/>
      <point x="500" y="115"/>
      <point x="490" y="187" type="curve"/>
      <point x="491" y="192"/>
      <point x="492" y="197"/>
      <point x="492" y="202" type="curve"/>
      <point x="792" y="202" type="line"/>
      <point x="796" y="223"/>
      <point x="798" y="243"/>
      <point x="798" y="262" type="curve" smooth="yes"/>
      <point x="797" y="375"/>
      <point x="719" y="458"/>
      <point x="595" y="458" type="curve" smooth="yes"/>
      <point x="526" y="458"/>
      <point x="472" y="432"/>
      <point x="434" y="389" type="curve"/>
      <point x="395" y="432"/>
      <point x="337" y="459"/>
      <point x="260" y="459" type="curve" smooth="yes"/>
      <point x="105" y="459"/>
      <point x="26" y="351"/>
      <point x="26" y="220" type="curve" smooth="yes"/>
      <point x="26" y="79"/>
      <point x="117" y="-10"/>
      <point x="254" y="-10" type="curve" smooth="yes"/>
      <point x="326" y="-10"/>
      <point x="387" y="15"/>
      <point x="430" y="58" type="curve"/>
      <point x="470" y="13"/>
      <point x="530" y="-10"/>
      <point x="601" y="-10" type="curve" smooth="yes"/>
      <point x="723" y="-10"/>
      <point x="794" y="58"/>
    </contour>
    <contour>
      <point x="377" y="217" type="curve" smooth="yes"/>
      <point x="377" y="206"/>
      <point x="377" y="195"/>
      <point x="378" y="185" type="curve"/>
      <point x="366" y="117"/>
      <point x="322" y="74"/>
      <point x="258" y="74" type="curve" smooth="yes"/>
      <point x="178" y="74"/>
      <point x="137" y="141"/>
      <point x="137" y="226" type="curve" smooth="yes"/>
      <point x="137" y="316"/>
      <point x="182" y="375"/>
      <point x="258" y="375" type="curve" smooth="yes"/>
      <point x="322" y="375"/>
      <point x="369" y="334"/>
      <point x="379" y="259" type="curve"/>
      <point x="377" y="246"/>
      <point x="377" y="231"/>
    </contour>
    <contour>
      <point x="688" y="268" type="curve"/>
      <point x="490" y="268" type="line"/>
      <point x="498" y="331"/>
      <point x="530" y="379"/>
      <point x="594" y="379" type="curve" smooth="yes"/>
      <point x="665" y="379"/>
      <point x="694" y="321"/>
    </contour>
  </outline>
</glyph>
<glyph name="rcaron" format="1">
  <advance width="433"/>
  <unicode hex="0159"/>
  <outline>
    <contour>
      <point x="388" y="635" type="line"/>
      <point x="357" y="679" type="line"/>
      <point x="248" y="605" type="line"/>
      <point x="123" y="678" type="line"/>
      <point x="92" y="635" type="line"/>
      <point x="222" y="512" type="line"/>
      <point x="258" y="512" type="line"/>
    </contour>
    <contour>
      <point x="303" y="456" type="curve" smooth="yes"/>
      <point x="246" y="456"/>
      <point x="211" y="416"/>
      <point x="195" y="365" type="curve"/>
      <point x="195" y="449" type="line"/>
      <point x="26" y="449" type="line"/>
      <point x="26" y="366" type="line"/>
      <point x="96" y="366" type="line"/>
      <point x="96" y="82" type="line"/>
      <point x="29" y="82" type="line"/>
      <point x="29" y="0" type="line"/>
      <point x="292" y="0" type="line"/>
      <point x="292" y="82" type="line"/>
      <point x="203" y="82" type="line"/>
      <point x="203" y="281" type="line" smooth="yes"/>
      <point x="203" y="335"/>
      <point x="234" y="368"/>
      <point x="272" y="368" type="curve" smooth="yes"/>
      <point x="284" y="368"/>
      <point x="294" y="364"/>
      <point x="306" y="358" type="curve"/>
      <point x="323" y="281" type="line"/>
      <point x="406" y="291" type="line"/>
      <point x="387" y="431" type="line"/>
      <point x="359" y="449"/>
      <point x="330" y="456"/>
    </contour>
  </outline>
</glyph>
<glyph name="Scedilla" format="1">
  <advance width="548"/>
  <unicode hex="015E"/>
  <outline>
    <contour>
      <point x="411" y="-122" type="curve" smooth="yes"/>
      <point x="411" y="-82"/>
      <point x="387" y="-43"/>
      <point x="322" y="-43" type="curve" smooth="yes"/>
      <point x="314" y="-43" type="line"/>
      <point x="314" y="-7" type="line"/>
      <point x="435" y="6"/>
      <point x="512" y="75"/>
      <point x="512" y="191" type="curve" smooth="yes"/>
      <point x="512" y="351"/>
      <point x="372" y="369"/>
      <point x="290" y="387" type="curve" smooth="yes"/>
      <point x="226" y="402"/>
      <point x="165" y="417"/>
      <point x="165" y="482" type="curve" smooth="yes"/>
      <point x="165" y="538"/>
      <point x="211" y="562"/>
      <point x="274" y="562" type="curve" smooth="yes"/>
      <point x="309" y="562"/>
      <point x="347" y="556"/>
      <point x="384" y="534" type="curve"/>
      <point x="393" y="450" type="line"/>
      <point x="482" y="458" type="line"/>
      <point x="476" y="595" type="line"/>
      <point x="434" y="634"/>
      <point x="351" y="660"/>
      <point x="271" y="660" type="curve" smooth="yes"/>
      <point x="156" y="660"/>
      <point x="46" y="605"/>
      <point x="46" y="469" type="curve" smooth="yes"/>
      <point x="46" y="333"/>
      <point x="155" y="310"/>
      <point x="248" y="292" type="curve" smooth="yes"/>
      <point x="324" y="277"/>
      <point x="393" y="261"/>
      <point x="393" y="179" type="curve" smooth="yes"/>
      <point x="393" y="104"/>
      <point x="335" y="86"/>
      <point x="258" y="86" type="curve" smooth="yes"/>
      <point x="226" y="86"/>
      <point x="190" y="89"/>
      <point x="146" y="112" type="curve"/>
      <point x="148" y="192" type="line"/>
      <point x="59" y="201" type="line"/>
      <point x="41" y="52" type="line"/>
      <point x="84" y="16"/>
      <point x="161" y="-5"/>
      <point x="240" y="-9" type="curve"/>
      <point x="240" y="-84" type="line"/>
      <point x="274" y="-84" type="line" smooth="yes"/>
      <point x="306" y="-84"/>
      <point x="320" y="-93"/>
      <point x="320" y="-115" type="curve" smooth="yes"/>
      <point x="320" y="-135"/>
      <point x="307" y="-143"/>
      <point x="278" y="-143" type="curve" smooth="yes"/>
      <point x="244" y="-143"/>
      <point x="218" y="-131"/>
      <point x="202" y="-120" type="curve"/>
      <point x="181" y="-179" type="line"/>
      <point x="204" y="-198"/>
      <point x="245" y="-209"/>
      <point x="290" y="-209" type="curve" smooth="yes"/>
      <point x="351" y="-209"/>
      <point x="411" y="-187"/>
    </contour>
  </outline>
</glyph>
<glyph name="scedilla" format="1">
  <advance width="451"/>
  <unicode hex="015F"/>
  <outline>
    <contour>
      <point x="360" y="-122" type="curve" smooth="yes"/>
      <point x="360" y="-82"/>
      <point x="336" y="-43"/>
      <point x="271" y="-43" type="curve" smooth="yes"/>
      <point x="263" y="-43" type="line"/>
      <point x="263" y="-7" type="line"/>
      <point x="357" y="4"/>
      <point x="421" y="52"/>
      <point x="421" y="134" type="curve" smooth="yes"/>
      <point x="421" y="310"/>
      <point x="153" y="234"/>
      <point x="153" y="326" type="curve" smooth="yes"/>
      <point x="153" y="362"/>
      <point x="185" y="378"/>
      <point x="227" y="378" type="curve" smooth="yes"/>
      <point x="254" y="378"/>
      <point x="280" y="373"/>
      <point x="306" y="363" type="curve"/>
      <point x="315" y="296" type="line"/>
      <point x="399" y="306" type="line"/>
      <point x="388" y="417" type="line"/>
      <point x="339" y="443"/>
      <point x="285" y="458"/>
      <point x="224" y="458" type="curve" smooth="yes"/>
      <point x="136" y="458"/>
      <point x="39" y="426"/>
      <point x="39" y="322" type="curve" smooth="yes"/>
      <point x="39" y="145"/>
      <point x="313" y="222"/>
      <point x="313" y="128" type="curve" smooth="yes"/>
      <point x="313" y="89"/>
      <point x="265" y="70"/>
      <point x="211" y="70" type="curve" smooth="yes"/>
      <point x="189" y="70"/>
      <point x="157" y="74"/>
      <point x="132" y="84" type="curve"/>
      <point x="133" y="142" type="line"/>
      <point x="49" y="150" type="line"/>
      <point x="33" y="34" type="line"/>
      <point x="77" y="9"/>
      <point x="133" y="-5"/>
      <point x="189" y="-9" type="curve"/>
      <point x="189" y="-84" type="line"/>
      <point x="223" y="-84" type="line" smooth="yes"/>
      <point x="255" y="-84"/>
      <point x="269" y="-93"/>
      <point x="269" y="-115" type="curve" smooth="yes"/>
      <point x="269" y="-135"/>
      <point x="256" y="-143"/>
      <point x="227" y="-143" type="curve" smooth="yes"/>
      <point x="193" y="-143"/>
      <point x="167" y="-131"/>
      <point x="151" y="-120" type="curve"/>
      <point x="130" y="-179" type="line"/>
      <point x="153" y="-198"/>
      <point x="194" y="-209"/>
      <point x="239" y="-209" type="curve" smooth="yes"/>
      <point x="300" y="-209"/>
      <point x="360" y="-187"/>
    </contour>
  </outline>
</glyph>
<glyph name="Tcaron" format="1">
  <advance width="640"/>
  <unicode hex="0164"/>
  <outline>
    <contour>
      <point x="467" y="791" type="line"/>
      <point x="441" y="837" type="line"/>
      <point x="322" y="776" type="line"/>
      <point x="192" y="836" type="line"/>
      <point x="167" y="791" type="line"/>
      <point x="299" y="691" type="line"/>
      <point x="335" y="691" type="line"/>
    </contour>
    <contour>
      <point x="618" y="438" type="line"/>
      <point x="598" y="650" type="line"/>
      <point x="41" y="650" type="line"/>
      <point x="21" y="438" type="line"/>
      <point x="116" y="430" type="line"/>
      <point x="136" y="555" type="line"/>
      <point x="264" y="555" type="line"/>
      <point x="264" y="95" type="line"/>
      <point x="159" y="95" type="line"/>
      <point x="159" y="0" type="line"/>
      <point x="484" y="0" type="line"/>
      <point x="484" y="95" type="line"/>
      <point x="375" y="95" type="line"/>
      <point x="375" y="555" type="line"/>
      <point x="502" y="555" type="line"/>
      <point x="522" y="430" type="line"/>
    </contour>
  </outline>
</glyph>
<glyph name="Utilde" format="1">
  <advance width="718"/>
  <unicode hex="0168"/>
  <outline>
    <contour>
      <point x="518" y="812" type="curve"/>
      <point x="471" y="822" type="line"/>
      <point x="461" y="790"/>
      <point x="442" y="782"/>
      <point x="423" y="782" type="curve" smooth="yes"/>
      <point x="384" y="782"/>
      <point x="351" y="815"/>
      <point x="307" y="815" type="curve" smooth="yes"/>
      <point x="245" y="815"/>
      <point x="222" y="751"/>
      <point x="222" y="716" type="curve"/>
      <point x="266" y="701" type="line"/>
      <point x="274" y="729"/>
      <point x="290" y="736"/>
      <point x="311" y="736" type="curve" smooth="yes"/>
      <point x="354" y="736"/>
      <point x="386" y="704"/>
      <point x="435" y="704" type="curve" smooth="yes"/>
      <point x="496" y="704"/>
      <point x="514" y="755"/>
    </contour>
    <contour>
      <point x="688" y="555" type="line"/>
      <point x="688" y="650" type="line"/>
      <point x="441" y="650" type="line"/>
      <point x="441" y="555" type="line"/>
      <point x="524" y="555" type="line"/>
      <point x="524" y="268" type="line" smooth="yes"/>
      <point x="524" y="155"/>
      <point x="471" y="88"/>
      <point x="362" y="88" type="curve" smooth="yes"/>
      <point x="250" y="88"/>
      <point x="204" y="157"/>
      <point x="204" y="260" type="curve" smooth="yes"/>
      <point x="204" y="555" type="line"/>
      <point x="285" y="555" type="line"/>
      <point x="285" y="650" type="line"/>
      <point x="31" y="650" type="line"/>
      <point x="31" y="555" type="line"/>
      <point x="93" y="555" type="line"/>
      <point x="93" y="257" type="line" smooth="yes"/>
      <point x="93" y="117"/>
      <point x="160" y="-10"/>
      <point x="356" y="-10" type="curve" smooth="yes"/>
      <point x="561" y="-10"/>
      <point x="628" y="130"/>
      <point x="628" y="268" type="curve" smooth="yes"/>
      <point x="628" y="555" type="line"/>
    </contour>
  </outline>
</glyph>
<glyph name="utilde" format="1">
  <advance width="576"/>
  <unicode hex="0169"/>
  <outline>
    <contour>
      <point x="561" y="0" type="line"/>
      <point x="561" y="82" type="line"/>
      <point x="491" y="82" type="line"/>
      <point x="491" y="449" type="line"/>
      <point x="304" y="449" type="line"/>
      <point x="304" y="367" type="line"/>
      <point x="384" y="367" type="line"/>
      <point x="384" y="192" type="line"/>
      <point x="383" y="128"/>
      <point x="341" y="74"/>
      <point x="274" y="74" type="curve" smooth="yes"/>
      <point x="218" y="74"/>
      <point x="186" y="106"/>
      <point x="186" y="191" type="curve" smooth="yes"/>
      <point x="186" y="449" type="line"/>
      <point x="12" y="449" type="line"/>
      <point x="12" y="367" type="line"/>
      <point x="79" y="367" type="line"/>
      <point x="79" y="152" type="line" smooth="yes"/>
      <point x="79" y="40"/>
      <point x="150" y="-9"/>
      <point x="236" y="-9" type="curve" smooth="yes"/>
      <point x="303" y="-9"/>
      <point x="356" y="22"/>
      <point x="384" y="75" type="curve"/>
      <point x="384" y="0" type="line"/>
    </contour>
    <contour>
      <point x="426" y="647" type="curve"/>
      <point x="379" y="657" type="line"/>
      <point x="369" y="625"/>
      <point x="350" y="615"/>
      <point x="332" y="615" type="curve" smooth="yes"/>
      <point x="293" y="615"/>
      <point x="259" y="653"/>
      <point x="214" y="653" type="curve" smooth="yes"/>
      <point x="154" y="653"/>
      <point x="130" y="579"/>
      <point x="130" y="542" type="curve"/>
      <point x="174" y="528" type="line"/>
      <point x="183" y="558"/>
      <point x="199" y="571"/>
      <point x="221" y="571" type="curve" smooth="yes"/>
      <point x="260" y="571"/>
      <point x="294" y="531"/>
      <point x="345" y="531" type="curve" smooth="yes"/>
      <point x="404" y="531"/>
      <point x="423" y="590"/>
    </contour>
  </outline>
</glyph>
<glyph name="ubreve" format="1">
  <advance width="576"/>
  <unicode hex="016D"/>
  <outline>
    <contour>
      <point x="561" y="0" type="line"/>
      <point x="561" y="82" type="line"/>
      <point x="491" y="82" type="line"/>
      <point x="491" y="449" type="line"/>
      <point x="304" y="449" type="line"/>
      <point x="304" y="367" type="line"/>
      <point x="384" y="367" type="line"/>
      <point x="384" y="192" type="line"/>
      <point x="383" y="128"/>
      <point x="341" y="74"/>
      <point x="274" y="74" type="curve" smooth="yes"/>
      <point x="218" y="74"/>
      <point x="186" y="106"/>
      <point x="186" y="191" type="curve" smooth="yes"/>
      <point x="186" y="449" type="line"/>
      <point x="12" y="449" type="line"/>
      <point x="12" y="367" type="line"/>
      <point x="79" y="367" type="line"/>
      <point x="79" y="152" type="line" smooth="yes"/>
      <point x="79" y="40"/>
      <point x="150" y="-9"/>
      <point x="236" y="-9" type="curve" smooth="yes"/>
      <point x="303" y="-9"/>
      <point x="356" y="22"/>
      <point x="384" y="75" type="curve"/>
      <point x="384" y="0" type="line"/>
    </contour>
    <contour>
      <point x="401" y="654" type="curve"/>
      <point x="316" y="654" type="line"/>
      <point x="316" y="615"/>
      <point x="302" y="588"/>
      <point x="268" y="588" type="curve" smooth="yes"/>
      <point x="237" y="588"/>
      <point x="221" y="611"/>
      <point x="221" y="654" type="curve"/>
      <point x="136" y="654" type="line"/>
      <point x="136" y="566"/>
      <point x="182" y="522"/>
      <point x="267" y="522" type="curve" smooth="yes"/>
      <point x="349" y="522"/>
      <point x="401" y="563"/>
    </contour>
  </outline>
</glyph>
<glyph name="uogonek" format="1">
  <advance width="576"/>
  <unicode hex="0173"/>
  <outline>
    <contour>
      <point x="561" y="0" type="line"/>
      <point x="561" y="82" type="line"/>
      <point x="491" y="82" type="line"/>
      <point x="491" y="449" type="line"/>
      <point x="304" y="449" type="line"/>
      <point x="304" y="367" type="line"/>
      <point x="384" y="367" type="line"/>
      <point x="384" y="192" type="line"/>
      <point x="383" y="128"/>
      <point x="341" y="74"/>
      <point x="274" y="74" type="curve" smooth="yes"/>
      <point x="218" y="74"/>
      <point x="186" y="106"/>
      <point x="186" y="191" type="curve" smooth="yes"/>
      <point x="186" y="449" type="line"/>
      <point x="12" y="449" type="line"/>
      <point x="12" y="367" type="line"/>
      <point x="79" y="367" type="line"/>
      <point x="79" y="152" type="line" smooth="yes"/>
      <point x="79" y="40"/>
      <point x="150" y="-9"/>
      <point x="236" y="-9" type="curve" smooth="yes"/>
      <point x="303" y="-9"/>
      <point x="356" y="22"/>
      <point x="384" y="75" type="curve"/>
      <point x="384" y="0" type="line"/>
      <point x="433" y="0" type="line"/>
      <point x="392" y="-25"/>
      <point x="361" y="-66"/>
      <point x="361" y="-117" type="curve" smooth="yes"/>
      <point x="361" y="-179"/>
      <point x="410" y="-208"/>
      <point x="474" y="-208" type="curve" smooth="yes"/>
      <point x="509" y="-208"/>
      <point x="537" y="-200"/>
      <point x="559" y="-188" type="curve"/>
      <point x="551" y="-119" type="line"/>
      <point x="536" y="-128"/>
      <point x="518" y="-132"/>
      <point x="501" y="-132" type="curve" smooth="yes"/>
      <point x="474" y="-132"/>
      <point x="453" y="-121"/>
      <point x="453" y="-84" type="curve" smooth="yes"/>
      <point x="453" y="-57"/>
      <point x="463" y="-26"/>
      <point x="504" y="0" type="curve"/>
    </contour>
  </outline>
</glyph>
<glyph name="wcircumflex" format="1">
  <advance width="762"/>
  <unicode hex="0175"/>
  <outline>
    <contour>
      <point x="539" y="556" type="line"/>
      <point x="409" y="679" type="line"/>
      <point x="373" y="679" type="line"/>
      <point x="243" y="555" type="line"/>
      <point x="274" y="512" type="line"/>
      <point x="382" y="586" type="line"/>
      <point x="508" y="512" type="line"/>
    </contour>
    <contour>
      <point x="754" y="367" type="line"/>
      <point x="754" y="449" type="line"/>
      <point x="544" y="449" type="line"/>
      <point x="544" y="367" type="line"/>
      <point x="611" y="367" type="line"/>
      <point x="557" y="154" type="line"/>
      <point x="551" y="154" type="line"/>
      <point x="422" y="449" type="line"/>
      <point x="356" y="449" type="line"/>
      <point x="241" y="151" type="line"/>
      <point x="235" y="151" type="line"/>
      <point x="166" y="367" type="line"/>
      <point x="236" y="367" type="line"/>
      <point x="236" y="449" type="line"/>
      <point x="8" y="449" type="line"/>
      <point x="8" y="367" type="line"/>
      <point x="52" y="367" type="line"/>
      <point x="181" y="0" type="line"/>
      <point x="257" y="0" type="line"/>
      <point x="374" y="296" type="line"/>
      <point x="379" y="296" type="line"/>
      <point x="503" y="0" type="line"/>
      <point x="583" y="0" type="line"/>
      <point x="709" y="367" type="line"/>
    </contour>
  </outline>
</glyph>
<glyph name="Zacute" format="1">
  <advance width="584"/>
  <unicode hex="0179"/>
  <outline>
    <contour>
      <point x="536" y="0" type="line"/>
      <point x="559" y="212" type="line"/>
      <point x="464" y="222" type="line"/>
      <point x="441" y="95" type="line"/>
      <point x="184" y="95" type="line"/>
      <point x="184" y="97" type="line"/>
      <point x="538" y="597" type="line"/>
      <point x="536" y="650" type="line"/>
      <point x="65" y="650" type="line"/>
      <point x="43" y="451" type="line"/>
      <point x="137" y="442" type="line"/>
      <point x="160" y="555" type="line"/>
      <point x="376" y="555" type="line"/>
      <point x="376" y="553" type="line"/>
      <point x="25" y="59" type="line"/>
      <point x="28" y="0" type="line"/>
    </contour>
    <contour>
      <point x="452" y="727" type="line"/>
      <point x="427" y="826" type="line"/>
      <point x="229" y="743" type="line"/>
      <point x="243" y="694" type="line"/>
    </contour>
  </outline>
</glyph>
<glyph name="zdotaccent" format="1">
  <advance width="472"/>
  <unicode hex="017C"/>
  <outline>
    <contour>
      <point x="424" y="0" type="line"/>
      <point x="450" y="150" type="line"/>
      <point x="365" y="160" type="line"/>
      <point x="343" y="82" type="line"/>
      <point x="167" y="82" type="line"/>
      <point x="428" y="390" type="line"/>
      <point x="421" y="449" type="line"/>
      <point x="39" y="449" type="line"/>
      <point x="24" y="298" type="line"/>
      <point x="103" y="290" type="line"/>
      <point x="121" y="367" type="line"/>
      <point x="284" y="367" type="line"/>
      <point x="28" y="58" type="line"/>
      <point x="37" y="0" type="line"/>
    </contour>
    <contour>
      <point x="183" y="539" type="line"/>
      <point x="292" y="539" type="line"/>
      <point x="292" y="657" type="line"/>
      <point x="183" y="657" type="line"/>
    </contour>
  </outline>
</glyph>
<glyph name="uni018F" format="1">
  <advance width="686"/>
  <unicode hex="018F"/>
  <outline>
    <contour>
      <point x="139" y="436" type="line"/>
      <point x="154" y="526" type="line"/>
      <point x="204" y="548"/>
      <point x="261" y="560"/>
      <point x="316" y="560" type="curve" smooth="yes"/>
      <point x="434" y="560"/>
      <point x="518" y="496"/>
      <point x="534" y="360" type="curve"/>
      <point x="36" y="360" type="line"/>
      <point x="36" y="275" type="line" smooth="yes"/>
      <point x="36" y="99"/>
      <point x="153" y="-10"/>
      <point x="335" y="-10" type="curve" smooth="yes"/>
      <point x="552" y="-10"/>
      <point x="656" y="145"/>
      <point x="656" y="328" type="curve" smooth="yes"/>
      <point x="656" y="512"/>
      <point x="554" y="660"/>
      <point x="315" y="660" type="curve" smooth="yes"/>
      <point x="218" y="660"/>
      <point x="143" y="637"/>
      <point x="70" y="604" type="curve"/>
      <point x="53" y="446" type="line"/>
    </contour>
    <contour>
      <point x="536" y="280" type="line"/>
      <point x="528" y="177"/>
      <point x="478" y="88"/>
      <point x="340" y="88" type="curve" smooth="yes"/>
      <point x="183" y="88"/>
      <point x="157" y="204"/>
      <point x="157" y="276" type="curve" smooth="yes"/>
      <point x="157" y="280" type="line"/>
    </contour>
  </outline>
</glyph>
<glyph name="uni01C9" format="1">
  <advance width="538"/>
  <unicode hex="01C9"/>
  <outline>
    <contour>
      <point x="476" y="5" type="curve" smooth="yes"/>
      <point x="476" y="449" type="line"/>
      <point x="288" y="449" type="line"/>
      <point x="288" y="366" type="line"/>
      <point x="369" y="366" type="line"/>
      <point x="369" y="5" type="line" smooth="yes"/>
      <point x="369" y="-139"/>
      <point x="316" y="-150"/>
      <point x="261" y="-150" type="curve"/>
      <point x="264" y="-223" type="line"/>
      <point x="414" y="-237"/>
      <point x="476" y="-165"/>
    </contour>
    <contour>
      <point x="367" y="542" type="line"/>
      <point x="476" y="542" type="line"/>
      <point x="476" y="660" type="line"/>
      <point x="367" y="660" type="line"/>
    </contour>
    <contour>
      <point x="259" y="0" type="line"/>
      <point x="259" y="82" type="line"/>
      <point x="192" y="82" type="line"/>
      <point x="192" y="688" type="line"/>
      <point x="15" y="688" type="line"/>
      <point x="15" y="606" type="line"/>
      <point x="86" y="606" type="line"/>
      <point x="86" y="82" type="line"/>
      <point x="19" y="82" type="line"/>
      <point x="19" y="0" type="line"/>
    </contour>
  </outline>
</glyph>
<glyph name="uni01CA" format="1">
  <advance width="1215"/>
  <unicode hex="01CA"/>
  <outline>
    <contour>
      <point x="1182" y="555" type="line"/>
      <point x="1182" y="650" type="line"/>
      <point x="887" y="650" type="line"/>
      <point x="887" y="555" type="line"/>
      <point x="1007" y="555" type="line"/>
      <point x="1007" y="177" type="line" smooth="yes"/>
      <point x="1007" y="128"/>
      <point x="982" y="93"/>
      <point x="922" y="93" type="curve" smooth="yes"/>
      <point x="885" y="93"/>
      <point x="853" y="106"/>
      <point x="828" y="163" type="curve"/>
      <point x="750" y="104" type="line"/>
      <point x="778" y="41"/>
      <point x="831" y="-10"/>
      <point x="932" y="-10" type="curve" smooth="yes"/>
      <point x="1045" y="-10"/>
      <point x="1118" y="52"/>
      <point x="1118" y="178" type="curve" smooth="yes"/>
      <point x="1118" y="555" type="line"/>
    </contour>
    <contour>
      <point x="722" y="555" type="line"/>
      <point x="722" y="650" type="line"/>
      <point x="448" y="650" type="line"/>
      <point x="448" y="555" type="line"/>
      <point x="543" y="555" type="line"/>
      <point x="543" y="220" type="line"/>
      <point x="539" y="220" type="line"/>
      <point x="196" y="650" type="line"/>
      <point x="33" y="650" type="line"/>
      <point x="33" y="555" type="line"/>
      <point x="115" y="555" type="line"/>
      <point x="115" y="95" type="line"/>
      <point x="43" y="95" type="line"/>
      <point x="43" y="0" type="line"/>
      <point x="314" y="0" type="line"/>
      <point x="314" y="95" type="line"/>
      <point x="219" y="95" type="line"/>
      <point x="219" y="450" type="line"/>
      <point x="223" y="450" type="line"/>
      <point x="583" y="-1" type="line"/>
      <point x="647" y="0" type="line"/>
      <point x="647" y="555" type="line"/>
    </contour>
  </outline>
</glyph>
<glyph name="uni01CC" format="1">
  <advance width="843"/>
  <unicode hex="01CC"/>
  <outline>
    <contour>
      <point x="781" y="5" type="curve" smooth="yes"/>
      <point x="781" y="449" type="line"/>
      <point x="593" y="449" type="line"/>
      <point x="593" y="366" type="line"/>
      <point x="674" y="366" type="line"/>
      <point x="674" y="5" type="line" smooth="yes"/>
      <point x="674" y="-139"/>
      <point x="621" y="-150"/>
      <point x="566" y="-150" type="curve"/>
      <point x="569" y="-223" type="line"/>
      <point x="719" y="-237"/>
      <point x="781" y="-165"/>
    </contour>
    <contour>
      <point x="672" y="542" type="line"/>
      <point x="781" y="542" type="line"/>
      <point x="781" y="660" type="line"/>
      <point x="672" y="660" type="line"/>
    </contour>
    <contour>
      <point x="575" y="0" type="line"/>
      <point x="575" y="82" type="line"/>
      <point x="508" y="82" type="line"/>
      <point x="508" y="297" type="line" smooth="yes"/>
      <point x="508" y="408"/>
      <point x="438" y="458"/>
      <point x="352" y="458" type="curve" smooth="yes"/>
      <point x="284" y="458"/>
      <point x="232" y="427"/>
      <point x="203" y="376" type="curve"/>
      <point x="203" y="449" type="line"/>
      <point x="26" y="449" type="line"/>
      <point x="26" y="366" type="line"/>
      <point x="96" y="366" type="line"/>
      <point x="96" y="82" type="line"/>
      <point x="29" y="82" type="line"/>
      <point x="29" y="0" type="line"/>
      <point x="270" y="0" type="line"/>
      <point x="270" y="82" type="line"/>
      <point x="203" y="82" type="line"/>
      <point x="203" y="261" type="line"/>
      <point x="205" y="325"/>
      <point x="246" y="375"/>
      <point x="314" y="375" type="curve" smooth="yes"/>
      <point x="369" y="375"/>
      <point x="401" y="343"/>
      <point x="401" y="258" type="curve" smooth="yes"/>
      <point x="401" y="82" type="line"/>
      <point x="335" y="82" type="line"/>
      <point x="335" y="0" type="line"/>
    </contour>
  </outline>
</glyph>
<glyph name="uni01F2" format="1">
  <advance width="1173"/>
  <unicode hex="01F2"/>
  <outline>
    <contour>
      <point x="1124" y="0" type="line"/>
      <point x="1150" y="150" type="line"/>
      <point x="1065" y="160" type="line"/>
      <point x="1043" y="82" type="line"/>
      <point x="867" y="82" type="line"/>
      <point x="1128" y="390" type="line"/>
      <point x="1121" y="449" type="line"/>
      <point x="739" y="449" type="line"/>
      <point x="724" y="298" type="line"/>
      <point x="803" y="290" type="line"/>
      <point x="821" y="367" type="line"/>
      <point x="984" y="367" type="line"/>
      <point x="728" y="58" type="line"/>
      <point x="737" y="0" type="line"/>
    </contour>
    <contour>
      <point x="670" y="327" type="curve" smooth="yes"/>
      <point x="670" y="518"/>
      <point x="554" y="650"/>
      <point x="336" y="650" type="curve" smooth="yes"/>
      <point x="40" y="650" type="line"/>
      <point x="40" y="555" type="line"/>
      <point x="115" y="555" type="line"/>
      <point x="115" y="95" type="line"/>
      <point x="40" y="95" type="line"/>
      <point x="40" y="0" type="line"/>
      <point x="342" y="0" type="line" smooth="yes"/>
      <point x="547" y="0"/>
      <point x="670" y="132"/>
    </contour>
    <contour>
      <point x="551" y="326" type="curve" smooth="yes"/>
      <point x="551" y="172"/>
      <point x="473" y="95"/>
      <point x="333" y="95" type="curve" smooth="yes"/>
      <point x="226" y="95" type="line"/>
      <point x="226" y="555" type="line"/>
      <point x="333" y="555" type="line" smooth="yes"/>
      <point x="475" y="555"/>
      <point x="551" y="474"/>
    </contour>
  </outline>
</glyph>
<glyph name="uni021A" format="1">
  <advance width="640"/>
  <unicode hex="021A"/>
  <outline>
    <contour>
      <point x="370" y="-60" type="line"/>
      <point x="269" y="-60" type="line"/>
      <point x="264" y="-215" type="line"/>
      <point x="347" y="-215" type="line"/>
    </contour>
    <contour>
      <point x="618" y="438" type="line"/>
      <point x="598" y="650" type="line"/>
      <point x="41" y="650" type="line"/>
      <point x="21" y="438" type="line"/>
      <point x="116" y="430" type="line"/>
      <point x="136" y="555" type="line"/>
      <point x="264" y="555" type="line"/>
      <point x="264" y="95" type="line"/>
      <point x="159" y="95" type="line"/>
      <point x="159" y="0" type="line"/>
      <point x="484" y="0" type="line"/>
      <point x="484" y="95" type="line"/>
      <point x="375" y="95" type="line"/>
      <point x="375" y="555" type="line"/>
      <point x="502" y="555" type="line"/>
      <point x="522" y="430" type="line"/>
    </contour>
  </outline>
</glyph>
<glyph name="dotlessj" format="1">
  <advance width="260"/>
  <unicode hex="0237"/>
  <outline>
    <contour>
      <point x="10" y="449" type="line"/>
      <point x="198" y="449" type="line"/>
      <point x="198" y="5" type="line" smooth="yes"/>
      <point x="198" y="-165"/>
      <point x="136" y="-237"/>
      <point x="-14" y="-223" type="curve"/>
      <point x="-17" y="-150" type="line"/>
      <point x="38" y="-150"/>
      <point x="91" y="-139"/>
      <point x="91" y="5" type="curve" smooth="yes"/>
      <point x="91" y="366" type="line"/>
      <point x="10" y="366" type="line"/>
    </contour>
  </outline>
</glyph>
<glyph name="circumflex" format="1">
  <advance width="338"/>
  <unicode hex="02C6"/>
  <outline>
    <contour>
      <point x="346" y="556" type="line"/>
      <point x="216" y="679" type="line"/>
      <point x="180" y="679" type="line"/>
      <point x="50" y="555" type="line"/>
      <point x="81" y="512" type="line"/>
      <point x="189" y="586" type="line"/>
      <point x="315" y="512" type="line"/>
    </contour>
  </outline>
</glyph>
<glyph name="ring" format="1">
  <advance width="260"/>
  <unicode hex="02DA"/>
  <outline>
    <contour>
      <point x="233" y="608" type="curve" smooth="yes"/>
      <point x="233" y="660"/>
      <point x="203" y="698"/>
      <point x="132" y="698" type="curve" smooth="yes"/>
      <point x="63" y="698"/>
      <point x="28" y="661"/>
      <point x="28" y="605" type="curve" smooth="yes"/>
      <point x="28" y="550"/>
      <point x="61" y="514"/>
      <point x="129" y="514" type="curve" smooth="yes"/>
      <point x="200" y="514"/>
      <point x="233" y="553"/>
    </contour>
    <contour>
      <point x="165" y="609" type="curve" smooth="yes"/>
      <point x="165" y="583"/>
      <point x="157" y="566"/>
      <point x="130" y="566" type="curve" smooth="yes"/>
      <point x="104" y="566"/>
      <point x="96" y="581"/>
      <point x="96" y="605" type="curve" smooth="yes"/>
      <point x="96" y="629"/>
      <point x="104" y="646"/>
      <point x="131" y="646" type="curve" smooth="yes"/>
      <point x="159" y="646"/>
      <point x="165" y="628"/>
    </contour>
  </outline>
</glyph>
<glyph name="tilde" format="1">
  <advance width="374"/>
  <unicode hex="02DC"/>
  <outline>
    <contour>
      <point x="332" y="647" type="curve"/>
      <point x="285" y="657" type="line"/>
      <point x="275" y="625"/>
      <point x="256" y="615"/>
      <point x="238" y="615" type="curve" smooth="yes"/>
      <point x="199" y="615"/>
      <point x="165" y="653"/>
      <point x="120" y="653" type="curve" smooth="yes"/>
      <point x="60" y="653"/>
      <point x="36" y="579"/>
      <point x="36" y="542" type="curve"/>
      <point x="80" y="528" type="line"/>
      <point x="89" y="558"/>
      <point x="105" y="571"/>
      <point x="127" y="571" type="curve" smooth="yes"/>
      <point x="166" y="571"/>
      <point x="200" y="531"/>
      <point x="251" y="531" type="curve" smooth="yes"/>
      <point x="310" y="531"/>
      <point x="329" y="590"/>
    </contour>
  </outline>
</glyph>
<glyph name="hungarumlaut" format="1">
  <advance width="430"/>
  <unicode hex="02DD"/>
  <outline>
    <contour>
      <point x="396" y="609" type="line"/>
      <point x="339" y="693" type="line"/>
      <point x="180" y="555" type="line"/>
      <point x="209" y="512" type="line"/>
    </contour>
    <contour>
      <point x="234" y="668" type="line"/>
      <point x="152" y="727" type="line"/>
      <point x="51" y="542" type="line"/>
      <point x="93" y="512" type="line"/>
    </contour>
  </outline>
</glyph>
<glyph name="dotbelowcmb" format="1">
  <advance width="833"/>
  <unicode hex="0323"/>
  <outline>
    <contour>
      <point x="78" y="-188" type="line"/>
      <point x="187" y="-188" type="line"/>
      <point x="187" y="-70" type="line"/>
      <point x="78" y="-70" type="line"/>
    </contour>
  </outline>
</glyph>
<glyph name="uni0394" format="1">
  <advance width="483"/>
  <unicode hex="0394"/>
  <outline>
    <contour>
      <point x="-6" y="0" type="line"/>
      <point x="486" y="0" type="line"/>
      <point x="246" y="661" type="line"/>
    </contour>
    <contour>
      <point x="114" y="82" type="line"/>
      <point x="243" y="437" type="line"/>
      <point x="366" y="82" type="line"/>
    </contour>
  </outline>
</glyph>
<glyph name="Sigma" format="1">
  <advance width="550"/>
  <unicode hex="03A3"/>
  <outline>
    <contour>
      <point x="34" y="0" type="line"/>
      <point x="522" y="0" type="line"/>
      <point x="522" y="94" type="line"/>
      <point x="164" y="94" type="line"/>
      <point x="332" y="305" type="line"/>
      <point x="332" y="338" type="line"/>
      <point x="164" y="555" type="line"/>
      <point x="522" y="555" type="line"/>
      <point x="522" y="650" type="line"/>
      <point x="34" y="650" type="line"/>
      <point x="34" y="555" type="line"/>
      <point x="218" y="318" type="line"/>
      <point x="34" y="94" type="line"/>
    </contour>
  </outline>
</glyph>
<glyph name="pi" format="1">
  <advance width="593"/>
  <unicode hex="03C0"/>
  <outline>
    <contour>
      <point x="30" y="82" type="line"/>
      <point x="97" y="82" type="line"/>
      <point x="97" y="366" type="line"/>
      <point x="26" y="366" type="line"/>
      <point x="26" y="449" type="line"/>
      <point x="568" y="449" type="line"/>
      <point x="568" y="366" type="line"/>
      <point x="496" y="366" type="line"/>
      <point x="496" y="82" type="line"/>
      <point x="563" y="82" type="line"/>
      <point x="563" y="0" type="line"/>
      <point x="322" y="0" type="line"/>
      <point x="322" y="82" type="line"/>
      <point x="389" y="82" type="line"/>
      <point x="389" y="366" type="line"/>
      <point x="204" y="366" type="line"/>
      <point x="204" y="82" type="line"/>
      <point x="270" y="82" type="line"/>
      <point x="270" y="0" type="line"/>
      <point x="30" y="0" type="line"/>
    </contour>
  </outline>
</glyph>
<glyph name="uni1E46" format="1">
  <advance width="752"/>
  <unicode hex="1E46"/>
  <outline>
    <contour>
      <point x="331" y="-188" type="line"/>
      <point x="440" y="-188" type="line"/>
      <point x="440" y="-70" type="line"/>
      <point x="331" y="-70" type="line"/>
    </contour>
    <contour>
      <point x="722" y="555" type="line"/>
      <point x="722" y="650" type="line"/>
      <point x="448" y="650" type="line"/>
      <point x="448" y="555" type="line"/>
      <point x="543" y="555" type="line"/>
      <point x="543" y="220" type="line"/>
      <point x="539" y="220" type="line"/>
      <point x="196" y="650" type="line"/>
      <point x="33" y="650" type="line"/>
      <point x="33" y="555" type="line"/>
      <point x="115" y="555" type="line"/>
      <point x="115" y="95" type="line"/>
      <point x="43" y="95" type="line"/>
      <point x="43" y="0" type="line"/>
      <point x="314" y="0" type="line"/>
      <point x="314" y="95" type="line"/>
      <point x="219" y="95" type="line"/>
      <point x="219" y="450" type="line"/>
      <point x="223" y="450" type="line"/>
      <point x="583" y="-1" type="line"/>
      <point x="647" y="0" type="line"/>
      <point x="647" y="555" type="line"/>
    </contour>
  </outline>
</glyph>
<glyph name="uni1EBD" format="1">
  <advance width="478"/>
  <unicode hex="1EBD"/>
  <outline>
    <contour>
      <point x="452" y="137" type="curve"/>
      <point x="363" y="154" type="line"/>
      <point x="354" y="116"/>
      <point x="328" y="76"/>
      <point x="259" y="76" type="curve" smooth="yes"/>
      <point x="185" y="76"/>
      <point x="145" y="121"/>
      <point x="139" y="202" type="curve"/>
      <point x="442" y="202" type="line"/>
      <point x="446" y="223"/>
      <point x="448" y="243"/>
      <point x="448" y="262" type="curve" smooth="yes"/>
      <point x="447" y="375"/>
      <point x="369" y="458"/>
      <point x="245" y="458" type="curve" smooth="yes"/>
      <point x="108" y="458"/>
      <point x="27" y="355"/>
      <point x="27" y="217" type="curve" smooth="yes"/>
      <point x="27" y="68"/>
      <point x="120" y="-10"/>
      <point x="251" y="-10" type="curve" smooth="yes"/>
      <point x="373" y="-10"/>
      <point x="444" y="58"/>
    </contour>
    <contour>
      <point x="338" y="268" type="curve"/>
      <point x="140" y="268" type="line"/>
      <point x="148" y="331"/>
      <point x="180" y="379"/>
      <point x="244" y="379" type="curve" smooth="yes"/>
      <point x="315" y="379"/>
      <point x="344" y="321"/>
    </contour>
    <contour>
      <point x="393" y="647" type="curve"/>
      <point x="346" y="657" type="line"/>
      <point x="336" y="625"/>
      <point x="317" y="615"/>
      <point x="299" y="615" type="curve" smooth="yes"/>
      <point x="260" y="615"/>
      <point x="226" y="653"/>
      <point x="181" y="653" type="curve" smooth="yes"/>
      <point x="121" y="653"/>
      <point x="97" y="579"/>
      <point x="97" y="542" type="curve"/>
      <point x="141" y="528" type="line"/>
      <point x="150" y="558"/>
      <point x="166" y="571"/>
      <point x="188" y="571" type="curve" smooth="yes"/>
      <point x="227" y="571"/>
      <point x="261" y="531"/>
      <point x="312" y="531" type="curve" smooth="yes"/>
      <point x="371" y="531"/>
      <point x="390" y="590"/>
    </contour>
  </outline>
</glyph>
<glyph name="ygrave" format="1">
  <advance width="522"/>
  <unicode hex="1EF3"/>
  <outline>
    <contour>
      <point x="515" y="367" type="line"/>
      <point x="515" y="449" type="line"/>
      <point x="313" y="449" type="line"/>
      <point x="313" y="367" type="line"/>
      <point x="364" y="367" type="line"/>
      <point x="280" y="124" type="line"/>
      <point x="274" y="124" type="line"/>
      <point x="170" y="367" type="line"/>
      <point x="227" y="367" type="line"/>
      <point x="227" y="449" type="line"/>
      <point x="6" y="449" type="line"/>
      <point x="6" y="367" type="line"/>
      <point x="55" y="367" type="line"/>
      <point x="214" y="-4" type="line"/>
      <point x="170" y="-129" type="line"/>
      <point x="94" y="-129" type="line"/>
      <point x="94" y="-213" type="line"/>
      <point x="334" y="-213" type="line"/>
      <point x="334" y="-129" type="line"/>
      <point x="268" y="-129" type="line"/>
      <point x="318" y="0" type="line"/>
      <point x="468" y="367" type="line"/>
    </contour>
    <contour>
      <point x="340" y="555" type="line"/>
      <point x="181" y="693" type="line"/>
      <point x="124" y="609" type="line"/>
      <point x="310" y="512" type="line"/>
    </contour>
  </outline>
</glyph>
<glyph name="emdash" format="1">
  <advance width="1047"/>
  <unicode hex="2014"/>
  <outline>
    <contour>
      <point x="55" y="270" type="line"/>
      <point x="995" y="270" type="line"/>
      <point x="995" y="198" type="line"/>
      <point x="55" y="198" type="line"/>
    </contour>
  </outline>
</glyph>
<glyph name="quoteleft" format="1">
  <advance width="220"/>
  <unicode hex="2018"/>
  <outline>
    <contour>
      <point x="195" y="646" type="line"/>
      <point x="91" y="646" type="line"/>
      <point x="34" y="418" type="line"/>
      <point x="138" y="418" type="line"/>
    </contour>
  </outline>
</glyph>
<glyph name="quoteright" format="1">
  <advance width="214"/>
  <unicode hex="2019"/>
  <outline>
    <contour>
      <point x="31" y="489" type="line"/>
      <point x="135" y="489" type="line"/>
      <point x="192" y="717" type="line"/>
      <point x="88" y="717" type="line"/>
    </contour>
  </outline>
</glyph>
<glyph name="quotesinglbase" format="1">
  <advance width="214"/>
  <unicode hex="201A"/>
  <outline>
    <contour>
      <point x="11" y="-92" type="line"/>
      <point x="115" y="-92" type="line"/>
      <point x="172" y="136" type="line"/>
      <point x="68" y="136" type="line"/>
    </contour>
  </outline>
</glyph>
<glyph name="quotedblright" format="1">
  <advance width="383"/>
  <unicode hex="201D"/>
  <outline>
    <contour>
      <point x="23" y="442" type="line"/>
      <point x="127" y="442" type="line"/>
      <point x="184" y="670" type="line"/>
      <point x="80" y="670" type="line"/>
    </contour>
    <contour>
      <point x="195" y="442" type="line"/>
      <point x="299" y="442" type="line"/>
      <point x="356" y="670" type="line"/>
      <point x="252" y="670" type="line"/>
    </contour>
  </outline>
</glyph>
<glyph name="dagger" format="1">
  <advance width="463"/>
  <unicode hex="2020"/>
  <outline>
    <contour>
      <point x="26" y="436" type="line"/>
      <point x="185" y="436" type="line"/>
      <point x="185" y="650" type="line"/>
      <point x="278" y="650" type="line"/>
      <point x="278" y="436" type="line"/>
      <point x="436" y="436" type="line"/>
      <point x="436" y="344" type="line"/>
      <point x="278" y="344" type="line"/>
      <point x="278" y="-141" type="line"/>
      <point x="185" y="-141" type="line"/>
      <point x="185" y="344" type="line"/>
      <point x="26" y="344" type="line"/>
    </contour>
  </outline>
</glyph>
<glyph name="daggerdbl" format="1">
  <advance width="494"/>
  <unicode hex="2021"/>
  <outline>
    <contour>
      <point x="42" y="144" type="line"/>
      <point x="201" y="144" type="line"/>
      <point x="201" y="344" type="line"/>
      <point x="42" y="344" type="line"/>
      <point x="42" y="436" type="line"/>
      <point x="201" y="436" type="line"/>
      <point x="201" y="650" type="line"/>
      <point x="293" y="650" type="line"/>
      <point x="293" y="436" type="line"/>
      <point x="452" y="436" type="line"/>
      <point x="452" y="344" type="line"/>
      <point x="293" y="344" type="line"/>
      <point x="293" y="144" type="line"/>
      <point x="452" y="144" type="line"/>
      <point x="452" y="53" type="line"/>
      <point x="293" y="53" type="line"/>
      <point x="293" y="-141" type="line"/>
      <point x="201" y="-141" type="line"/>
      <point x="201" y="53" type="line"/>
      <point x="42" y="53" type="line"/>
    </contour>
  </outline>
</glyph>
<glyph name="bullet" format="1">
  <advance width="353"/>
  <unicode hex="2022"/>
  <outline>
    <contour>
      <point x="57" y="243" type="curve" smooth="yes"/>
      <point x="57" y="176"/>
      <point x="109" y="124"/>
      <point x="176" y="124" type="curve" smooth="yes"/>
      <point x="244" y="124"/>
      <point x="297" y="176"/>
      <point x="297" y="243" type="curve" smooth="yes"/>
      <point x="297" y="310"/>
      <point x="244" y="364"/>
      <point x="176" y="364" type="curve" smooth="yes"/>
      <point x="109" y="364"/>
      <point x="57" y="310"/>
    </contour>
  </outline>
</glyph>
<glyph name="guilsinglright" format="1">
  <advance width="296"/>
  <unicode hex="203A"/>
  <outline>
    <contour>
      <point x="127" y="25" type="line"/>
      <point x="265" y="271" type="line"/>
      <point x="127" y="511" type="line"/>
      <point x="37" y="511" type="line"/>
      <point x="159" y="271" type="line"/>
      <point x="37" y="25" type="line"/>
    </contour>
  </outline>
</glyph>
<glyph name="fraction" format="1">
  <advance width="151"/>
  <unicode hex="2044"/>
  <outline>
    <contour>
      <point x="299" y="650" type="line"/>
      <point x="108" y="325" type="line"/>
      <point x="-73" y="0" type="line"/>
      <point x="-148" y="0" type="line"/>
      <point x="50" y="337" type="line"/>
      <point x="224" y="650" type="line"/>
    </contour>
  </outline>
</glyph>
<glyph name="zerosuperior" format="1">
  <advance width="386"/>
  <unicode hex="2070"/>
  <outline>
    <contour>
      <point x="31" y="592" type="curve" smooth="yes"/>
      <point x="31" y="687"/>
      <point x="66" y="785"/>
      <point x="194" y="785" type="curve" smooth="yes"/>
      <point x="323" y="785"/>
      <point x="355" y="684"/>
      <point x="355" y="597" type="curve" smooth="yes"/>
      <point x="355" y="493"/>
      <point x="310" y="409"/>
      <point x="190" y="409" type="curve" smooth="yes"/>
      <point x="71" y="409"/>
      <point x="31" y="493"/>
    </contour>
    <contour>
      <point x="122" y="600" type="curve" smooth="yes"/>
      <point x="122" y="532"/>
      <point x="134" y="475"/>
      <point x="191" y="475" type="curve" smooth="yes"/>
      <point x="246" y="475"/>
      <point x="264" y="526"/>
      <point x="264" y="600" type="curve" smooth="yes"/>
      <point x="264" y="668"/>
      <point x="250" y="719"/>
      <point x="193" y="719" type="curve" smooth="yes"/>
      <point x="135" y="719"/>
      <point x="122" y="665"/>
    </contour>
  </outline>
</glyph>
<glyph name="i.superior" format="1">
  <advance width="215"/>
  <unicode hex="2071"/>
  <outline>
    <contour>
      <point x="29" y="473" type="line"/>
      <point x="70" y="473" type="line"/>
      <point x="70" y="648" type="line"/>
      <point x="26" y="648" type="line"/>
      <point x="26" y="707" type="line"/>
      <point x="154" y="707" type="line"/>
      <point x="154" y="473" type="line"/>
      <point x="194" y="473" type="line"/>
      <point x="194" y="415" type="line"/>
      <point x="29" y="415" type="line"/>
    </contour>
    <contour>
      <point x="68" y="768" type="line"/>
      <point x="154" y="768" type="line"/>
      <point x="154" y="851" type="line"/>
      <point x="68" y="851" type="line"/>
    </contour>
  </outline>
</glyph>
<glyph name="foursuperior" format="1">
  <advance width="365"/>
  <unicode hex="2074"/>
  <outline>
    <contour>
      <point x="196" y="415" type="line"/>
      <point x="281" y="415" type="line"/>
      <point x="281" y="489" type="line"/>
      <point x="334" y="489" type="line"/>
      <point x="340" y="554" type="line"/>
      <point x="281" y="554" type="line"/>
      <point x="281" y="779" type="line"/>
      <point x="132" y="779" type="line"/>
      <point x="17" y="551" type="line"/>
      <point x="26" y="489" type="line"/>
      <point x="196" y="489" type="line"/>
    </contour>
    <contour>
      <point x="176" y="715" type="line"/>
      <point x="196" y="715" type="line"/>
      <point x="196" y="554" type="line"/>
      <point x="92" y="554" type="line"/>
    </contour>
  </outline>
</glyph>
<glyph name="ninesuperior" format="1">
  <advance width="349"/>
  <unicode hex="2079"/>
  <outline>
    <contour>
      <point x="153" y="473" type="curve" smooth="yes"/>
      <point x="136" y="473"/>
      <point x="110" y="479"/>
      <point x="88" y="505" type="curve"/>
      <point x="42" y="457" type="line"/>
      <point x="75" y="423"/>
      <point x="116" y="409"/>
      <point x="161" y="409" type="curve" smooth="yes"/>
      <point x="270" y="409"/>
      <point x="317" y="490"/>
      <point x="317" y="603" type="curve" smooth="yes"/>
      <point x="317" y="711"/>
      <point x="274" y="785"/>
      <point x="172" y="785" type="curve" smooth="yes"/>
      <point x="87" y="785"/>
      <point x="32" y="732"/>
      <point x="32" y="657" type="curve" smooth="yes"/>
      <point x="32" y="603"/>
      <point x="59" y="544"/>
      <point x="140" y="544" type="curve" smooth="yes"/>
      <point x="186" y="544"/>
      <point x="211" y="563"/>
      <point x="225" y="586" type="curve"/>
      <point x="222" y="498"/>
      <point x="203" y="473"/>
    </contour>
    <contour>
      <point x="168" y="605" type="curve" smooth="yes"/>
      <point x="131" y="605"/>
      <point x="118" y="626"/>
      <point x="118" y="661" type="curve" smooth="yes"/>
      <point x="118" y="697"/>
      <point x="133" y="719"/>
      <point x="170" y="719" type="curve" smooth="yes"/>
      <point x="207" y="719"/>
      <point x="220" y="697"/>
      <point x="224" y="653" type="curve"/>
      <point x="222" y="625"/>
      <point x="204" y="605"/>
    </contour>
  </outline>
</glyph>
<glyph name="plussuperior" format="1">
  <advance width="281"/>
  <unicode hex="207A"/>
  <outline>
    <contour>
      <point x="25" y="571" type="line"/>
      <point x="114" y="571" type="line"/>
      <point x="114" y="485" type="line"/>
      <point x="171" y="485" type="line"/>
      <point x="171" y="571" type="line"/>
      <point x="257" y="571" type="line"/>
      <point x="257" y="624" type="line"/>
      <point x="171" y="624" type="line"/>
      <point x="171" y="711" type="line"/>
      <point x="114" y="711" type="line"/>
      <point x="114" y="624" type="line"/>
      <point x="25" y="624" type="line"/>
    </contour>
  </outline>
</glyph>
<glyph name="equalsuperior" format="1">
  <advance width="375"/>
  <unicode hex="207C"/>
  <outline>
    <contour>
      <point x="42" y="635" type="line"/>
      <point x="332" y="635" type="line"/>
      <point x="332" y="688" type="line"/>
      <point x="42" y="688" type="line"/>
    </contour>
    <contour>
      <point x="42" y="506" type="line"/>
      <point x="332" y="506" type="line"/>
      <point x="332" y="559" type="line"/>
      <point x="42" y="559" type="line"/>
    </contour>
  </outline>
</glyph>
<glyph name="parenrightsuperior" format="1">
  <advance width="224"/>
  <unicode hex="207E"/>
  <outline>
    <contour>
      <point x="91" y="309" type="curve"/>
      <point x="19" y="309" type="line"/>
      <point x="87" y="390"/>
      <point x="122" y="478"/>
      <point x="122" y="569" type="curve" smooth="yes"/>
      <point x="122" y="659"/>
      <point x="88" y="751"/>
      <point x="19" y="831" type="curve"/>
      <point x="92" y="831" type="line"/>
      <point x="160" y="746"/>
      <point x="190" y="657"/>
      <point x="190" y="569" type="curve" smooth="yes"/>
      <point x="190" y="480"/>
      <point x="158" y="391"/>
    </contour>
  </outline>
</glyph>
<glyph name="n.superior" format="1">
  <advance width="415"/>
  <unicode hex="207F"/>
  <outline>
    <contour>
      <point x="231" y="473" type="line"/>
      <point x="272" y="473" type="line"/>
      <point x="272" y="581" type="line" smooth="yes"/>
      <point x="272" y="634"/>
      <point x="254" y="654"/>
      <point x="219" y="654" type="curve" smooth="yes"/>
      <point x="179" y="654"/>
      <point x="155" y="628"/>
      <point x="153" y="588" type="curve"/>
      <point x="153" y="473" type="line"/>
      <point x="193" y="473" type="line"/>
      <point x="193" y="415" type="line"/>
      <point x="28" y="415" type="line"/>
      <point x="28" y="473" type="line"/>
      <point x="69" y="473" type="line"/>
      <point x="69" y="648" type="line"/>
      <point x="25" y="648" type="line"/>
      <point x="25" y="707" type="line"/>
      <point x="153" y="707" type="line"/>
      <point x="153" y="662" type="line"/>
      <point x="172" y="694"/>
      <point x="206" y="713"/>
      <point x="250" y="713" type="curve" smooth="yes"/>
      <point x="307" y="713"/>
      <point x="356" y="681"/>
      <point x="356" y="610" type="curve" smooth="yes"/>
      <point x="356" y="473" type="line"/>
      <point x="397" y="473" type="line"/>
      <point x="397" y="415" type="line"/>
      <point x="231" y="415" type="line"/>
    </contour>
  </outline>
</glyph>
<glyph name="zeroinferior" format="1">
  <advance width="386"/>
  <unicode hex="2080"/>
  <outline>
    <contour>
      <point x="31" y="177" type="curve" smooth="yes"/>
      <point x="31" y="272"/>
      <point x="66" y="370"/>
      <point x="194" y="370" type="curve" smooth="yes"/>
      <point x="323" y="370"/>
      <point x="355" y="269"/>
      <point x="355" y="182" type="curve" smooth="yes"/>
      <point x="355" y="78"/>
      <point x="310" y="-6"/>
      <point x="190" y="-6" type="curve" smooth="yes"/>
      <point x="71" y="-6"/>
      <point x="31" y="78"/>
    </contour>
    <contour>
      <point x="122" y="185" type="curve" smooth="yes"/>
      <point x="122" y="117"/>
      <point x="134" y="60"/>
      <point x="191" y="60" type="curve" smooth="yes"/>
      <point x="246" y="60"/>
      <point x="264" y="111"/>
      <point x="264" y="185" type="curve" smooth="yes"/>
      <point x="264" y="253"/>
      <point x="250" y="304"/>
      <point x="193" y="304" type="curve" smooth="yes"/>
      <point x="135" y="304"/>
      <point x="122" y="250"/>
    </contour>
  </outline>
</glyph>
<glyph name="twoinferior" format="1">
  <advance width="360"/>
  <unicode hex="2082"/>
  <outline>
    <contour>
      <point x="101" y="244" type="line"/>
      <point x="112" y="293" type="line"/>
      <point x="128" y="303"/>
      <point x="145" y="306"/>
      <point x="163" y="306" type="curve" smooth="yes"/>
      <point x="200" y="306"/>
      <point x="220" y="288"/>
      <point x="220" y="262" type="curve" smooth="yes"/>
      <point x="220" y="202"/>
      <point x="110" y="124"/>
      <point x="28" y="59" type="curve"/>
      <point x="36" y="0" type="line"/>
      <point x="327" y="0" type="line"/>
      <point x="337" y="110" type="line"/>
      <point x="269" y="118" type="line"/>
      <point x="258" y="64" type="line"/>
      <point x="133" y="64" type="line"/>
      <point x="186" y="102"/>
      <point x="313" y="185"/>
      <point x="313" y="272" type="curve" smooth="yes"/>
      <point x="313" y="320"/>
      <point x="276" y="370"/>
      <point x="179" y="370" type="curve" smooth="yes"/>
      <point x="132" y="370"/>
      <point x="83" y="359"/>
      <point x="49" y="340" type="curve"/>
      <point x="36" y="250" type="line"/>
    </contour>
  </outline>
</glyph>
<glyph name="threeinferior" format="1">
  <advance width="347"/>
  <unicode hex="2083"/>
  <outline>
    <contour>
      <point x="105" y="249" type="line"/>
      <point x="115" y="293" type="line"/>
      <point x="131" y="302"/>
      <point x="146" y="305"/>
      <point x="163" y="305" type="curve"/>
      <point x="195" y="305"/>
      <point x="212" y="291"/>
      <point x="212" y="264" type="curve" smooth="yes"/>
      <point x="212" y="226"/>
      <point x="180" y="216"/>
      <point x="137" y="213" type="curve"/>
      <point x="137" y="165" type="line"/>
      <point x="193" y="163"/>
      <point x="225" y="148"/>
      <point x="225" y="113" type="curve" smooth="yes"/>
      <point x="225" y="83"/>
      <point x="203" y="59"/>
      <point x="162" y="59" type="curve" smooth="yes"/>
      <point x="121" y="59"/>
      <point x="102" y="81"/>
      <point x="93" y="111" type="curve"/>
      <point x="32" y="91" type="line"/>
      <point x="44" y="24"/>
      <point x="95" y="-7"/>
      <point x="164" y="-7" type="curve" smooth="yes"/>
      <point x="252" y="-7"/>
      <point x="317" y="32"/>
      <point x="317" y="102" type="curve" smooth="yes"/>
      <point x="317" y="143"/>
      <point x="296" y="181"/>
      <point x="238" y="193" type="curve"/>
      <point x="238" y="195" type="line"/>
      <point x="283" y="212"/>
      <point x="303" y="243"/>
      <point x="303" y="278" type="curve" smooth="yes"/>
      <point x="303" y="330"/>
      <point x="258" y="369"/>
      <point x="179" y="369" type="curve" smooth="yes"/>
      <point x="139" y="369"/>
      <point x="85" y="359"/>
      <point x="52" y="340" type="curve"/>
      <point x="40" y="254" type="line"/>
    </contour>
  </outline>
</glyph>
<glyph name="fourinferior" format="1">
  <advance width="365"/>
  <unicode hex="2084"/>
  <outline>
    <contour>
      <point x="196" y="0" type="line"/>
      <point x="281" y="0" type="line"/>
      <point x="281" y="74" type="line"/>
      <point x="334" y="74" type="line"/>
      <point x="340" y="139" type="line"/>
      <point x="281" y="139" type="line"/>
      <point x="281" y="364" type="line"/>
      <point x="132" y="364" type="line"/>
      <point x="17" y="136" type="line"/>
      <point x="26" y="74" type="line"/>
      <point x="196" y="74" type="line"/>
    </contour>
    <contour>
      <point x="176" y="300" type="line"/>
      <point x="196" y="300" type="line"/>
      <point x="196" y="139" type="line"/>
      <point x="92" y="139" type="line"/>
    </contour>
  </outline>
</glyph>
<glyph name="sixinferior" format="1">
  <advance width="348"/>
  <unicode hex="2086"/>
  <outline>
    <contour>
      <point x="196" y="306" type="curve" smooth="yes"/>
      <point x="219" y="306"/>
      <point x="238" y="300"/>
      <point x="260" y="274" type="curve"/>
      <point x="305" y="322" type="line"/>
      <point x="273" y="356"/>
      <point x="232" y="370"/>
      <point x="189" y="370" type="curve" smooth="yes"/>
      <point x="79" y="370"/>
      <point x="31" y="280"/>
      <point x="31" y="172" type="curve" smooth="yes"/>
      <point x="31" y="69"/>
      <point x="74" y="-6"/>
      <point x="175" y="-6" type="curve" smooth="yes"/>
      <point x="261" y="-6"/>
      <point x="316" y="47"/>
      <point x="316" y="122" type="curve" smooth="yes"/>
      <point x="316" y="176"/>
      <point x="289" y="235"/>
      <point x="208" y="235" type="curve" smooth="yes"/>
      <point x="161" y="235"/>
      <point x="135" y="215"/>
      <point x="121" y="191" type="curve"/>
      <point x="125" y="281"/>
      <point x="150" y="306"/>
    </contour>
    <contour>
      <point x="180" y="174" type="curve" smooth="yes"/>
      <point x="216" y="174"/>
      <point x="230" y="153"/>
      <point x="230" y="118" type="curve" smooth="yes"/>
      <point x="230" y="82"/>
      <point x="215" y="60"/>
      <point x="178" y="60" type="curve" smooth="yes"/>
      <point x="141" y="60"/>
      <point x="127" y="81"/>
      <point x="123" y="122" type="curve"/>
      <point x="124" y="151"/>
      <point x="142" y="174"/>
    </contour>
  </outline>
</glyph>
<glyph name="seveninferior" format="1">
  <advance width="316"/>
  <unicode hex="2087"/>
  <outline>
    <contour>
      <point x="23" y="364" type="line"/>
      <point x="23" y="240" type="line"/>
      <point x="97" y="240" type="line"/>
      <point x="97" y="301" type="line"/>
      <point x="214" y="301" type="line"/>
      <point x="86" y="-1" type="line"/>
      <point x="169" y="-1" type="line"/>
      <point x="306" y="329" type="line"/>
      <point x="296" y="364" type="line"/>
    </contour>
  </outline>
</glyph>
<glyph name="plus.inferior" format="1">
  <advance width="281"/>
  <unicode hex="208A"/>
  <outline>
    <contour>
      <point x="25" y="156" type="line"/>
      <point x="114" y="156" type="line"/>
      <point x="114" y="70" type="line"/>
      <point x="171" y="70" type="line"/>
      <point x="171" y="156" type="line"/>
      <point x="257" y="156" type="line"/>
      <point x="257" y="209" type="line"/>
      <point x="171" y="209" type="line"/>
      <point x="171" y="296" type="line"/>
      <point x="114" y="296" type="line"/>
      <point x="114" y="209" type="line"/>
      <point x="25" y="209" type="line"/>
    </contour>
  </outline>
</glyph>
<glyph name="minus.inferior" format="1">
  <advance width="314"/>
  <unicode hex="208B"/>
  <outline>
    <contour>
      <point x="41" y="156" type="line"/>
      <point x="273" y="156" type="line"/>
      <point x="273" y="209" type="line"/>
      <point x="41" y="209" type="line"/>
    </contour>
  </outline>
</glyph>
<glyph name="equal.inferior" format="1">
  <advance width="373"/>
  <unicode hex="208C"/>
  <outline>
    <contour>
      <point x="41" y="220" type="line"/>
      <point x="331" y="220" type="line"/>
      <point x="331" y="273" type="line"/>
      <point x="41" y="273" type="line"/>
    </contour>
    <contour>
      <point x="41" y="91" type="line"/>
      <point x="331" y="91" type="line"/>
      <point x="331" y="144" type="line"/>
      <point x="41" y="144" type="line"/>
    </contour>
  </outline>
</glyph>
<glyph name="parenleft.inferior" format="1">
  <advance width="222"/>
  <unicode hex="208D"/>
  <outline>
    <contour>
      <point x="132" y="416" type="curve"/>
      <point x="204" y="416" type="line"/>
      <point x="136" y="335"/>
      <point x="102" y="248"/>
      <point x="102" y="157" type="curve" smooth="yes"/>
      <point x="102" y="66"/>
      <point x="136" y="-26"/>
      <point x="204" y="-106" type="curve"/>
      <point x="131" y="-106" type="line"/>
      <point x="62" y="-21"/>
      <point x="33" y="68"/>
      <point x="33" y="157" type="curve" smooth="yes"/>
      <point x="33" y="246"/>
      <point x="64" y="334"/>
    </contour>
  </outline>
</glyph>
<glyph name="parenright.inferior" format="1">
  <advance width="224"/>
  <unicode hex="208E"/>
  <outline>
    <contour>
      <point x="91" y="-107" type="curve"/>
      <point x="19" y="-107" type="line"/>
      <point x="87" y="-26"/>
      <point x="122" y="62"/>
      <point x="122" y="153" type="curve" smooth="yes"/>
      <point x="122" y="243"/>
      <point x="88" y="335"/>
      <point x="19" y="415" type="curve"/>
      <point x="92" y="415" type="line"/>
      <point x="160" y="330"/>
      <point x="190" y="241"/>
      <point x="190" y="153" type="curve" smooth="yes"/>
      <point x="190" y="64"/>
      <point x="158" y="-25"/>
    </contour>
  </outline>
</glyph>
<glyph name="e.inferior" format="1">
  <advance width="341"/>
  <unicode hex="2091"/>
  <outline>
    <contour>
      <point x="185" y="57" type="curve" smooth="yes"/>
      <point x="231" y="57"/>
      <point x="244" y="82"/>
      <point x="248" y="103" type="curve"/>
      <point x="318" y="90" type="line"/>
      <point x="314" y="39"/>
      <point x="264" y="-7"/>
      <point x="178" y="-7" type="curve" smooth="yes"/>
      <point x="89" y="-7"/>
      <point x="24" y="44"/>
      <point x="24" y="141" type="curve" smooth="yes"/>
      <point x="24" y="231"/>
      <point x="79" y="298"/>
      <point x="174" y="298" type="curve" smooth="yes"/>
      <point x="272" y="298"/>
      <point x="333" y="225"/>
      <point x="310" y="130" type="curve"/>
      <point x="114" y="130" type="line"/>
      <point x="118" y="80"/>
      <point x="139" y="57"/>
    </contour>
    <contour>
      <point x="174" y="240" type="curve" smooth="yes"/>
      <point x="136" y="240"/>
      <point x="120" y="215"/>
      <point x="115" y="176" type="curve"/>
      <point x="228" y="176" type="line"/>
      <point x="233" y="208"/>
      <point x="217" y="240"/>
    </contour>
  </outline>
</glyph>
<glyph name="l.inferior" format="1">
  <advance width="207"/>
  <unicode hex="2097"/>
  <outline>
    <contour>
      <point x="21" y="58" type="line"/>
      <point x="61" y="58" type="line"/>
      <point x="61" y="389" type="line"/>
      <point x="18" y="389" type="line"/>
      <point x="18" y="447" type="line"/>
      <point x="146" y="447" type="line"/>
      <point x="146" y="58" type="line"/>
      <point x="186" y="58" type="line"/>
      <point x="186" y="0" type="line"/>
      <point x="21" y="0" type="line"/>
    </contour>
    <contour>
      <point x="208" y="368" type="move" name="top"/>
    </contour>
  </outline>
</glyph>
<glyph name="m.inferior" format="1">
  <advance width="605"/>
  <unicode hex="2098"/>
  <outline>
    <contour>
      <point x="421" y="58" type="line"/>
      <point x="463" y="58" type="line"/>
      <point x="463" y="166" type="line" smooth="yes"/>
      <point x="463" y="219"/>
      <point x="444" y="239"/>
      <point x="410" y="239" type="curve" smooth="yes"/>
      <point x="369" y="239"/>
      <point x="351" y="209"/>
      <point x="350" y="173" type="curve"/>
      <point x="350" y="58" type="line"/>
      <point x="391" y="58" type="line"/>
      <point x="391" y="0" type="line"/>
      <point x="226" y="0" type="line"/>
      <point x="226" y="58" type="line"/>
      <point x="266" y="58" type="line"/>
      <point x="266" y="166" type="line" smooth="yes"/>
      <point x="266" y="219"/>
      <point x="248" y="239"/>
      <point x="214" y="239" type="curve" smooth="yes"/>
      <point x="171" y="239"/>
      <point x="154" y="208"/>
      <point x="154" y="167" type="curve" smooth="yes"/>
      <point x="154" y="58" type="line"/>
      <point x="192" y="58" type="line"/>
      <point x="192" y="0" type="line"/>
      <point x="29" y="0" type="line"/>
      <point x="29" y="58" type="line"/>
      <point x="70" y="58" type="line"/>
      <point x="70" y="233" type="line"/>
      <point x="26" y="233" type="line"/>
      <point x="26" y="292" type="line"/>
      <point x="154" y="292" type="line"/>
      <point x="154" y="247" type="line"/>
      <point x="172" y="279"/>
      <point x="203" y="298"/>
      <point x="246" y="298" type="curve" smooth="yes"/>
      <point x="289" y="298"/>
      <point x="329" y="278"/>
      <point x="344" y="234" type="curve"/>
      <point x="360" y="272"/>
      <point x="394" y="298"/>
      <point x="443" y="298" type="curve" smooth="yes"/>
      <point x="498" y="298"/>
      <point x="547" y="266"/>
      <point x="547" y="195" type="curve" smooth="yes"/>
      <point x="547" y="58" type="line"/>
      <point x="588" y="58" type="line"/>
      <point x="588" y="0" type="line"/>
      <point x="421" y="0" type="line"/>
    </contour>
    <contour>
      <point x="216" y="368" type="move" name="top"/>
    </contour>
  </outline>
</glyph>
<glyph name="p.inferior" format="1">
  <advance width="402"/>
  <unicode hex="209A"/>
  <outline>
    <contour>
      <point x="21" y="-80" type="line"/>
      <point x="62" y="-80" type="line"/>
      <point x="62" y="233" type="line"/>
      <point x="18" y="233" type="line"/>
      <point x="18" y="292" type="line"/>
      <point x="146" y="292" type="line"/>
      <point x="146" y="237" type="line"/>
      <point x="163" y="270"/>
      <point x="194" y="298"/>
      <point x="248" y="298" type="curve" smooth="yes"/>
      <point x="324" y="298"/>
      <point x="377" y="244"/>
      <point x="377" y="154" type="curve" smooth="yes"/>
      <point x="377" y="69"/>
      <point x="331" y="-7"/>
      <point x="239" y="-7" type="curve" smooth="yes"/>
      <point x="196" y="-7"/>
      <point x="164" y="9"/>
      <point x="146" y="37" type="curve"/>
      <point x="146" y="-80" type="line"/>
      <point x="201" y="-80" type="line"/>
      <point x="201" y="-138" type="line"/>
      <point x="21" y="-138" type="line"/>
    </contour>
    <contour>
      <point x="216" y="57" type="curve" smooth="yes"/>
      <point x="257" y="57"/>
      <point x="287" y="86"/>
      <point x="287" y="147" type="curve" smooth="yes"/>
      <point x="287" y="205"/>
      <point x="259" y="235"/>
      <point x="221" y="235" type="curve" smooth="yes"/>
      <point x="177" y="235"/>
      <point x="148" y="196"/>
      <point x="146" y="153" type="curve"/>
      <point x="146" y="125" type="line"/>
      <point x="149" y="81"/>
      <point x="178" y="57"/>
    </contour>
    <contour>
      <point x="235" y="368" type="move" name="top"/>
    </contour>
  </outline>
</glyph>
<glyph name="colonsign" format="1">
  <advance width="687"/>
  <unicode hex="20A1"/>
  <outline>
    <contour>
      <point x="575" y="689" type="line"/>
      <point x="651" y="689" type="line"/>
      <point x="438" y="95" type="line"/>
      <point x="462" y="100"/>
      <point x="483" y="107"/>
      <point x="498" y="116" type="curve"/>
      <point x="514" y="213" type="line"/>
      <point x="605" y="204" type="line"/>
      <point x="590" y="62" type="line"/>
      <point x="553" y="27"/>
      <point x="477" y="2"/>
      <point x="402" y="-6" type="curve"/>
      <point x="379" y="-71" type="line"/>
      <point x="303" y="-71" type="line"/>
      <point x="325" y="-9" type="line"/>
      <point x="307" y="-8"/>
      <point x="291" y="-6"/>
      <point x="274" y="-2" type="curve"/>
      <point x="250" y="-71" type="line"/>
      <point x="174" y="-71" type="line"/>
      <point x="207" y="21" type="line"/>
      <point x="105" y="70"/>
      <point x="38" y="177"/>
      <point x="38" y="321" type="curve" smooth="yes"/>
      <point x="38" y="514"/>
      <point x="162" y="660"/>
      <point x="347" y="660" type="curve" smooth="yes"/>
      <point x="378" y="660"/>
      <point x="406" y="655"/>
      <point x="431" y="648" type="curve"/>
      <point x="446" y="689" type="line"/>
      <point x="522" y="689" type="line"/>
      <point x="496" y="616" type="line"/>
      <point x="511" y="604"/>
      <point x="524" y="591"/>
      <point x="535" y="577" type="curve"/>
    </contour>
    <contour>
      <point x="360" y="562" type="curve" smooth="yes"/>
      <point x="237" y="562"/>
      <point x="156" y="475"/>
      <point x="156" y="324" type="curve" smooth="yes"/>
      <point x="156" y="224"/>
      <point x="189" y="158"/>
      <point x="243" y="122" type="curve"/>
      <point x="399" y="558" type="line"/>
      <point x="387" y="560"/>
      <point x="374" y="562"/>
    </contour>
    <contour>
      <point x="465" y="529" type="curve"/>
      <point x="309" y="94" type="line"/>
      <point x="325" y="91"/>
      <point x="342" y="88"/>
      <point x="360" y="88" type="curve"/>
      <point x="500" y="479" type="line"/>
      <point x="493" y="498"/>
      <point x="481" y="515"/>
    </contour>
  </outline>
</glyph>
